<svg id="Capa_1" data-name="Capa 1" xmlns="http://www.w3.org/2000/svg" viewBox="0 0 1343.21 1046.04"><defs><style>.cls-1{fill:#e8e8e8;}.cls-15,.cls-2{fill:#fff;}.cls-10,.cls-2,.cls-8{stroke:#161616;stroke-miterlimit:10;}.cls-10,.cls-2{stroke-width:3px;}.cls-3{fill:#161616;}.cls-4{fill:#d9ed92;}.cls-11,.cls-12,.cls-13,.cls-14,.cls-16,.cls-17,.cls-18,.cls-19,.cls-5,.cls-6,.cls-7{fill:#3d3d3d;isolation:isolate;}.cls-5{opacity:0.4;}.cls-6{opacity:0.38;}.cls-7{opacity:0.42;}.cls-10,.cls-8{fill:none;}.cls-8{stroke-width:16px;}.cls-9{fill:#1d183e;}.cls-11{opacity:0.37;}.cls-12{opacity:0.5;}.cls-13{opacity:0.32;}.cls-14{opacity:0.29;}.cls-16{opacity:0.48;}.cls-17{opacity:0.27;}.cls-18{opacity:0.36;}.cls-19{opacity:0.43;}</style></defs><title>blogging</title><g id="background"><path class="cls-1" d="M1084.8,284.4c.2,3.1.3,6.2.5,9.2,0,.6.4,1.4,1.1,1.4,84.2,11.6,169.1,1.8,253.6,2,23.9,0,47.7.9,71.5,3.2a1.39,1.39,0,0,0,1.4-1.1c.8-4.1,1.7-8.2,2.5-12.3.4-1.9-2.5-2.7-2.9-.8-.8,4.1-1.7,8.2-2.5,12.3a17.1,17.1,0,0,0,1.4-1.1c-83.7-8.2-167.7,2.1-251.6.3a631.59,631.59,0,0,1-72.7-5.4,17.1,17.1,0,0,0,1.1,1.4c-.2-3.1-.3-6.2-.5-9.2,0-1.8-3-1.8-2.9.1Z" transform="translate(-135 -122.89)"/><path class="cls-1" d="M1087.3,285.9h325.9a1.5,1.5,0,0,0,0-3H1087.3a1.5,1.5,0,0,0,0,3Z" transform="translate(-135 -122.89)"/><path class="cls-1" d="M1105.5,283.5c2.5-35.9,4.6-71.9,7.7-107.7.4-4.7.9-9.3,1.7-13.9.3-1.7.4-5.2,1.4-6.6,1.3-1.8,4.1-1.8,6.1-2.1,4.6-.8,12.3-3.6,15.5,1.1.9,1.4,1.1,4.3,1.4,6,.6,3,1,6,1.3,9,1.6,17.6-.7,35.5-2,53.1l-4.5,61.2c-.1,1.9,2.9,1.9,3,0,2.2-29.2,4.6-58.3,6.4-87.5.8-13.4,1.2-27.1-2.1-40.3-.9-3.7-2.3-6.8-6.5-7.2-6.4-.5-13.8,1.7-20,3a1.44,1.44,0,0,0-1,1c-5.3,20.7-5.1,43-6.6,64.2-1.6,22.2-3.1,44.5-4.7,66.7-.2,1.9,2.8,1.9,2.9,0Z" transform="translate(-135 -122.89)"/><path class="cls-1" d="M1142.7,193.2q18.3,46.05,38.6,91.2c.8,1.8,3.4.2,2.6-1.5q-20.1-44.85-38.3-90.5c-.7-1.8-3.6-1-2.9.8Z" transform="translate(-135 -122.89)"/><path class="cls-1" d="M1145.3,177.1a14.41,14.41,0,0,1,17.4-9,1.5,1.5,0,0,0,.8-2.9,17.48,17.48,0,0,0-21.1,11.1c-.6,1.9,2.3,2.6,2.9.8Z" transform="translate(-135 -122.89)"/><path class="cls-1" d="M1162.7,168.7q29.7,57.6,59.3,115.3c.9,1.7,3.5.2,2.6-1.5q-29.7-57.6-59.3-115.3c-.9-1.8-3.5-.3-2.6,1.5Z" transform="translate(-135 -122.89)"/><path class="cls-1" d="M1214.8,142.9q4.8,69.75,9.5,139.5c.1,1.9,3.1,1.9,3,0q-4.8-69.75-9.5-139.5c-.1-1.9-3.1-1.9-3,0Z" transform="translate(-135 -122.89)"/><path class="cls-1" d="M1217.4,144.5c5.1-4.6,12-4.6,18.4-3.5a43,43,0,0,1,7.9,1.8c4.6,1.7,3.9,5.9,4.1,10,.6,14.3,1.1,28.6,1.7,42.9,1.1,28.9,2.3,57.9,3.4,86.8.1,1.9,3.1,1.9,3,0-1.4-34.6-2.7-69.2-4.1-103.7-.3-8.6-.7-17.3-1-25.9-.2-4.4.4-9.8-4.2-12.2-4.8-2.5-12.2-3.4-17.6-3.3-5.2.1-9.8,1.5-13.6,5-1.5,1.2.6,3.4,2,2.1Z" transform="translate(-135 -122.89)"/><path class="cls-1" d="M1165.1,167c9.5.6,18.8,3.4,27.9,6,8.4,2.4,16.6,5.4,23.7,10.6,1.6,1.1,3.1-1.5,1.5-2.6-7.4-5.3-15.8-8.4-24.5-10.9-9.4-2.7-18.9-5.4-28.7-6.1-1.9-.2-1.9,2.8.1,3Z" transform="translate(-135 -122.89)"/><path class="cls-1" d="M1251.3,161.7c4.4-1.1,9.3-2.2,13.9-1.3,6.8,1.4,8.2,7.4,8.5,13.5.5,12.3.7,24.5,1,36.8q.9,36.3,1,72.6a1.5,1.5,0,0,0,3,0q-.15-43.35-1.3-86.5c-.2-7-.4-13.9-.6-20.9-.2-4.6-.1-9.7-2.9-13.6-5.2-7.3-15.9-5.5-23.3-3.6a1.54,1.54,0,0,0,.7,3Z" transform="translate(-135 -122.89)"/><path class="cls-1" d="M1273.2,145.9v26.9a1.5,1.5,0,0,0,3,0V145.9a1.5,1.5,0,0,0-3,0Z" transform="translate(-135 -122.89)"/><path class="cls-1" d="M1277.6,147c.8.3,1.7.6,2.5.9.1.7.2,1.4.3,2.2.2,1.6.2,3.3.4,5,.2,2.6.4,5.3.6,7.9.4,5.6.7,11.3,1,16.9.7,11.6,1.2,23.2,1.6,34.8.9,22.9,1.2,45.8,1.2,68.7a1.5,1.5,0,0,0,3,0c0-28.5-.6-57.1-1.9-85.6-.7-13.9-1.5-27.8-2.5-41.7-.2-3.4.4-9.6-2.7-12a3.94,3.94,0,0,0-6.1,1.4c-.7,1.8,1.8,3.3,2.6,1.5Z" transform="translate(-135 -122.89)"/><path class="cls-1" d="M1130.2,299.1c3.1,5.2,6.1,13,11.1,16.7s10.9.4,16.3,2.3c1.8.6,2.6-2.3.8-2.9-4.8-1.7-10.4,1-14.7-1.7-4.9-3-8-11.1-10.9-16a1.53,1.53,0,0,0-2.6,1.6Z" transform="translate(-135 -122.89)"/><path class="cls-1" d="M1161.6,300.4a32.59,32.59,0,0,1-4.6,14.3,1.5,1.5,0,0,0,2.6,1.5,34.54,34.54,0,0,0,5-15.8c.2-1.9-2.8-1.9-3,0Z" transform="translate(-135 -122.89)"/><path class="cls-1" d="M1153.1,302.9c.9,4.6,1.8,9.2,2.8,13.8.4,1.9,3.3,1.1,2.9-.8-.9-4.6-1.8-9.2-2.8-13.8-.4-1.9-3.3-1.1-2.9.8Z" transform="translate(-135 -122.89)"/><path class="cls-1" d="M1156.7,302.8a1.42,1.42,0,0,1,.6.2,2.82,2.82,0,0,1,.2,1.8,16.55,16.55,0,0,1-.6,2.1,7.16,7.16,0,0,0-.1,4.1,1.5,1.5,0,0,0,2.9-.8,13.41,13.41,0,0,1,1-7.9c-1-.1-2-.3-2.9-.4-.3,3.1-.5,6.3-.8,9.4-.2,1.9,2.8,1.9,3,0,.3-3.1.5-6.3.8-9.4.2-1.8-2.4-1.8-2.9-.4a17.23,17.23,0,0,0-1,9.5c1-.3,1.9-.5,2.9-.8-.9-3,2.6-6.7-.4-9.4a3.3,3.3,0,0,0-5.4,1.3c-.8,1.8,2.1,2.6,2.7.7Z" transform="translate(-135 -122.89)"/><path class="cls-1" d="M1313.4,280.9a34.61,34.61,0,0,1-1-11.1l-1.5,1.5c17.7-.9,35.4-2,53.1-2.4q13.35-.3,26.7,0c2,0,4,.1,5.9.1s6.1-.6,7.9.3c4,1.9,2.3,9.6,2.3,13.1a1.5,1.5,0,0,0,3,0c0-4.7,2.4-14.7-4-16-4.4-.9-9.6-.4-14.1-.5-5.6-.1-11.2-.2-16.8-.1-21.3.1-42.6,1.4-64,2.5a1.54,1.54,0,0,0-1.5,1.5,36.55,36.55,0,0,0,1.2,11.9c.3,1.9,3.2,1.1,2.8-.8Z" transform="translate(-135 -122.89)"/><path class="cls-1" d="M1324.5,250.8a116.7,116.7,0,0,1,2.5,16.6c.1,1.9,3.1,1.9,3,0a112.36,112.36,0,0,0-2.6-17.4c-.4-1.8-3.3-1-2.9.8Z" transform="translate(-135 -122.89)"/><path class="cls-1" d="M1326.5,252.7c12.1-1,24.2-2.1,36.3-1.6,11.4.5,22.9,4.2,34.3,3l-1.5-1.5a38.46,38.46,0,0,0,1.9,15.4c.6,1.8,3.5,1,2.9-.8a36.06,36.06,0,0,1-1.8-14.6,1.42,1.42,0,0,0-1.5-1.5c-11.4,1.1-22.9-2.6-34.3-3-12.1-.5-24.3.6-36.3,1.6-1.9.1-1.9,3.1,0,3Z" transform="translate(-135 -122.89)"/><path class="cls-1" d="M1224.7,563v12.5a1.5,1.5,0,0,0,3,0V563a1.5,1.5,0,0,0-3,0Z" transform="translate(-135 -122.89)"/><path class="cls-1" d="M1226.2,562h233.4a1.5,1.5,0,0,0,0-3H1226.2a1.5,1.5,0,0,0,0,3Z" transform="translate(-135 -122.89)"/><path class="cls-1" d="M1228.6,575.8h229.7a1.5,1.5,0,0,0,0-3H1228.6a1.5,1.5,0,0,0,0,3Z" transform="translate(-135 -122.89)"/><path class="cls-1" d="M1458.1,563v8.7a1.5,1.5,0,0,0,3,0V563a1.5,1.5,0,0,0-3,0Z" transform="translate(-135 -122.89)"/><path class="cls-1" d="M1247.8,529.3c2.6,10.3,5,20.7,7,31.1.4,1.9,3.3,1.1,2.9-.8-2-10.4-4.3-20.8-7-31.1a1.5,1.5,0,0,0-2.9.8Z" transform="translate(-135 -122.89)"/><path class="cls-1" d="M1299.8,528.4c-2.4,10.3-4.4,20.6-5.9,31-.3,1.9,2.6,2.7,2.9.8,1.5-10.4,3.5-20.8,5.9-31,.4-1.9-2.5-2.7-2.9-.8Z" transform="translate(-135 -122.89)"/><path class="cls-1" d="M1239.6,523.7c.2,5.2,8,4.8,11.8,5,8.6.4,17.3-.9,25.9-1.4a79.37,79.37,0,0,1,12.9,0c3.5.3,7.3,1.5,10.7.8,3.8-.8,6.2-4.4,4-7.9-1-1.6-3.6-.1-2.6,1.5,2.8,4.7-6.7,3.2-7.6,3.1-2.1-.3-4.3-.5-6.4-.6a104.55,104.55,0,0,0-14.8.4c-3.2.2-30.8,3.5-30.9-.9a1.5,1.5,0,0,0-3,0Z" transform="translate(-135 -122.89)"/><path class="cls-1" d="M1243.1,523.3c-1.8-5.6,13.7-5,16.3-5.1l13.9-.6c2.5-.1,28.5-.8,27.8,1.1s2.3,2.6,2.9.8c3-8.9-29.5-5-33.7-4.8-7.8.3-16.5-.4-24.1,1.1-4,.8-7.4,3.8-6,8.2.6,1.9,3.5,1.1,2.9-.7Z" transform="translate(-135 -122.89)"/><path class="cls-1" d="M1256.4,515a33.87,33.87,0,0,1-11.9-8.9c-1.3-1.6-10.5-14.9-5.1-15.7a1.52,1.52,0,0,0,.9-2.2c-2.9-4.2-4.1-9.6-5.6-14.4-1.7-5.2-3.3-10.4-5-15.5-.3-1.1-.8-2.1-1-3.2-.5-2.1-.8-2.1,1.7-2.3,2.7-.2,4.1,1.9,5.9,3.7a79.33,79.33,0,0,1,9.1,11c10.1,14.6,15.7,31.8,19.9,48.9a1.5,1.5,0,0,0,2.9-.8c-5.4-21.8-13.3-44.2-29.3-60.7-2.2-2.3-6.4-7.6-10.1-7-2.8.5-3.6,3.5-3.4,6,.4,5.6,3.4,11.7,5.2,17.1,2,6.2,3.3,13.4,7.1,18.8.3-.7.6-1.5.9-2.2-6.6,1-2.8,10.2-1,13.8a37.17,37.17,0,0,0,17.3,16.4c1.7.6,3.2-2,1.5-2.8Z" transform="translate(-135 -122.89)"/><path class="cls-1" d="M1259.8,487.6c-.3-12.7-.6-25.9,3.7-38a62.71,62.71,0,0,1,9-16.2c.9-1.3,1.9-3.4,3.3-4.2,1-1.6,2.5-1.8,4.4-.5q3.6-.9,3.6,1.8c1.2,2.7.8,7.3.8,10.1,0,6.7-1.6,12.9-3.2,19.3a19.36,19.36,0,0,0-.9,6.7c.2,2.6,1.6,4.6,2.3,7,2,6.8-1.5,13.8-3.9,20-2.4,6.5-4.9,13-7.3,19.6-.7,1.8,2.2,2.6,2.9.8,3.2-8.6,6.6-17.1,9.6-25.8,2.1-6.1,3.1-11.4.7-17.4-3.2-8.1,1.9-17.2,2.6-25.5.4-5.4,1.3-14.6-2.2-19.4-7.6-10.5-19.7,11.9-22.1,16.9-6.8,14-6.7,29.7-6.3,44.9.1,1.9,3.1,1.9,3-.1Z" transform="translate(-135 -122.89)"/><path class="cls-1" d="M1234.6,463c9.9,13.9,15.8,30.6,22.7,46.1.8,1.8,3.4.2,2.6-1.5-6.8-15.6-12.8-32.2-22.7-46.1-1.1-1.6-3.7-.1-2.6,1.5Z" transform="translate(-135 -122.89)"/><path class="cls-1" d="M1262.2,455.9a24.92,24.92,0,0,0,5.5,14.1c1.2,1.5,3.3-.6,2.1-2.1a22,22,0,0,1-4.6-12c-.1-1.9-3.1-1.9-3,0Z" transform="translate(-135 -122.89)"/><path class="cls-1" d="M1275.8,455.2c2.4-3.6,4.9-7.2,7.3-10.8,1.1-1.6-1.5-3.1-2.6-1.5-2.4,3.6-4.9,7.2-7.3,10.8-1,1.6,1.6,3.1,2.6,1.5Z" transform="translate(-135 -122.89)"/><path class="cls-1" d="M1305.6,453.2c-2.5,4-6.1,7.1-9.4,10.3-3.6,3.4-7.2,6.9-10.8,10.3-1.4,1.3.7,3.5,2.1,2.1,6.9-6.6,15.6-13,20.7-21.2,1-1.6-1.6-3.1-2.6-1.5Z" transform="translate(-135 -122.89)"/><path class="cls-1" d="M1304.3,457.2c.2,5.3,9,15.1,2.2,18.3a1.57,1.57,0,0,0-.3,2.4c2.3,2.8.8,7,.5,10.3-.3,3.7,0,7.4-1,11-1.8,6.9-8.2,11-13.9,14.6-1.6,1-.1,3.6,1.5,2.6,6.9-4.4,14-9.4,15.6-18,.8-4.6.8-9.4,1.2-14,.4-3.3.3-5.9-1.9-8.5l-.3,2.4c9.5-4.5-.5-14.7-.7-20.9,0-2.1-3-2.1-2.9-.2Z" transform="translate(-135 -122.89)"/><path class="cls-1" d="M1299.5,471.9a224.18,224.18,0,0,0-17.7,34.9c-.7,1.8,2.2,2.6,2.9.8a219.92,219.92,0,0,1,17.4-34.2,1.5,1.5,0,0,0-2.6-1.5Z" transform="translate(-135 -122.89)"/><path class="cls-1" d="M1253.1,549.8a26.71,26.71,0,0,0,16.1,10.5c1.9.4,2.7-2.5.8-2.9a23.22,23.22,0,0,1-14.3-9.1c-1.1-1.5-3.7,0-2.6,1.5Z" transform="translate(-135 -122.89)"/><path class="cls-1" d="M1251.4,537.5c10.3,7.9,21.2,19.2,34.4,21.9,1.9.4,2.7-2.5.8-2.9-12.8-2.6-23.6-13.9-33.7-21.6-1.5-1.2-3,1.4-1.5,2.6Z" transform="translate(-135 -122.89)"/><path class="cls-1" d="M1259.3,529.9c6.2,5.1,12.2,10.3,18.5,15.2a35.87,35.87,0,0,0,8.8,5.4c3.1,1.3,6.4,1.9,9.2,3.9,1.6,1.1,3.1-1.5,1.5-2.6a29.72,29.72,0,0,0-6.8-3.1,34.74,34.74,0,0,1-10.8-6c-6.2-4.8-12.2-9.9-18.2-14.9-1.6-1.2-3.7.9-2.2,2.1Z" transform="translate(-135 -122.89)"/><path class="cls-1" d="M1275.7,528.5a50.29,50.29,0,0,0,20.8,13c1.8.6,2.6-2.3.8-2.9a47.66,47.66,0,0,1-19.5-12.3c-1.3-1.3-3.5.8-2.1,2.2Z" transform="translate(-135 -122.89)"/><path class="cls-1" d="M1349.3,557.6c-.6-1.6-1.5-3.7-1.4-5.4.4-4.4,3.4-4.8,6.3-5.3a69.39,69.39,0,0,1,12.9-.9c7.3-.1,14.7.5,22,.8a198.57,198.57,0,0,0,21.8-.8c3-.3,8.3-1.5,11.2-.5s3.8,2.6,3.9,5.4c.1,2.2.1,4.4.2,6.7.1,1.9,3.1,1.9,3,0-.1-3.4.9-9.4-.8-12.6-1.6-2.8-5.3-2.5-8.1-2.5-11.4,0-22.5,1.7-34,1.2-10.6-.4-21.3-1.3-31.8.3-8.6,1.3-10.8,6.6-7.9,14.6.4,1.6,3.3.8,2.7-1Z" transform="translate(-135 -122.89)"/><path class="cls-1" d="M1370.5,541.5c.8-1.8,1.5-3.6,2.3-5.4a25.12,25.12,0,0,0,2.7-.4c1.2-.1,2.3,0,3.5-.1,2.6,0,5.1-.1,7.7-.1,5.5-.1,10.9-.1,16.4-.2,5.1-.1,10.3-.1,15.4-.2,1.3,0,2.6,0,3.9-.1,1.6,0,2.1-.4,2.6.8.6,1.5-.5,5.7-.7,7.3-.2,1.9,2.8,1.9,3,0,.2-2.4,1.7-7.4.5-9.6-1-1.8-2.5-1.5-4.5-1.5-9.6,0-19.3.3-28.9.4-4.5.1-9,.1-13.5.2-3.4,0-7.6-.4-10.7,1.2-3.6,1.9-5.3,6.8-1.8,9.7,1.5,1.3,3.6-.8,2.1-2Z" transform="translate(-135 -122.89)"/><path class="cls-1" d="M1391.1,529.3c-2.6-3.5,8.3-3.1,9-3.2,2.4-.2,10.6-1.7,9,3.7-.6,1.9,2.3,2.6,2.9.8a5.71,5.71,0,0,0-2-6.2c-3.3-2.7-7.4-1.4-11.3-1.2-3.1.1-6.8-.9-9.3,1.5a4.54,4.54,0,0,0-.9,6.1c1.2,1.5,3.8,0,2.6-1.5Z" transform="translate(-135 -122.89)"/><path class="cls-1" d="M1238.1,578a54.61,54.61,0,0,0,13.6,13.1c1.6,1.1,3.1-1.5,1.5-2.6a49.56,49.56,0,0,1-12.5-12.1c-1.2-1.5-3.8,0-2.6,1.6Z" transform="translate(-135 -122.89)"/><path class="cls-1" d="M1251.3,590.1h9.9c1.9,0,5,.5,6.7-.4,1.3-.7,1.7-2.3,2.3-3.5a57.68,57.68,0,0,1,5.7-9.1c1.2-1.5-.9-3.6-2.1-2.1-1.1,1.3-2.1,2.7-3.1,4.1-1.2,1.9-2,4.6-3.4,6.3-2.8,3.3-11.9,1.8-16,1.7a1.5,1.5,0,0,0,0,3Z" transform="translate(-135 -122.89)"/><path class="cls-1" d="M1262.4,577.8c.8,3,1.6,6.1,2.5,9.1a1.5,1.5,0,0,0,2.9-.8c-.8-3-1.6-6.1-2.5-9.1a1.5,1.5,0,0,0-2.9.8Z" transform="translate(-135 -122.89)"/><path class="cls-1" d="M1384.3,577.3a68.39,68.39,0,0,0,5.4,9.5c1.1,1.6,2.5,4.1,4.4,5s4.8.2,6.8,0c3.6-.4,7.2-.7,10.8-1.1,1.9-.2,1.9-3.2,0-3-2.4.2-4.8.5-7.2.7-2.1.2-5.2,1.1-7.2.7-5.2-1-8.4-9.2-10.4-13.4-.9-1.7-3.5-.2-2.6,1.6Z" transform="translate(-135 -122.89)"/><path class="cls-1" d="M1411.8,574.8a44.92,44.92,0,0,0-1.7,13.1c.1,1.9,3.1,1.9,3,0a42.34,42.34,0,0,1,1.5-12.3c.6-1.8-2.3-2.6-2.8-.8Z" transform="translate(-135 -122.89)"/><path class="cls-1" d="M1413.1,589.4c4-3.8,7.8-7.8,11.5-11.9,1.3-1.4-.8-3.6-2.1-2.1-3.7,4.1-7.5,8.1-11.5,11.9-1.4,1.3.7,3.4,2.1,2.1Z" transform="translate(-135 -122.89)"/><path class="cls-1" d="M770.9,284.4v84.5a1.5,1.5,0,0,0,3,0V284.4a1.5,1.5,0,0,0-3,0Z" transform="translate(-135 -122.89)"/><path class="cls-1" d="M773.3,371.2H880.5a1.5,1.5,0,0,0,0-3H773.3a1.5,1.5,0,1,0,0,3Z" transform="translate(-135 -122.89)"/><path class="cls-1" d="M773.3,285.9h104a1.5,1.5,0,0,0,0-3h-104a1.5,1.5,0,0,0,0,3Z" transform="translate(-135 -122.89)"/><path class="cls-1" d="M877.3,284.4v84.5a1.5,1.5,0,0,0,3,0V284.4a1.5,1.5,0,0,0-3,0Z" transform="translate(-135 -122.89)"/><path class="cls-1" d="M826.7,281.9a6.82,6.82,0,0,1,.7-3.7c.3-.7,1.5-2.5,2.2-2s1.1,2.8,1.2,3.6a13.6,13.6,0,0,1,.1,4.5c-.2,1.9,2.8,1.9,3,0a18.35,18.35,0,0,0-.9-7.7c-.6-1.6-1.4-3.5-3.3-3.7-4.1-.5-6.2,5.8-6,8.9.1,2.1,3.1,2.1,3,.1Z" transform="translate(-135 -122.89)"/><path class="cls-1" d="M776.6,294.1v67.4a1.5,1.5,0,0,0,3,0V294.1a1.5,1.5,0,0,0-3,0Z" transform="translate(-135 -122.89)"/><path class="cls-1" d="M778.1,363h94.2a1.5,1.5,0,0,0,0-3H778.1a1.5,1.5,0,0,0,0,3Z" transform="translate(-135 -122.89)"/><path class="cls-1" d="M874.7,360.7V293.3a1.5,1.5,0,0,0-3,0v67.4a1.5,1.5,0,1,0,3,0Z" transform="translate(-135 -122.89)"/><path class="cls-1" d="M778.9,296.4h91a1.5,1.5,0,0,0,0-3h-91a1.5,1.5,0,0,0,0,3Z" transform="translate(-135 -122.89)"/><path class="cls-1" d="M779.4,347.1c11.7-3.5,23.6-6.6,35.2-1.2,8.3,3.9,15.5,9.8,24.8,11.5,1.9.3,2.7-2.5.8-2.9-10.6-2-18.6-9.7-28.7-13.1-10.9-3.6-22.3-.4-32.9,2.8-1.8.6-1,3.5.8,2.9Z" transform="translate(-135 -122.89)"/><path class="cls-1" d="M818.4,345.4a102.28,102.28,0,0,1,44.2-5.3c1.9.2,1.9-2.8,0-3a104.24,104.24,0,0,0-45,5.4c-1.8.7-1,3.6.8,2.9Z" transform="translate(-135 -122.89)"/><path class="cls-1" d="M821.5,322.2a4.63,4.63,0,0,1,1.1-6,4.3,4.3,0,0,1,5.6.9,3.86,3.86,0,0,1-1.4,5.4c-2.2,1.1-4.7-1-4.7-3.2a1.5,1.5,0,0,0-3,0,6.51,6.51,0,0,0,8,6.3c3.7-1,5.7-5.7,4.1-9.1-1.6-3.6-6.4-4.9-9.8-3.1-3.7,2-4.6,6.9-2.6,10.4a1.57,1.57,0,0,0,2.7-1.6Z" transform="translate(-135 -122.89)"/><path class="cls-1" d="M1308.6,298.9c3.6,4.8,4.3,11.3,8.7,15.5,4.1,4,9,3.4,14,1.6,1.8-.6,1-3.5-.8-2.9-2.7.9-5.8,1.9-8.6.8-2.4-1-4-3.2-5.2-5.5-1.9-3.7-3-7.7-5.5-11.1-1.2-1.5-3.8,0-2.6,1.6Z" transform="translate(-135 -122.89)"/><path class="cls-1" d="M1330.9,314.8a73,73,0,0,0,12.6-14c1.1-1.6-1.5-3.1-2.6-1.5a67.05,67.05,0,0,1-12.1,13.4c-1.5,1.2.6,3.4,2.1,2.1Z" transform="translate(-135 -122.89)"/><path class="cls-1" d="M1323.6,297.8a24,24,0,0,1,1.9,10.2c-.1,1.9,2.9,1.9,3,0a27.48,27.48,0,0,0-2.3-11.7c-.7-1.8-3.3-.3-2.6,1.5Z" transform="translate(-135 -122.89)"/><path class="cls-1" d="M1243.5,689v40a1.5,1.5,0,0,0,3,0V689a1.5,1.5,0,0,0-3,0Z" transform="translate(-135 -122.89)"/><path class="cls-1" d="M1207,734.5h106a1.5,1.5,0,0,0,0-3H1207a1.5,1.5,0,0,0,0,3Z" transform="translate(-135 -122.89)"/><path class="cls-1" d="M1264.5,737v25a1.5,1.5,0,0,0,3,0V737a1.5,1.5,0,0,0-3,0Z" transform="translate(-135 -122.89)"/><path class="cls-1" d="M1206,766.5h94a1.5,1.5,0,0,0,0-3h-94a1.5,1.5,0,0,0,0,3Z" transform="translate(-135 -122.89)"/><path class="cls-1" d="M1229.5,769v19a1.5,1.5,0,0,0,3,0V769a1.5,1.5,0,0,0-3,0Z" transform="translate(-135 -122.89)"/><path class="cls-1" d="M1239.5,284.8c0-4.2-.8-9.5,0-13.6,1.1-5.8,9.2-4.7,13.9-5,1.9-.1,1.9-3.1,0-3a113,113,0,0,0-11.6.8,5.76,5.76,0,0,0-4.2,2.3c-1.2,1.8-1,4.3-1,6.4v12.1a1.45,1.45,0,1,0,2.9,0Z" transform="translate(-135 -122.89)"/><path class="cls-1" d="M1221.9,173.1a41.38,41.38,0,0,1,26.9,1.6c1.8.7,2.6-2.2.8-2.9a44.21,44.21,0,0,0-28.5-1.6c-1.9.6-1.1,3.5.8,2.9Z" transform="translate(-135 -122.89)"/><path class="cls-1" d="M1218.2,164.1a27.79,27.79,0,0,1,26.6-2.9c1.8.7,2.6-2.2.8-2.9a30.43,30.43,0,0,0-28.9,3.2c-1.6,1.1-.1,3.7,1.5,2.6Z" transform="translate(-135 -122.89)"/><path class="cls-1" d="M1185.7,216.5c-3.2,2.2-9.3,5.1-10.2,9.3-.4,2.2.6,4.2,1.4,6.2,1.4,3.5,2.8,7,4.3,10.5a423.74,423.74,0,0,0,19.5,40.1c.9,1.7,3.5.2,2.6-1.5q-8.25-15-15.3-30.6c-2.5-5.5-4.9-11.1-7.1-16.7-1.3-3.3-3.1-6.2-.7-9.6,1.4-2,5-3.7,7.1-5.1,1.5-1.1,0-3.7-1.6-2.6Z" transform="translate(-135 -122.89)"/></g><g id="hand_r" data-name="hand r"><path class="cls-2" d="M765.2,706.6c-8.2,6.1-18.1,15.9-21.7,29.9-2.6,10.4-.1,16.5-1,29.9-.6,9.3-3,22.4-10.7,38a191.87,191.87,0,0,0-81.6.9,189.46,189.46,0,0,0-49.5,19.1,28.64,28.64,0,0,0,7.8,3.5c18.7,5.1,38.4-10.6,39-9.5s-22,11.6-20.8,20.8c.8,6.2,11.9,9.5,23.4,13,9.7,2.9,18.9,5.7,31.2,4.3a63.87,63.87,0,0,0,33.8-14.8,145.88,145.88,0,0,0,21.7,8.7c17.1,5.2,40.7,12.4,56.4,2.6,10.2-6.4,13.3-21.4,19.1-51.2,7-36.3,10.3-54.5.9-69.4C800.9,712.5,775.6,707.9,765.2,706.6Z" transform="translate(-135 -122.89)"/><path class="cls-3" d="M728.6,805.5a58.06,58.06,0,0,1,29,23.6c1,1.6,3.6.1,2.6-1.5a61.62,61.62,0,0,0-30.8-25c-1.9-.7-2.6,2.2-.8,2.9Z" transform="translate(-135 -122.89)"/><path class="cls-3" d="M664.2,825.2a33.39,33.39,0,0,0-25.8,21.2c-.7,1.8,2.2,2.6,2.9.8A30.45,30.45,0,0,1,665,828.1c1.9-.3,1.1-3.2-.8-2.9Z" transform="translate(-135 -122.89)"/><path class="cls-3" d="M678.2,835.2a95.89,95.89,0,0,0-12.1,8.8c-2.5,2.2-5.3,4.8-4.7,8.4,1.5,9.5,12.9,7.4,19.1,5,1.8-.7,1-3.6-.8-2.9-2.7,1-5.7,2.3-8.6,2.2-4.7-.2-8.9-4.7-4.9-8.8,3.8-4,8.8-7.2,13.5-10.2,1.6-1,.1-3.6-1.5-2.5Z" transform="translate(-135 -122.89)"/><path class="cls-4" d="M858.5,583.5a153.22,153.22,0,0,0-18.9,7.9,123.73,123.73,0,0,0-13.1,7.4c-8.8,5.6-15.2,11.5-22.5,18.9-9.3,9.5-18.7,19-29.9,34.2-9.4,12.8-24,32.9-34.5,62.4a197.84,197.84,0,0,0-8,29,51.23,51.23,0,0,1,14.4-5.7c22.5-5.1,44.1,6.3,64.6,17,7.7,4,13.8,7.9,18,10.6,2.2-10.8,4.4-21.7,6.6-32.5,1.9-9.1,3.7-18.3,5.6-27.4a123.73,123.73,0,0,0,11.1-11c8.1-9.2,24.2-27.5,26.4-52.9C881,612.1,863.6,589.7,858.5,583.5Z" transform="translate(-135 -122.89)"/><path class="cls-3" d="M852.6,584.7c-10.7,1.6-19.9,7.3-28.2,13.9a251.71,251.71,0,0,0-27,24.6,289.35,289.35,0,0,0-42.5,56.5,1.5,1.5,0,0,0,2.6,1.5,283.26,283.26,0,0,1,40.8-54.7,306.42,306.42,0,0,1,24.3-22.7c9.1-7.5,18.8-14.5,30.8-16.3,1.9-.2,1.1-3.1-.8-2.8Z" transform="translate(-135 -122.89)"/><path class="cls-3" d="M848.4,693.9c-7.4,7.5-15,14.8-22.7,21.9-1.4,1.3.7,3.4,2.1,2.1,7.7-7.1,15.3-14.4,22.7-21.9,1.3-1.4-.8-3.5-2.1-2.1Z" transform="translate(-135 -122.89)"/><path class="cls-3" d="M838,707.6c-3.5,19.2-6.9,38.5-10.4,57.7.7-.3,1.5-.6,2.2-.9a171.16,171.16,0,0,0-52.4-24.6c-14.7-4-33.4-7.9-46,3.2-1.4,1.3.7,3.4,2.1,2.1,12.8-11.4,33.5-5.4,48-1a168.76,168.76,0,0,1,46.7,22.8,1.52,1.52,0,0,0,2.2-.9c3.5-19.2,6.9-38.5,10.4-57.7.4-1.8-2.5-2.6-2.8-.7Z" transform="translate(-135 -122.89)"/><path class="cls-3" d="M755.6,678.3c-10.4,20.3-23.4,41.2-24.3,64.7-.1,1.9,2.9,1.9,3,0,.9-22.9,13.7-43.3,23.9-63.2.8-1.7-1.8-3.2-2.6-1.5Z" transform="translate(-135 -122.89)"/><path class="cls-5" d="M844.5,640.5a458.11,458.11,0,0,0-33.3,86.6c-8.3,30.8-11.2,55.1-32.7,75.3a87.16,87.16,0,0,1-30,18.7c-34,12.3-59.2-4.3-80.6,13.3-2.4,2-9.5,7-8.7,12.7.8,5.4,8.2,8.2,9.3,8.7,8.8,3.4,17.9-.1,29.3-4.7,12.9-5.2,11.5-7,17.3-8,12.2-2.1,17.8,5.6,34,10.7,6.9,2.1,27.3,8.5,42,0,10.8-6.3,14.1-18.1,19.3-38a204.88,204.88,0,0,0,6.7-58l12,9.3Q836.9,703.8,844.5,640.5Z" transform="translate(-135 -122.89)"/><path class="cls-6" d="M838.5,683.8a268.91,268.91,0,0,0-24,62.6c-7.2,29.7-4.9,43.7-14.7,64.6-10.5,22.7-27.5,37.1-39.3,45.3,6.6,1.5,22.5,4.3,34-4.7,8.1-6.3,10.2-15.3,13.3-30,3.9-18.1,8-38.7,12-61.3l9.3,6C832.3,738.9,835.4,711.3,838.5,683.8Z" transform="translate(-135 -122.89)"/></g><g id="torso"><path class="cls-4" d="M856.4,581.5q-5.4,35.25-10.5,71-19.8,138.45-34.2,272.2a27.26,27.26,0,0,0,4,12.6,27.83,27.83,0,0,0,8.9,8.7c18.2,13,27.3,19.6,36.5,24,44.1,21.3,92.9,18.8,92.9,18.8,10.3-.5,30.8-1.8,52.8-10.6,1.2-.5,9.6-4.4,26.4-12.3,15.2-7.1,17.9-8.5,21.6-11.9,8.8-8.1,12.2-18.1,14.5-25.2a86.91,86.91,0,0,0,4.2-31s-1-24.9-1.7-170.3c-.1-29.6,2.8-73.1,18.4-126.8-16.2-7.9-31.4-15.2-49.7-24-12.6-6.1-24.3-11.7-41.1-13.7a103.57,103.57,0,0,0-15.5-.7c-26,.2-47.4,4.2-56.6,5.8C909.4,571,885.2,575.4,856.4,581.5Z" transform="translate(-135 -122.89)"/><path class="cls-3" d="M855.6,585c31-6.6,62.3-11.9,93.7-15.8,1.4-.2,2.2-2,.8-2.8-.4-.2-.8-.5-1.3-.7a1.5,1.5,0,0,0-1.5,2.6c.4.2.8.5,1.3.7.3-.9.5-1.9.8-2.8-31.7,3.9-63.3,9.2-94.5,15.9-2,.4-1.2,3.3.7,2.9Z" transform="translate(-135 -122.89)"/><path class="cls-3" d="M846.3,637.4Q829.8,755,816.3,873c-1.1,9.9-2.2,19.7-3.3,29.6-.9,8.6-3.4,18.3-2.3,26.9,1,7.6,7,12.4,12.5,17a200.69,200.69,0,0,0,18.9,14,187.44,187.44,0,0,0,200.5,2.3c1.6-1,.1-3.6-1.5-2.6-57.2,34.9-130,36.3-188.3,3.2a189.28,189.28,0,0,1-19.4-12.6c-6.3-4.7-16.5-11.1-19.1-18.8-1.2-3.7-.6-7.8-.2-11.7.5-4.9,1.1-9.9,1.6-14.8,1-9.2,2-18.4,3.1-27.6,4.3-37.5,8.7-74.9,13.5-112.3q8.1-63.75,17-127.4c.2-1.9-2.7-2.7-3-.8Z" transform="translate(-135 -122.89)"/><path class="cls-3" d="M993.6,562.1c17.6,3.5,34.1,11.6,50.5,18.5,16.1,6.8,34,12.3,48.2,22.7,1.6,1.1,3.1-1.5,1.5-2.6-13.9-10.2-31.4-15.6-47.1-22.2-17-7.1-34.1-15.6-52.3-19.3-1.9-.4-2.7,2.5-.8,2.9Z" transform="translate(-135 -122.89)"/><path class="cls-3" d="M1072,731.7c-1.6,42.1-3.2,84.2-1.7,126.2.7,20.4,3.9,41.6.1,61.9-3.2,16.7-12.6,33.4-29.3,39.6-1.8.7-1,3.6.8,2.9,26.6-9.9,33.5-40.2,33.1-65.6-.2-17.2-1.7-34.4-2.1-51.7-.4-17.6-.2-35.1.1-52.7.4-20.2,1.2-40.4,1.9-60.6.2-2-2.8-2-2.9,0Z" transform="translate(-135 -122.89)"/><path class="cls-6" d="M1057.6,708a219.64,219.64,0,0,1-26.4,57.9C973.9,854,869,871.6,842.2,875.3q54,5.7,109.2,12.3,60.9,7.2,120.2,15.1c-2.5-44.7-2.5-81.5-1.9-107.8,1.1-54.4,5-98.4-2.1-99.8C1065.9,694.7,1062.9,696.6,1057.6,708Z" transform="translate(-135 -122.89)"/><path class="cls-7" d="M1069.9,740.7a416.37,416.37,0,0,1-17.2,42.9c-11.4,24.5-22.3,48.1-36.4,62.6-39.4,40.5-116.4,23-116.6,25.8-.1,1.6,28.1,6.1,170.5,19.2Q1070.2,815.9,1069.9,740.7Z" transform="translate(-135 -122.89)"/></g><g id="table"><path class="cls-2" d="M1249.3,1153q-550.5-73.5-1101.1-146.9,162.45-94.2,325-188.4,496.65,48.9,993.4,97.9Q1357.85,1034.25,1249.3,1153Z" transform="translate(-135 -122.89)"/><path class="cls-8" d="M144.6,1014.6,1248.2,1161" transform="translate(-135 -122.89)"/><path class="cls-8" d="M1241.2,1163.2Q1356.85,1041,1472.4,918.6" transform="translate(-135 -122.89)"/><path class="cls-3" d="M1118.4,949q-56.25,43.95-110.3,90.5c-1.5,1.3.7,3.4,2.1,2.1q54.15-46.5,110.3-90.5c1.5-1.1-.6-3.3-2.1-2.1Z" transform="translate(-135 -122.89)"/><path class="cls-3" d="M1009.5,1041.1c11.8,2.5,23.8,2.5,35.9,2.6,13.6.2,26.4,1.6,39.4,5.4,24.4,7.1,48.3,11.8,73.8,11.2a1.5,1.5,0,0,0,0-3,214.69,214.69,0,0,1-39.2-2.6c-12.2-2-23.8-5.6-35.7-8.9a135.21,135.21,0,0,0-34.7-4.9c-13-.3-26,.1-38.8-2.6-1.8-.5-2.6,2.4-.7,2.8Z" transform="translate(-135 -122.89)"/><path class="cls-3" d="M1120.6,951.2a752.94,752.94,0,0,1,117.5,18.9,1.5,1.5,0,0,0,.8-2.9,749.52,749.52,0,0,0-118.3-19c-1.9-.2-1.9,2.8,0,3Z" transform="translate(-135 -122.89)"/><path class="cls-3" d="M1160.9,1058.5c27.9-27.6,54.7-56.4,80.1-86.4,1.2-1.5-.9-3.6-2.1-2.1-25.4,29.9-52.2,58.7-80.1,86.4a1.48,1.48,0,1,0,2.1,2.1Z" transform="translate(-135 -122.89)"/><path class="cls-3" d="M1044.4,1029.2a209.18,209.18,0,0,1,101.5,12.7c1.8.7,2.6-2.2.8-2.9a212.44,212.44,0,0,0-102.3-12.8c-1.9.2-1.9,3.2,0,3Z" transform="translate(-135 -122.89)"/><path class="cls-3" d="M1096.5,1018.2a404.09,404.09,0,0,1,62.8,9.8,1.5,1.5,0,0,0,.8-2.9,400.72,400.72,0,0,0-63.6-9.9c-2-.1-1.9,2.9,0,3Z" transform="translate(-135 -122.89)"/><path class="cls-3" d="M1080.6,996.1a385.84,385.84,0,0,1,94.3,13.8,1.5,1.5,0,0,0,.8-2.9,391.65,391.65,0,0,0-95.1-13.9,1.5,1.5,0,0,0,0,3Z" transform="translate(-135 -122.89)"/><path class="cls-3" d="M1120.2,986.9c17.2,2.4,34.2,5.4,51.2,9,1.9.4,2.7-2.5.8-2.9-17-3.6-34-6.6-51.2-9-1.9-.3-2.7,2.6-.8,2.9Z" transform="translate(-135 -122.89)"/><path class="cls-3" d="M1098.3,1054c-6.1,9.4-12.2,18.8-18.4,28.1a1.55,1.55,0,0,0,1.3,2.3,420.91,420.91,0,0,1,147.5,9.4,1.5,1.5,0,0,0,.8-2.9,425.51,425.51,0,0,0-148.3-9.6c.4.8.9,1.5,1.3,2.3,6.1-9.4,12.2-18.8,18.4-28.1,1.1-1.6-1.5-3.1-2.6-1.5Z" transform="translate(-135 -122.89)"/><path class="cls-3" d="M1219.2,997.2,1277,996a23.07,23.07,0,0,1-1.4-1.9q-19.95,47.55-40,95c-.7,1.8,2.2,2.6,2.9.8q19.95-47.55,40-95c.4-.9-.6-1.9-1.4-1.9l-57.8,1.2c-2,.1-2,3.1-.1,3Z" transform="translate(-135 -122.89)"/><path class="cls-3" d="M1146.1,1071.7a56.75,56.75,0,0,1,15.4-.8c1.9.1,1.9-2.9,0-3a62.79,62.79,0,0,0-16.2.9c-1.9.3-1.1,3.2.8,2.9Z" transform="translate(-135 -122.89)"/><path class="cls-3" d="M1174.5,1072a412.85,412.85,0,0,1,47,4.5c1.9.3,2.7-2.6.8-2.9a402.71,402.71,0,0,0-47.8-4.6c-1.9-.1-1.9,2.9,0,3Z" transform="translate(-135 -122.89)"/><path class="cls-3" d="M1175.4,1053.2h11.2a1.5,1.5,0,0,0,0-3h-11.2a1.5,1.5,0,0,0,0,3Z" transform="translate(-135 -122.89)"/><path class="cls-3" d="M1198.7,1052.9a266.53,266.53,0,0,1,36.7,3.5c1.9.3,2.7-2.6.8-2.9a293.81,293.81,0,0,0-37.5-3.6,1.5,1.5,0,0,0,0,3Z" transform="translate(-135 -122.89)"/><path class="cls-3" d="M1196.8,1035.8a416.84,416.84,0,0,1,41.8,2.6c1.9.2,1.9-2.8,0-3a389.2,389.2,0,0,0-41.8-2.6c-1.9-.1-1.9,2.9,0,3Z" transform="translate(-135 -122.89)"/><path class="cls-3" d="M1102.9,1069a74.56,74.56,0,0,0,19.9-2.2,1.5,1.5,0,0,0-.8-2.9,68.3,68.3,0,0,1-19.1,2.1,1.5,1.5,0,0,0,0,3Z" transform="translate(-135 -122.89)"/><path class="cls-3" d="M1150.4,912.3c-2.6,3.2-5.6,9.7-2.5,13.6,1.9,2.4,5.5,1.9,8.2,2,4.9.2,9.8.5,14.7.7,19.9.9,39.7,1.9,59.6,2.8,1.9.1,1.9-2.9,0-3l-44-2.1c-7.2-.3-14.3-.7-21.5-1-3.5-.2-7.2,0-10.7-.5-2.6-.4-4.5-.5-4.4-3.7a11.71,11.71,0,0,1,2.7-6.7c1.2-1.5-.9-3.7-2.1-2.1Z" transform="translate(-135 -122.89)"/><path class="cls-3" d="M1153.1,916.1c16.8.6,33.6,1.1,50.4,1.7,8.2.3,16.5.5,24.7.8,7.4.3,15.2.8,20.5,6.5,1.3,1.4,3.4-.7,2.1-2.1-4-4.4-9.4-6.1-15.2-6.9-8.6-1.1-17.5-.9-26.2-1.2-18.8-.6-37.6-1.3-56.3-1.9-1.9.1-1.9,3.1,0,3.1Z" transform="translate(-135 -122.89)"/><path class="cls-3" d="M1229.4,931.5a34.51,34.51,0,0,0,21.2-6.9c1.5-1.1,0-3.7-1.5-2.6a31.73,31.73,0,0,1-19.7,6.5,1.5,1.5,0,0,0,0,3Z" transform="translate(-135 -122.89)"/><path class="cls-3" d="M1231.8,916.1a11.54,11.54,0,0,0-4.7,12.8,1.51,1.51,0,0,0,2.9-.8,8.59,8.59,0,0,1,3.3-9.5c1.6-1,.1-3.6-1.5-2.5Z" transform="translate(-135 -122.89)"/></g><g id="color"><path class="cls-4" d="M502.1,556.6c-2.5-5.2-9.6-5.6-13.4-1.7-4.1,4.2-6,12.3-5.6,18,.9,11.5,12.1,16.9,15.1,27.2,1.4,4.7,8.6,6.2,11,1.4,4-7.9,9.6-14.7,14.6-21.9,4.4-6.4,11.1-16.3,8.7-24.5a9.56,9.56,0,0,0-7.9-6.9c-4.6-.5-7.8,2.3-10.5,5.7a71.12,71.12,0,0,0-7.1,11c-1.8,3.4-3.2,7.4-6.7,9.3,2.9,1.2,5.9,2.4,8.8,3.6-1.3-4.3-2.6-8.6-3.8-12.8-3.3,1.9-6.7,3.9-10,5.8a12.78,12.78,0,0,0,17.6,1.5c2.5-2,3.9-4.7,5.6-7.3a10.09,10.09,0,0,1,2.7-3.1,9,9,0,0,1,2.8-1.3c2-.1,1.9-.3-.2-.6-1-1.7-2-3.5-3-5.2v.7c1.5-1.9,2.9-3.9,4.4-5.8-.2.1-.4.1-.6.2-7.3,2.3-4.2,13.9,3.2,11.6.2-.1.4-.1.6-.2a6.21,6.21,0,0,0,4.4-5.8v-.7a6.22,6.22,0,0,0-3-5.2c-5-3.2-12.4-.1-16.5,3.2a26.86,26.86,0,0,0-5.5,6.6c-1,1.6-2.1,5-4,2.8-4-4.5-11.7.3-10,5.8,1.3,4.3,2.6,8.6,3.8,12.8a6.05,6.05,0,0,0,8.8,3.6c5.1-2.7,7.9-7.4,10.4-12.4a62.4,62.4,0,0,1,4.9-8.3c.3-.5,3-3.3,2.9-3.8-2.6-2.2-3.9-2.1-4.1.3a14.27,14.27,0,0,1-.8,2.2c-5,12.1-15,21.3-20.9,32.9,3.7.5,7.3,1,11,1.4-1.9-6.5-6.2-11.2-10.3-16.4-1.7-2.2-3.6-4.6-4.2-7.3a11,11,0,0,1,.3-5.4,19.57,19.57,0,0,1,1.2-3.4c1.7-2.4,0-3-5-1.7,3.3,7.1,13.6,1,10.3-5.9Z" transform="translate(-135 -122.89)"/><path class="cls-4" d="M508.6,589.4a198.56,198.56,0,0,0,22.9-34c3.6-6.8-6.8-12.9-10.4-6.1a171.83,171.83,0,0,1-21,31.6c-4.9,5.9,3.5,14.4,8.5,8.5Z" transform="translate(-135 -122.89)"/><path class="cls-9" d="M532.3,419.7a74.22,74.22,0,0,0,1.6,31.1c1.5,5.6,10.2,3.2,8.7-2.4a63.15,63.15,0,0,1-1.6-26.3c.8-5.7-7.9-8.1-8.7-2.4Z" transform="translate(-135 -122.89)"/><path class="cls-9" d="M535.7,424.3c11,4.7,19.8-4.5,20.2-15.3,0-1-.6-3.7-.2-4.6h-.5a3.09,3.09,0,0,1,2,1.7c1.6,2,2.4,4.6,4.1,6.6,3.5,4.1,8.3,4.7,13.4,5,2.5.1,5.5-.2,7,2.2s.7,6.2.5,8.8c-.2,3.6-.5,7.3-.8,10.9-.1.9-1,4.3.3,3-.8.9-4.1,1.1-5.2,1.4a71.68,71.68,0,0,1-20.1,1.7c-3.5-.2-8.8.2-10.8-2.9-1.8-2.9-1.9-7.3-1.4-10.6-2.7.4-5.5.7-8.2,1.1,2.4,5.3,4.7,10.6,7.1,16,1.6,3.5,7.4,2.5,8.2-1.1,2.4-10.8-.9-22.1,2.5-32.7-2.5.7-5,1.3-7.5,2,2.9,3.5,2.2,11,2.9,15.3a45,45,0,0,0,4.5,14c2.1,3.8,8.7,2.2,8.4-2.3-.8-12-1.6-24.1-2.3-36.1l-8.8,1.2a55,55,0,0,1,1.5,34.7l6.6-2.7a42.25,42.25,0,0,1-12.7-16.3c-1.9-4.1-8.6-2-8.4,2.3.2,4,.3,8,.5,12h9a61.14,61.14,0,0,1,1-14.8c.4-1.7.8-3.5,1.3-5.2.3-1.1.7-2.3,1.1-3.4q2-2.4-.6-1.8c4.8,6.8,5.4,17,4.6,24.9,2.8-.8,5.6-1.5,8.4-2.3a45.74,45.74,0,0,1-4.4-14.9,43.87,43.87,0,0,1-.2-8.1c0-.4.5-3.2.3-3.4-.7.1-1.4.1-2.1.2.4.8.8,1.5,1.2,2.3a55.7,55.7,0,0,1,4.9,30.4c2.8-.8,5.6-1.5,8.4-2.3a52.84,52.84,0,0,1-4-12.2,19.62,19.62,0,0,1-.3-5.4,15.94,15.94,0,0,1,.6-3c1.1-1.2,1.2-1.7.3-1.4-1.2-.2-2.3-.3-3.5-.5,1.6.8,2.6,8.7,2.9,10.5a47.9,47.9,0,0,1-.1,13.1H576a56.06,56.06,0,0,1-2.4-9.8c-.5-3.2-.2-6.5-1.2-9.6a35.78,35.78,0,0,1-.2,21c2.7-.4,5.5-.7,8.2-1.1a33.62,33.62,0,0,1-2.7-8.3,30.06,30.06,0,0,1-.5-4.2,10.82,10.82,0,0,1,0-1.8c.3-1.4-.4-1.5-2-.4l-2.7-2.1c5.7,9.8-5.7,20.7-15.4,19.3,1.1,1.4,2.2,2.9,3.3,4.3-.1-1.8-.7-4.4-.1-6.1l-2.1,2.7c-1.7,1.1,7.4-.2,3.6-.6-5.2-.5-6,7.5-1.2,8.8s9.2,3.9,14.3,3.3a11.65,11.65,0,0,0,9.5-7,24.51,24.51,0,0,0,1.7-13.4,23.39,23.39,0,0,0-1.9-7c-.4-1-.9-2-1.4-3a17.39,17.39,0,0,0-1.1-1.8c-.4-.9-.6-.7-.4.6,2.8.8,5.6,1.5,8.4,2.3.1-1.9.3-3.7.4-5.6l-8.8,1.2a19.66,19.66,0,0,1-.6,14.5c-2.2,5.4,6.5,7.7,8.7,2.4a27.88,27.88,0,0,0,.6-19.3,4.5,4.5,0,0,0-8.8,1.2c-.1,1.9-.3,3.7-.4,5.6-.3,4.4,6.5,6.3,8.4,2.3,2.2-4.8,1.6-11-3.5-13.7a9.3,9.3,0,0,0-12.4,4.2c-2.9,6.2,3.6,11.7,4.2,17.7.3,2.8.3,8.4-2.8,9.8s-8.7-2.2-11.5-3c-.4,2.9-.8,5.9-1.2,8.8,9.1.8,9.3-11.2,3-15.1-3.1-1.9-7.3-3.4-10.6-1.4-4.1,2.5-2.9,7.5-2.8,11.5.1,1.8,1.3,4.1,3.3,4.3,16,2.3,30.6-10.5,27.5-27.2-.6-3.3-1.9-7-5.6-7.7a7,7,0,0,0-7.5,4c-3.3,7.1.6,17.6,3.6,24.1,1.7,3.7,7.2,2.4,8.2-1.1a44.5,44.5,0,0,0,1.4-20.5c-.9-5.2-2.5-12-9-12.2-14.5-.3-8.5,23.5-6,31,1.3,3.8,7.9,4.7,8.7,0a55.76,55.76,0,0,0-.9-23c-1.2-4.5-3.6-13.3-10.1-11-5.2,1.9-6.8,9.4-6.8,14.3,0,7.2,2.6,14.3,5.6,20.6,2.1,4.5,8,1.7,8.4-2.3a64,64,0,0,0-2.2-25c-1.7-5.7-4.8-17.2-12.4-16.9-7.4.2-7.8,9.7-7.8,15.1a57.49,57.49,0,0,0,6,25c2.1,4.4,8,1.7,8.4-2.3a50.28,50.28,0,0,0-2.1-21.1c-1.6-5-4.2-12.2-10.2-12.9-6.6-.7-8.9,6.9-10.4,11.8a67.49,67.49,0,0,0-2.6,22.4c.3,5.8,9.2,5.8,9,0-.2-4-.3-8-.5-12-2.8.8-5.6,1.5-8.4,2.3a51.19,51.19,0,0,0,15.9,19.5c2.4,1.8,5.9-.2,6.6-2.7a62.14,62.14,0,0,0-1.5-39.5c-1.7-4.4-9.2-4.2-8.8,1.2.8,12,1.6,24.1,2.3,36.1,2.8-.8,5.6-1.5,8.4-2.3-5.2-9.7-1.7-22.6-8.8-31.2-2.3-2.8-6.6-1-7.5,2-3.5,10.7-.1,21.9-2.5,32.7,2.7-.4,5.5-.7,8.2-1.1-2.4-5.3-4.7-10.6-7.1-16-1.5-3.4-7.6-2.6-8.2,1.1-1.1,7-.6,16.8,5.5,21.6,2.8,2.2,6.5,2.4,10,2.8a85.16,85.16,0,0,0,14.3.4,89.21,89.21,0,0,0,13.6-2c3-.7,7-1.2,9.1-3.6,2.7-2.9,2.2-7.6,2.5-11.3.3-4.4.8-8.7.9-13.1.1-7.2-2.8-13.5-10.2-15.3-3-.7-6.1-.3-9.2-.8-4.8-.7-5.3-4.8-7.9-8.2-3.3-4.4-10.4-7.2-14.9-2.9-2.9,2.8-2.3,6.4-2.2,10,.1,3.2-1.5,11.3-6.6,9.1-6.1-1.4-10.7,6.4-5.4,8.6Z" transform="translate(-135 -122.89)"/><path class="cls-9" d="M270.7,474.1A152.81,152.81,0,0,1,290,495c3.8,5,7.7,15,14.5,16.4,4,.8,7.2-1.3,10.2-3.7,4.1-3.3,8.1-6.7,12.2-10.1l12.2-10.1c2.9-2.4,6.2-4.6,6.4-8.7.2-3.9-2.3-6.8-4.6-9.7-3.2-4.1-6.5-8.2-9.7-12.3s-6.5-8.2-9.7-12.3c-2.4-3-4.6-7-8.6-7.9-3.6-.8-6.9,1.3-9.9,2.9a123.09,123.09,0,0,0-11.6,7,132.31,132.31,0,0,0-20.3,17.1c-1.9,2-1.7,5.7.9,7.1a90.25,90.25,0,0,1,25.5,18.8c1.1,1.2,2.2,2.4,3.3,3.7.7.8,1.4,1.7,2.1,2.5.9,2.4,2.2,2.3,3.8-.5.4,2.7.7,5.5,1.1,8.2a127.3,127.3,0,0,0,28.1-23.1c3.4-3.8-.9-9.6-5.5-7.1a125.49,125.49,0,0,1-21.7,9.3l5.1,6.6a74.29,74.29,0,0,1,15.5-17.6c-2.4-1.8-4.7-3.6-7.1-5.5a87.44,87.44,0,0,1-20.3,21.3l6.6,5.1a43.52,43.52,0,0,1,15.8-23.6l-6.2-6.2a60.85,60.85,0,0,1-18.9,22.3h4.5c.3.3.5.7.8,1,.2-.8.4-1.6.6-2.3.3-1,.6-2,1-3.1a53,53,0,0,1,3.4-7.7,54.78,54.78,0,0,1,9.3-12.6c-2.4-1.8-4.7-3.6-7.1-5.5a88.84,88.84,0,0,1-21.8,28.4c2.6,1.1,5.1,2.1,7.7,3.2a51,51,0,0,1,14.5-31.1c-2.4-1.8-4.7-3.6-7.1-5.5a45.06,45.06,0,0,1-17.9,18.8c2.3,1.3,4.5,2.6,6.8,3.9a20.32,20.32,0,0,1,2.1-10.3,17,17,0,0,1,2.6-3.8c1.6-1.9,4.6-2.4,1.8-4.2-1.3-1.6-2-1.5-2.1.5-.5,1-.9,2-1.4,3-.8,1.5-1.6,2.9-2.4,4.3s-1.8,2.8-2.8,4.1c-.8,1-1.5,2-2.4,3-1.4.8-1.5,1.4-.3,1.7l2.1,2.7c-1-3.2,2.3-9.2,3.8-11.9.9-1.5,6.1-10.1,8.4-9.6,1.1.2,2.6,5.8,3,6.8a53.05,53.05,0,0,1,2,6.8,34,34,0,0,1,1.1,7c0,2.7,0,2.8-2.2.9-6.3-5.4-7-19.1,2.3-22.2,4.7-1.6,6.1,4.4,7.2,7.8,1.6,4.9,3.1,9.9,4.7,14.9,2.5-1.5,5-2.9,7.5-4.4a29,29,0,0,1-8.8-20.4c-1.9,1.4-3.8,2.9-5.7,4.3,10.5,4,12.2,17.2,13.6,26.8.8,5.7,9.5,3.3,8.7-2.4-2-13.6-5.7-27.8-19.9-33.1-2.7-1-5.8,1.6-5.7,4.3a38.32,38.32,0,0,0,11.4,26.7c3.1,3.1,8.9,0,7.5-4.4-1.8-5.7-3.4-11.4-5.4-17-1.4-4-3.2-8.2-6.9-10.6-8-5.3-17.4.7-21.5,8a23,23,0,0,0,2.9,26.3c5.3,5.9,15.6,9.1,18.5-.8,2.6-8.8-1.9-21.8-6.3-29.4-6-10.2-15.9-2.5-21,4.1a42.44,42.44,0,0,0-6.3,11.4c-1.4,3.8-3.7,10-.9,13.7,6.6,8.6,16.1-6,19-10.8,2.5-4,6.1-9.5,5.5-14.5-.6-4.7-5-6.9-9.2-5.1-9.2,4-13.9,16.3-13.5,25.6a4.57,4.57,0,0,0,6.8,3.9,54.49,54.49,0,0,0,21.1-22c2.3-4.4-3.4-9.2-7.1-5.5A60.67,60.67,0,0,0,288.6,486c-.4,4.2,5,5.5,7.7,3.2A95,95,0,0,0,319.5,459c2.1-4.4-3.3-9.3-7.1-5.5a66,66,0,0,0-13.6,20.6c-2.1,5.1-6.5,14.8.3,18.3a4.52,4.52,0,0,0,4.5,0,69.92,69.92,0,0,0,22.2-25.5c1.8-3.6-2.2-9.1-6.2-6.2a53.47,53.47,0,0,0-19.9,29c-1,3.5,3.3,7.5,6.6,5.1a98.17,98.17,0,0,0,23.6-24.5c3-4.5-3.4-8.5-7.1-5.5a78.46,78.46,0,0,0-16.9,19.4c-2.1,3.3,1.4,7.8,5.1,6.6a129.22,129.22,0,0,0,23.9-10.2c-1.8-2.4-3.6-4.7-5.5-7.1a116.58,116.58,0,0,1-26.3,21.7c-3.6,2.2-2.4,6.8,1.1,8.2,4.2,1.7,8.7-1.7,8.9-6,.3-5.2-5.1-10.1-8.3-13.5a98.5,98.5,0,0,0-28.4-21.3c.3,2.4.6,4.7.9,7.1a133.67,133.67,0,0,1,15-13.2c4.8-3.6,10.8-8.4,16.5-10.3,1.7-.6,1.6-.9,3,.5a38.23,38.23,0,0,1,3.6,4.6l6.7,8.5c2.4,3.1,4.9,6.2,7.3,9.3,1.3,1.7,6.6,6.8,6.2,8.7-.4,2.2-5.9,5.4-7.7,6.9l-8.4,6.9-8.4,6.9c-1.2,1-3.8,3.9-5.9,2.8-.8-.4-2.2-3.4-2.7-4.1a162.46,162.46,0,0,0-25.7-29.8c-4-3.5-10.4,2.8-6.1,6.7Z" transform="translate(-135 -122.89)"/><path class="cls-9" d="M275.5,466.1c3.6,7,26.2,46,35.8,32.7,3.4-4.7-4.4-9.2-7.8-4.5-.2.2-.3.5-.5.7,1.3-.7,2.6-1.5,3.9-2.2-1.7.2-5.8-5.5-6.9-6.8-2.2-2.5-4.4-5-6.4-7.7a125,125,0,0,1-10.3-16.7c-2.6-5.2-10.4-.6-7.8,4.5Z" transform="translate(-135 -122.89)"/><path class="cls-4" d="M454.4,342.6c-10.7-7.8-14.8-23.8-8.1-35.5,3.3-5.8,9.3-10.5,16.3-9.7,7.2.8,10.7,6,11.2,12.8a110.33,110.33,0,0,1-.2,11.5c-.2,3.6.2,7.8-.8,11.3s-4.6,5.4-6,8.9c-1.2,3,.1,5.6-3.4,6.6-1,.3-2.4.2-3.3.5-1.6-.2-1.6.1,0,.8-.4-1.3-.7-2.5-1.1-3.8-1.3-4.4-2.6-8.9-3.9-13.3-2.2-7.4-6.8-18.3-1-25.2l-7.3.9c3.5,2.6,2.2,13.2,2.4,16.8l.9,22.5c.3,7.9,11.2,7.6,12,0,.8-7.9-.3-15.7-.6-23.7a50.71,50.71,0,0,1,.3-10.3,26.78,26.78,0,0,1,1.1-4.9,17.88,17.88,0,0,1,1.3-3.2c1.1-1.7,1.1-1.9.1-.6l-4.6.6c-.3-.1,1.1,3.6,1.3,4.4a36.91,36.91,0,0,1,.8,4.6,89.75,89.75,0,0,1,.2,12.7c-.1,1.9-.3,3.8-.6,5.8l-.6,3.6c-1,2.4.7,3,5.1,1.5.4-.8-.7-4-.8-4.9a45.63,45.63,0,0,1-.2-6.4,54.13,54.13,0,0,1,1.6-12c.3-1.2.6-2.3,1-3.5,1.5-2.6-.1-3.5-4.8-2.6-.4.7,1.2,4.5,1.4,5.2a42.27,42.27,0,0,1,.7,12.8c-.2,2-.4,8.5-2.7,9-7.5,1.8-4.3,13.4,3.2,11.6,7.9-1.9,10.1-9.9,11.1-17,1.1-8.4.7-17.9-2.5-25.8-3.1-7.6-12.2-7.7-16.2-.7s-4.9,16.9-4.8,24.8c.1,6.4.2,17.4,7.9,19.7,8.5,2.5,11.5-6.7,12.4-13.1a83.2,83.2,0,0,0,.1-25.4c-1-6.2-5-18.1-13.5-15.8-8.2,2.1-9.8,16.4-10.2,23.2-.5,10.2,1.7,20.3.7,30.5h12c-.4-10.1-.8-20.2-1.3-30.3-.3-7.7-1.5-14.5-8-19.3-1.9-1.5-5.7-.9-7.3.9-6.6,7.8-7.1,17.4-4.8,27,1.2,5.2,2.9,10.4,4.4,15.5,1.4,4.8,2.2,10.6,4.8,14.8,4.1,6.8,15.5,5.2,21.4,1.7a12.76,12.76,0,0,0,6-8.3c.5-2.2.3-3.1,1.7-4.9,1.6-2,3.2-3.6,4.2-6,1.7-3.8,1.8-8,2-12,.2-5,.7-10.1.6-15.2-.2-8.9-3.1-17.3-10.8-22.4-14.8-9.8-33.4-.7-40.4,14.1-8.2,17.5-1.6,38.2,13.7,49.4,6.1,4.7,12.1-5.7,5.9-10.2Z" transform="translate(-135 -122.89)"/><path class="cls-4" d="M453.8,369.1a7.8,7.8,0,0,0,9.2,3.3,11.19,11.19,0,0,0,4.2-2.5,9.43,9.43,0,0,0,1-1c.3-.3.2-.3-.2.1,1.9-1,.4-1.3-4.4-1.1,2.4,2,6.2,2.5,8.5,0,2.1-2.2,2.5-6.3,0-8.5a8.27,8.27,0,0,0-10-.9,10.27,10.27,0,0,0-3,2.5c-.7.9.9-.6-.2.2a1.42,1.42,0,0,1,.6-.2q-3.15.75,4.5,2.1c-1.7-2.7-5.4-4-8.2-2.2-2.5,1.7-3.8,5.4-2,8.2Z" transform="translate(-135 -122.89)"/><path class="cls-4" d="M456.6,377v.9a6,6,0,0,0,1.8,4.2,6.44,6.44,0,0,0,4.2,1.8,5.81,5.81,0,0,0,4.2-1.8,6.17,6.17,0,0,0,1.8-4.2V377a6,6,0,0,0-1.8-4.2,6.44,6.44,0,0,0-4.2-1.8,6.15,6.15,0,0,0-6,6Z" transform="translate(-135 -122.89)"/><path class="cls-4" d="M397.2,266.4q39.45-46.95,75.7-96.6c-2.3.9-4.5,1.8-6.8,2.8a13.21,13.21,0,0,1,5.7,3.6c-.3-2.4-.6-4.8-.9-7.3q-34.65,49.5-69.2,98.9c2.7-.7,5.5-1.4,8.2-2.2-2-1.2-4-2.4-6-3.7.7,2.7,1.4,5.5,2.2,8.2a410.47,410.47,0,0,0,28.8-42.8c3.9-6.7-6.5-12.7-10.4-6.1A421.32,421.32,0,0,1,395.7,264c-2,2.6-.3,6.7,2.2,8.2,2,1.2,4,2.4,6,3.7,2.9,1.8,6.4.5,8.2-2.2q34.65-49.5,69.2-98.9c1.5-2.2.8-5.5-.9-7.3a25.6,25.6,0,0,0-11-6.7c-2.7-.9-5.2.6-6.8,2.8q-35.25,48.3-73.8,94.1c-5,6.1,3.5,14.7,8.4,8.7Z" transform="translate(-135 -122.89)"/><path class="cls-4" d="M329.9,606.4v-.9c0-7.7-12-7.7-12,0v.9c0,7.8,12,7.8,12,0v-.9c0-7.7-12-7.7-12,0v.9c0,7.8,12,7.8,12,0Z" transform="translate(-135 -122.89)"/><path class="cls-4" d="M234.1,522.7c7.7,0,7.7-12,0-12s-7.7,12,0,12Z" transform="translate(-135 -122.89)"/><path class="cls-9" d="M261.2,528c5.8,0,5.8-9,0-9s-5.8,9,0,9Z" transform="translate(-135 -122.89)"/><path class="cls-9" d="M628.7,299.4c5.8,0,5.8-9,0-9s-5.8,9,0,9Z" transform="translate(-135 -122.89)"/><path class="cls-9" d="M685.1,435.4v1.7a4.63,4.63,0,0,0,1.3,3.2,4.38,4.38,0,0,0,3.2,1.3,4.63,4.63,0,0,0,3.2-1.3,4.82,4.82,0,0,0,1.3-3.2v-1.7a4.63,4.63,0,0,0-1.3-3.2,4.38,4.38,0,0,0-3.2-1.3,4.63,4.63,0,0,0-3.2,1.3,4.82,4.82,0,0,0-1.3,3.2Z" transform="translate(-135 -122.89)"/></g><g id="doodles"><path class="cls-3" d="M648.8,364c17,2.7,40.8,10.6,34.5,32.8-2.9,10.2-10.9,17.5-18.8,24-7.8,6.3-15.5,12.5-22.6,19.6a187.32,187.32,0,0,0-18.7,22c-4.5,6.2-10.7,13.9-10,22.2.6,7.4,7.1,9.2,13,11.5,8.5,3.3,17.5,9.1,20.8,18,4.4,12-4.8,22.6-13.5,29.7-7.8,6.4-16.3,11.9-21.6,20.7a1.5,1.5,0,0,0,2.6,1.5c9.5-16,33.7-22.4,36.4-42.6,1.1-7.9-2.5-15.3-8.2-20.6a45.7,45.7,0,0,0-9.5-6.8c-4.1-2.2-8.9-3.1-12.9-5.4-11.2-6.5,2.8-23.1,7.6-29.4A177.27,177.27,0,0,1,651,436.1c13.6-12.4,34.9-23.4,36.4-44.1,1.5-21-21-28.1-37.6-30.7-2.1-.5-2.9,2.4-1,2.7Z" transform="translate(-135 -122.89)"/><path class="cls-3" d="M353.4,360.8A378.1,378.1,0,0,1,293.3,420c-21.8,17.1-45.5,30.7-69.6,44.2-22.2,12.5-44.6,25.3-63.6,42.6-8.5,7.7-17.9,16.7-22.7,27.4-3.7,8.3-4,19.1,5.5,23.4,5.2,2.3,11.3,1.5,16.7.6,8.8-1.5,17.5-3.4,26.2-5.1,8.9-1.7,17.8-3.5,26.7-5.2,8.5-1.6,24.4-3.1,24.8,9.6.1,1.9,3.1,1.9,3,0-.4-11.8-13-14.8-22.7-13.6-14.8,1.9-29.4,5.6-44.1,8.4-10.3,2-37.8,10.3-35.8-9.4,1.3-12.7,13.3-23.7,22-32,18.4-17.4,40.5-30.3,62.5-42.7,23.1-13,46.1-25.8,67.3-41.8a384.64,384.64,0,0,0,65.8-63.6c1.4-1.4-.7-3.5-1.9-2Z" transform="translate(-135 -122.89)"/><path class="cls-3" d="M194.3,566.2c-8.8,10.6-19.1,23.1-17.5,37.8,1.2,11.3,9.3,21.9,21.5,21.1,7.8-.5,14.7-4.8,21.5-8.1A179,179,0,0,1,246,606.5a106.84,106.84,0,0,1,27.5-4.5c7.4-.1,15.8.4,22,5,9.4,6.8,3.6,17-1.4,24.6a182.31,182.31,0,0,0-13,22.7,178.08,178.08,0,0,0-8.8,22.3c-1.8,5.7-3.9,12.4.5,17.4,9.4,10.9,23.7,1.6,31.6-5.8,12.1-11.3,25.2-20.7,40.3-27.7a148,148,0,0,1,53.8-13.4,133,133,0,0,1,28.2,1.3c8.3,1.3,17.6,3.9,21.5,12.2.8,1.7,3.4.2,2.6-1.5-5.4-11.7-20.2-13.5-31.6-14.6a146,146,0,0,0-44.7,2.9,150,150,0,0,0-41.9,16,148.15,148.15,0,0,0-18.2,12.2c-6.5,5.1-12,11.4-18.6,16.1-5.9,4.2-18.5,7.3-22-1.9-1.7-4.5.5-9.7,1.9-14.1q2.25-6.9,5.1-13.5a170.76,170.76,0,0,1,11.6-22.5c3.9-6.3,9.7-12.7,11.1-20.2,2.3-12.2-9.7-18.5-20-20-15.3-2.1-31.5,1.4-45.9,6.6-8.8,3.2-17.1,7.3-25.5,11.4-8.7,4.3-19.5,7.6-26.9-.9-13.8-15.8.7-35.7,11.2-48.4,1.3-1.4-.8-3.5-2.1-2Z" transform="translate(-135 -122.89)"/><path class="cls-3" d="M251.8,616.8c9.4-3,17.7,6.2,17.9,15.1.2,9.4-6,17.5-12.2,23.9-1.4,1.4.8,3.5,2.1,2.1,7.6-7.8,15.5-18.9,12.5-30.5-2.4-9.1-11.6-16.5-21.1-13.5-1.8.6-1.1,3.5.8,2.9Z" transform="translate(-135 -122.89)"/><path class="cls-3" d="M601.1,358.8c4.6,3.8,10,4.6,15.7,5.8,6.2,1.3,11.6,3.7,15.9,8.5,8.1,9.1,10.6,22.8,4.6,33.6a1.5,1.5,0,0,0,2.6,1.5c5.8-10.4,4.6-23.2-1.8-33a30.43,30.43,0,0,0-12.3-11c-7.2-3.4-16.2-2.3-22.6-7.5-1.5-1.2-3.6.9-2.1,2.1Z" transform="translate(-135 -122.89)"/><path class="cls-3" d="M234.4,571.8c5.7,15.3,23.8,11.4,34.9,5.4a88.2,88.2,0,0,0,19.5-14.3c6.2-6.1,11.2-13.3,17.3-19.5,6.7-6.8,16.1-13,26.2-11.3,9.1,1.5,14.6,9.6,20.4,15.8,7.6,8,22.9,16.2,30.6,3.5a1.5,1.5,0,0,0-2.6-1.5c-4.9,8-15.3,5.2-21.3.4-5.4-4.4-9.3-10.4-14.6-14.9-10-8.6-22.5-7.8-33.1-.6-11.7,7.9-18.8,21-29.5,30.1-6.3,5.3-13.6,10.2-21.4,13.1-8.3,3.1-19.9,2.9-23.5-6.9-.7-1.9-3.6-1.1-2.9.7Z" transform="translate(-135 -122.89)"/><path class="cls-3" d="M259.4,478.6a146.43,146.43,0,0,1,31.8,39.1c.9,1.7,3.5.2,2.6-1.5a145.6,145.6,0,0,0-32.3-39.7c-1.4-1.3-3.6.9-2.1,2.1Z" transform="translate(-135 -122.89)"/><path class="cls-3" d="M262,475.4c10.8-14.3,26.1-28.9,43.1-35.4,2.7-1,5.8-1.9,8.7-1.2,3.6.8,5.7,3.9,7.8,6.7,3,3.9,5.9,7.9,8.8,11.9,5.7,8,11.1,16.3,16.2,24.7,1,1.6,3.6.1,2.6-1.5-6.4-10.5-13.3-20.8-20.6-30.7-5.5-7.5-10.5-16.3-21.2-13.8-9.3,2.2-18.2,9-25.5,14.7a130.07,130.07,0,0,0-22.6,23.1c-1,1.5,1.6,3,2.7,1.5Z" transform="translate(-135 -122.89)"/><path class="cls-3" d="M293,519a155.8,155.8,0,0,0,53.7-37.4c1.3-1.4-.8-3.5-2.1-2.1a150.93,150.93,0,0,1-52.4,36.6c-1.8.8-1,3.7.8,2.9Z" transform="translate(-135 -122.89)"/><path class="cls-3" d="M273.6,477.4a152.31,152.31,0,0,1,38.1-25.3c1.7-.8.2-3.4-1.5-2.6a154.72,154.72,0,0,0-38.7,25.8c-1.5,1.2.7,3.4,2.1,2.1Z" transform="translate(-135 -122.89)"/><path class="cls-3" d="M281.9,482.4c6.2-4.5,12.4-8.9,18.6-13.4,1.6-1.1.1-3.7-1.5-2.6-6.2,4.5-12.4,8.9-18.6,13.4-1.6,1.2-.1,3.8,1.5,2.6Z" transform="translate(-135 -122.89)"/><path class="cls-3" d="M286.1,489.3c10.4-7.3,20.8-14.7,31.2-22,1.6-1.1.1-3.7-1.5-2.6-10.4,7.3-20.8,14.7-31.2,22-1.6,1.1-.1,3.7,1.5,2.6Z" transform="translate(-135 -122.89)"/><path class="cls-3" d="M294.9,497.5A186,186,0,0,1,315,483.4c1.7-1,.1-3.6-1.5-2.6a166.83,166.83,0,0,0-20.7,14.5c-1.5,1.3.6,3.4,2.1,2.2Z" transform="translate(-135 -122.89)"/><path class="cls-3" d="M299.5,505.7A154.42,154.42,0,0,1,330,486.3c1.7-.8.2-3.4-1.5-2.6a158.11,158.11,0,0,0-31.1,19.9c-1.5,1.2.6,3.3,2.1,2.1Z" transform="translate(-135 -122.89)"/><path class="cls-3" d="M505.1,568.5c4.9-6.2-.9-13.8-7.4-15.6a18.44,18.44,0,0,0-20.6,8.5c-4.4,7.8-2.6,18,3.1,24.6,7.3,8.6,26.3,13.8,22.9,28a1.5,1.5,0,0,0,2.9.8c3.9-16.2-15.6-21.2-23.7-30.9-5.7-6.9-6.7-18.5.5-24.8a15.89,15.89,0,0,1,10.8-3.8c4.5.2,14.2,5.1,9.5,11.2-1.3,1.4.8,3.5,2,2Z" transform="translate(-135 -122.89)"/><path class="cls-3" d="M506.7,567.9A23.36,23.36,0,0,1,514,554a23.71,23.71,0,0,1,6.5-4.3,24.3,24.3,0,0,1,3.8-1.3c2.8-.6,3.4-.6,5.7,1.4s2.4,2.7,2.3,5.6a31.63,31.63,0,0,1-.3,3.2,29.35,29.35,0,0,1-1.6,5.8,55.46,55.46,0,0,1-6.2,11.5c-8.6,12.8-20.9,24.5-21.6,40.8-.1,1.9,2.9,1.9,3,0,.9-21.9,23.6-34.5,28.8-54.9,1-3.9,1.8-8.9.1-12.7-2.1-4.4-6.7-4.6-10.9-3.6-10.2,2.4-18,11.3-19.6,21.6-.5,1.9,2.4,2.8,2.7.8Z" transform="translate(-135 -122.89)"/><path class="cls-3" d="M523.7,416.9c-1.8,9.7-2.2,19.9,0,29.6,2.1,9.3,8.8,7.3,16.5,7.8,17.5,1.2,40.7,12.3,52.2-7.5a1.5,1.5,0,0,0-2.6-1.5c-9.8,16.9-30.4,8.6-45.4,6.5a59.18,59.18,0,0,0-10.3-.4c-5.4,0-7-2.6-7.8-7.4a72.13,72.13,0,0,1,.4-26.2c.2-2-2.7-2.8-3-.9Z" transform="translate(-135 -122.89)"/><path class="cls-3" d="M524.1,421.7c5.4-3.3,10.1-3.9,16.2-4.9,2.6-.4,4.3-1.4,4.7-4.1,1.1-6.8-1.8-13.8,3.6-19.6,6-6.5,14.1-.7,16.6,5.9,1.2,3.1,1.9,6.7,4.3,9.2,3.1,3.3,7.2,2.4,11.1,3.5,15.1,4.1,10.6,23.6,7.4,34.1-.6,1.8,2.3,2.6,2.9.8,3.4-10.9,6.8-24.5-2.3-33.6a16,16,0,0,0-5.1-3.5c-2.9-1.2-6.1-.6-9.1-1.7-5.8-2.1-5.7-10.7-9.2-15.1-6.3-7.8-17.1-6.7-21.4,2.4a21.15,21.15,0,0,0-1.8,7.8c-.2,3.2,1.3,9.6-2.1,10.9-2.4,1-6.1.6-8.7,1.4a37.18,37.18,0,0,0-8.6,3.9c-1.6,1.1-.1,3.7,1.5,2.6Z" transform="translate(-135 -122.89)"/><path class="cls-3" d="M536,418.6a60.29,60.29,0,0,0,5.7,34.2c.8,1.7,3.4.2,2.6-1.5a56.72,56.72,0,0,1-5.3-32.7c.3-1.9-2.7-1.9-3,0Z" transform="translate(-135 -122.89)"/><path class="cls-3" d="M439.8,352.1c-12.9-6-20.6-19.9-19.9-34.1.8-14.5,10.6-27.7,23.1-34.6,7.8-4.3,16.1-5.6,24-1,7.2,4.1,12.3,11.2,15.2,18.8a46.32,46.32,0,0,1-4.9,41.8c-1.1,1.6,1.5,3.1,2.6,1.5,13.6-20.3,10.5-55.6-14.4-66.1-12.5-5.3-25.8,1.8-34.8,10.6-8.8,8.6-14.5,20.9-13.8,33.3.8,13.7,8.8,26.6,21.3,32.5,1.8.7,3.3-1.9,1.6-2.7Z" transform="translate(-135 -122.89)"/><path class="cls-3" d="M438.4,355.7a6,6,0,0,0,1.3,9.2c5.2,3.4,14.2.3,19.7-1,5.9-1.4,14.8-2.7,18.8-7.9,2.4-3.2,2.4-7.6-.7-10.3-1.5-1.2-3.6.9-2.1,2.1,4.6,3.9-1.4,8.4-5,9.8-3,1.1-6.1,2-9.2,2.8-2.9.7-5.8,1.4-8.7,1.9a54.34,54.34,0,0,1-5.6.9c-2.6.1-10.1-1.3-6.3-5.3,1.3-1.5-.8-3.6-2.2-2.2Z" transform="translate(-135 -122.89)"/><path class="cls-3" d="M444.2,366.4c.4,5.9,5.4,9.7,11.2,10.1,8,.5,14-6.2,18.7-11.7,1.2-1.5-.9-3.6-2.1-2.1-3.3,3.9-7,8.4-11.9,10.1s-12.4-.2-12.8-6.4c-.2-1.9-3.2-1.9-3.1,0Z" transform="translate(-135 -122.89)"/><path class="cls-3" d="M452.3,377.6a7.61,7.61,0,0,0,6,9.1c4.4.7,8.2-3.2,8.3-7.4a1.5,1.5,0,0,0-3,0c0,2.5-2.4,5-5.1,4.4a4.58,4.58,0,0,1-3.3-5.3c.4-1.9-2.5-2.7-2.9-.8Z" transform="translate(-135 -122.89)"/><path class="cls-3" d="M431.8,314.3a51.69,51.69,0,0,1,19.4,22.5c.8,1.8,3.4.2,2.6-1.5a53.94,53.94,0,0,0-20.5-23.6,1.5,1.5,0,0,0-1.5,2.6Z" transform="translate(-135 -122.89)"/><path class="cls-3" d="M447.2,307c1.9,14.4,3.9,28.8,5.8,43.1.3,1.9,3.1,1.1,2.9-.8-1.9-14.4-3.9-28.8-5.8-43.1-.3-1.9-3.1-1.1-2.9.8Z" transform="translate(-135 -122.89)"/><path class="cls-3" d="M452.4,331.5a35.61,35.61,0,0,1,17.1-21.8c1.7-.9.2-3.5-1.5-2.6a38.78,38.78,0,0,0-18.5,23.6,1.5,1.5,0,0,0,2.9.8Z" transform="translate(-135 -122.89)"/><path class="cls-3" d="M343.4,588.6c4,8.7,8.3,17.3,13.1,25.6,2.4,4.1,5.6,11.9,11.5,9.4,1.8-.8.2-3.3-1.5-2.6-3.8,1.6-10.6-13.9-11.9-16.4-3.1-5.7-5.9-11.6-8.6-17.5-.8-1.8-3.4-.3-2.6,1.5Z" transform="translate(-135 -122.89)"/><path class="cls-3" d="M346.1,590.4c8.5-6.6,16.8-13.4,25.4-19.8,7.5-5.7,15.6-11.2,24.8-13.8,9.9-2.9,18.5-.6,25.1,7.4,5.6,6.8,9,15.2,12.8,23,.8,1.7,3.4.2,2.6-1.5-7.3-15-15.9-36.2-36.4-32.9-10.2,1.6-19.4,7.2-27.7,13.2-9.8,7.2-19.2,14.9-28.8,22.4-1.4,1.1.7,3.2,2.2,2Z" transform="translate(-135 -122.89)"/><path class="cls-3" d="M363.9,623.9a161.49,161.49,0,0,0,70.6-35.3c1.5-1.3-.7-3.4-2.1-2.1a159.3,159.3,0,0,1-69.3,34.6c-1.9.4-1.1,3.3.8,2.8Z" transform="translate(-135 -122.89)"/><path class="cls-3" d="M388.2,595.7c-5.3-1.3-9.7-6.5-8.4-12.2,1.2-5.5,7.9-9.5,13.2-6.9,10.7,5.4,3.4,20.8-7.6,16.9-1.8-.6-2.6,2.3-.8,2.9,6.2,2.2,13.7-.8,16.1-7.1s-1.5-13.7-7.6-15.9c-6.6-2.4-14.1,2.1-16,8.7-2.2,7.4,3.2,14.7,10.3,16.5a1.5,1.5,0,0,0,.8-2.9Z" transform="translate(-135 -122.89)"/><path class="cls-3" d="M441.5,519.8c-1.2-10.7-1.3-22.9,11.4-25.8,6.4-1.5,11.7-3.4,15.4-9.3s3.3-11.6,1.8-18.2c-1.1-5.2-1-9.7,3.2-13.6a12.41,12.41,0,0,1,12.3-2.9c1.8.6,2.6-2.3.8-2.9a15.79,15.79,0,0,0-17.2,5.8c-6.3,8.3,1.1,16.7-1.4,25.6a17.32,17.32,0,0,1-10.9,11.6c-4.3,1.4-8.9,1.3-12.5,4.3-7.6,6.2-6.9,16.7-5.9,25.4.2,1.9,3.2,1.9,3,0Z" transform="translate(-135 -122.89)"/><path class="cls-3" d="M417.1,463.8c-3.1-2.5-.6-8.1,3.4-6a3.29,3.29,0,0,1,1.7,4.4,3.81,3.81,0,0,1-4.9,1.7c-1.7-.9-3.2,1.7-1.5,2.6a7,7,0,0,0,8.8-2.4,6.15,6.15,0,0,0-2.2-8.6,6.26,6.26,0,0,0-8.7,1.7A6.87,6.87,0,0,0,415,466c1.5,1.1,3.6-1,2.1-2.2Z" transform="translate(-135 -122.89)"/><path class="cls-3" d="M553.9,308.8c-1.8-2.9-2.9-6.6-1.8-9.9a6.22,6.22,0,0,1,6.6-4.2c3.2.3,4.9,3.3,3.2,6.1a7.52,7.52,0,0,1-7.5,3.5c-1.9-.2-1.9,2.8,0,3a10.42,10.42,0,0,0,10.6-6.2,6.71,6.71,0,0,0-4.2-9,9.32,9.32,0,0,0-10.2,3.3c-3.3,4.5-2,10.6.7,15.1,1,1.4,3.6-.1,2.6-1.7Z" transform="translate(-135 -122.89)"/><path class="cls-3" d="M392.6,431.4a27.08,27.08,0,0,0,27.5,13.7c13.6-2,20.9-12.4,26.3-24,6.3-13.4,15-24.4,28.9-30.3,12.6-5.3,28.9-2.6,39.3-12.5,4-3.8,6.7-9.1,5.8-14.7-.7-4.3-3.3-7.9-2.3-12.4a12.7,12.7,0,0,1,9.8-9.5c1.9-.4,1.1-3.3-.8-2.9a15.66,15.66,0,0,0-11.9,11.6c-.8,3.2-.2,6.1.8,9.2,1.6,5,2.2,9.1-1.1,13.7-5.8,8.1-16,9.2-25.1,10.5-8.1,1.2-15.7,3.4-22.7,7.6a55.41,55.41,0,0,0-16,14.5c-4.7,6.4-7.3,13.9-11.1,20.8-4.8,8.5-12.7,15-22.8,15.6a24.07,24.07,0,0,1-22.3-12.5c-.6-1.6-3.2-.1-2.3,1.6Z" transform="translate(-135 -122.89)"/><path class="cls-3" d="M371.7,267.4c-1.7,12.5-3.4,25-5,37.5-.3,1.9,2.6,2.7,2.9.8,1.7-12.5,3.4-25,5-37.5.3-1.9-2.6-2.7-2.9-.8Z" transform="translate(-135 -122.89)"/><path class="cls-3" d="M371.2,306.6l35.4-25.5c1.6-1.1.1-3.7-1.5-2.6L369.7,304c-1.6,1.1-.1,3.7,1.5,2.6Z" transform="translate(-135 -122.89)"/><path class="cls-3" d="M373.6,269.1Q418,209.55,460.9,149c1.1-1.6-1.5-3.1-2.6-1.5Q415.4,208.1,371,267.6c-1.1,1.5,1.5,3,2.6,1.5Z" transform="translate(-135 -122.89)"/><path class="cls-3" d="M410.3,276.6q40.8-54,79.2-109.8c1.1-1.6-1.5-3.1-2.6-1.5Q448.5,221,407.7,275.1c-1.2,1.5,1.4,3,2.6,1.5Z" transform="translate(-135 -122.89)"/><path class="cls-3" d="M460,149c4.7-8.8,10.2-19.5,20.6-22.4a16.32,16.32,0,0,1,20.6,15.6,1.5,1.5,0,0,0,3,0c-.1-10.3-8.8-19.6-19.4-19.3-13.9.4-21.7,13.7-27.4,24.6-.9,1.7,1.7,3.2,2.6,1.5Z" transform="translate(-135 -122.89)"/><path class="cls-3" d="M490.1,166.5a213.86,213.86,0,0,0,13.8-23.6c.9-1.7-1.7-3.2-2.6-1.5A213.86,213.86,0,0,1,487.5,165c-1,1.5,1.6,3.1,2.6,1.5Z" transform="translate(-135 -122.89)"/><path class="cls-3" d="M457.8,153.9a21.44,21.44,0,0,1,32.1,9c.8,1.8,3.4.2,2.6-1.5a24.34,24.34,0,0,0-36.2-10.1c-1.6,1.1-.1,3.7,1.5,2.6Z" transform="translate(-135 -122.89)"/><path class="cls-3" d="M452.5,162.9c10-6.4,24.7-2.2,29.3,9,.7,1.8,3.6,1,2.9-.8-5.4-12.8-21.9-18.3-33.7-10.8-1.6,1.1-.1,3.7,1.5,2.6Z" transform="translate(-135 -122.89)"/><path class="cls-3" d="M371.8,270.5c5.5,3.3,11-3.9,16.7-3.8a13.37,13.37,0,0,1,10.8,5.7c1.8,2.6,2.7,5.1,5.6,6.6,1.7.9,3.2-1.7,1.5-2.6-3.4-1.8-4.4-6.2-7.3-8.7a16.54,16.54,0,0,0-7-3.5,17.12,17.12,0,0,0-7.8,0c-3.2.8-7.9,5.5-10.9,3.7a1.53,1.53,0,0,0-1.6,2.6Z" transform="translate(-135 -122.89)"/><path class="cls-3" d="M388.2,265.1q30.3-39.9,60.7-79.9c1.2-1.5-1.4-3-2.6-1.5q-30.3,39.9-60.7,79.9c-1.1,1.5,1.5,3,2.6,1.5Z" transform="translate(-135 -122.89)"/><path class="cls-3" d="M419.9,245.1q28.2-41.4,59.8-80.2c1.2-1.5-.9-3.6-2.1-2.1-21.2,26.1-41.4,53-60.3,80.8-1,1.6,1.6,3.1,2.6,1.5Z" transform="translate(-135 -122.89)"/><path class="cls-3" d="M370.6,297.1a2.57,2.57,0,0,1,4.2,2.5c-.4,1.9,2.5,2.7,2.9.8a5.59,5.59,0,0,0-9.3-5.4c-1.4,1.2.7,3.3,2.2,2.1Z" transform="translate(-135 -122.89)"/><path class="cls-3" d="M371.5,296.7a15,15,0,0,1-2.7,5.7c.8.5,1.7,1,2.5,1.5a12.15,12.15,0,0,1,3.5-5.7l-2.4-.3a2.24,2.24,0,0,1-.9,2.9c.7.3,1.5.6,2.2.9a4,4,0,0,1,.8-3.8,11,11,0,0,1-1.8.2,1.05,1.05,0,0,1-.1,1.9,11,11,0,0,0,1.8.2,4.89,4.89,0,0,1-1.4-1.8c-.1-.3-.2-.6-.3-1,0-.2-.2-2.3-.5-1.7-.9,1.7,1.7,3.2,2.6,1.5,1.4-2.6-2.2-4.9-4.2-2.8-2.1,2.3-.2,6.1,1.8,7.8a1.38,1.38,0,0,0,1.8.2,4.09,4.09,0,0,0,.1-7.1,1.51,1.51,0,0,0-1.8.2,7.43,7.43,0,0,0-1.6,6.7,1.52,1.52,0,0,0,2.2.9,5.33,5.33,0,0,0,2-7,1.56,1.56,0,0,0-2.4-.3,14.08,14.08,0,0,0-4.2,7c-.4,1.3,1.5,2.7,2.5,1.5a20,20,0,0,0,3.5-7c.4-1.7-2.5-2.5-3-.6Z" transform="translate(-135 -122.89)"/><path class="cls-3" d="M365.9,312.4a62.07,62.07,0,0,1-13.6,29.1c-1.2,1.5.9,3.6,2.1,2.1a65.81,65.81,0,0,0,14.4-30.5c.3-1.8-2.6-2.6-2.9-.7Z" transform="translate(-135 -122.89)"/><path class="cls-3" d="M345,324.9a266.12,266.12,0,0,1-32.8,20.7c-1.7.9-.2,3.5,1.5,2.6a266.12,266.12,0,0,0,32.8-20.7c1.6-1.2.1-3.8-1.5-2.6Z" transform="translate(-135 -122.89)"/><path class="cls-3" d="M589.1,553.5c-2.7-4.2-7.2-2-9.6,1.2a109.9,109.9,0,0,0-6.9,10.8c-1.7,2.8-3.7,5.9-4,9.4-.6,7,4.7,7.8,10,9.5,6.3,2.1,5.9,9.5,1.9,13.6-3.2,3.3-7.9,4.7-12.1,6.1-1.8.6-1,3.5.8,2.9,8.4-2.7,20.9-8.8,16.6-20a8.74,8.74,0,0,0-3.5-4.3,14.76,14.76,0,0,0-2.9-1.2c-2.9-.9-3.7-.6-6-3.1-1.9-1.1-2.5-2.6-1.6-4.6a16.82,16.82,0,0,1,1.6-3.9,43.42,43.42,0,0,1,2.8-4.6c1-1.5,8-14.1,10.3-10.4,1,1.7,3.6.2,2.6-1.4Z" transform="translate(-135 -122.89)"/><path class="cls-3" d="M417.4,671.2A9.92,9.92,0,0,1,429,685c-.8,1.7,1.8,3.3,2.6,1.5a12.91,12.91,0,0,0-14.9-18.2,1.49,1.49,0,1,0,.7,2.9Z" transform="translate(-135 -122.89)"/><path class="cls-3" d="M570.6,506.5c-3.8-2.8-3.8-10.1,2-10.3,2.1-.1,4.3,1.1,4.2,3.4,0,1.9-1.7,4.2-3.8,3.9-1.9-.3-2.7,2.6-.8,2.9a6.65,6.65,0,0,0,7.5-5.7,6.36,6.36,0,0,0-5.6-7.4,8,8,0,0,0-8.8,5.1,9.74,9.74,0,0,0,3.8,10.7c1.5,1.1,3-1.5,1.5-2.6Z" transform="translate(-135 -122.89)"/><path class="cls-3" d="M152.6,494.1c1.4-5.6,6.2-8.8,10.7-11.9,4.7-3.3,9.5-6.7,14.3-10,9.5-6.7,19-13.3,28.5-20,1.6-1.1.1-3.7-1.5-2.6-11.1,7.8-22.2,15.5-33.3,23.3-7.5,5.2-19.2,10.7-21.6,20.4a1.5,1.5,0,0,0,2.9.8Z" transform="translate(-135 -122.89)"/></g><g id="laptop"><path class="cls-2" d="M823.5,1019.8,459,957.4q110.7-44.7,221.4-89.3,173.1,38.55,346.1,77.1Q925.1,982.55,823.5,1019.8Z" transform="translate(-135 -122.89)"/><path class="cls-3" d="M818.5,1021.3c.4,1.2.7,2.5,1.1,3.7a1.48,1.48,0,0,0,2.9-.4v-2.9a1.5,1.5,0,0,0-3,0,8,8,0,0,1-.7,3.4h2.9a7.35,7.35,0,0,1-.2-3.9,25.12,25.12,0,0,0-2.7.4.53.53,0,0,1,.1.8,25.12,25.12,0,0,1,2.7.4,2.14,2.14,0,0,1,.3-1.9c-.9-.3-1.9-.5-2.8-.8-.2,1.6-.4,3.1-.6,4.7-.1.8.8,1.5,1.5,1.5a1.54,1.54,0,0,0,1.5-1.5c.2-1.6.4-3.1.6-4.7s-2.1-1.9-2.8-.8a5.39,5.39,0,0,0-.6,4.3,1.51,1.51,0,0,0,2.7.4,3.15,3.15,0,0,0-.1-3.8c-.7-.9-2.5-1-2.7.4a11.39,11.39,0,0,0,.2,5.5,1.53,1.53,0,0,0,2.9,0,12.49,12.49,0,0,0,.8-4.2h-3v2.9c1-.1,2-.3,2.9-.4-.4-1.2-.7-2.5-1.1-3.7a1.44,1.44,0,1,0-2.8.6Z" transform="translate(-135 -122.89)"/><path class="cls-3" d="M820.8,1028.5c16.1-8.3,33.7-12.7,51-17.6a215.81,215.81,0,0,0,25-8.4c7.8-3.2,15.3-7.2,23-10.8,17.1-8,35.6-13.2,53.5-19.1,18.6-6.2,37.1-12.4,55.7-18.5,1.8-.6,1-3.5-.8-2.9-18.6,6.2-37.1,12.4-55.7,18.5-17.6,5.8-35.7,11-52.6,18.7-8.8,4-17.4,8.7-26.4,12.2-8.2,3.2-16.6,5.7-25.1,8.1-16.7,4.8-33.6,9.2-49.2,17.2-1.6.9-.1,3.5,1.6,2.6Z" transform="translate(-135 -122.89)"/><path class="cls-3" d="M822.2,1027.9q103.65-35.85,206.9-72.7c5.4-1.9,3.1-10.6-2.4-8.7q-103.2,36.9-206.9,72.7c-5.4,1.9-3.1,10.6,2.4,8.7Z" transform="translate(-135 -122.89)"/><path class="cls-3" d="M814.4,931.3c13,1.3,24.1,9.2,36.9,11.7,1.9.4,2.7-2.5.8-2.9-13-2.6-24.3-10.5-37.7-11.8-1.9-.1-1.9,2.9,0,3Z" transform="translate(-135 -122.89)"/><path class="cls-3" d="M852.2,941.6a115.91,115.91,0,0,0,22-15.4c1.4-1.3-.7-3.4-2.1-2.1A112.38,112.38,0,0,1,850.7,939a1.5,1.5,0,0,0,1.5,2.6Z" transform="translate(-135 -122.89)"/><path class="cls-3" d="M817.5,925.6c6.3-4.5,12.8-8.8,19.5-12.8,1.7-1,.1-3.6-1.5-2.6-6.7,4-13.2,8.2-19.5,12.8-1.6,1.2-.1,3.8,1.5,2.6Z" transform="translate(-135 -122.89)"/><path class="cls-3" d="M837.5,913.3c11.4,4.3,22.8,8.5,34.3,12.8,1.8.7,2.6-2.2.8-2.9-11.4-4.3-22.8-8.5-34.3-12.8-1.8-.6-2.6,2.3-.8,2.9Z" transform="translate(-135 -122.89)"/><path class="cls-3" d="M805.4,942.7q45.15,13.95,88.9,32.1c1.8.7,2.6-2.2.8-2.9q-43.65-18.15-88.9-32.1c-1.9-.6-2.7,2.3-.8,2.9Z" transform="translate(-135 -122.89)"/><path class="cls-3" d="M808.3,966c18.7,9,37.6,17.5,56.7,25.8,1.8.8,3.3-1.8,1.5-2.6q-28.65-12.3-56.7-25.8c-1.7-.8-3.2,1.8-1.5,2.6Z" transform="translate(-135 -122.89)"/><path class="cls-3" d="M811,991.7c10.2,5.2,20.4,10.5,30.6,15.7,1.7.9,3.2-1.7,1.5-2.6-10.2-5.2-20.4-10.5-30.6-15.7-1.7-.9-3.2,1.7-1.5,2.6Z" transform="translate(-135 -122.89)"/><path class="cls-3" d="M816.8,992.6a460.58,460.58,0,0,1,44.3-33.2c1.6-1.1.1-3.7-1.5-2.6a473.65,473.65,0,0,0-44.9,33.7c-1.5,1.3.6,3.4,2.1,2.1Z" transform="translate(-135 -122.89)"/><path class="cls-3" d="M813.1,972.1c8-5.6,16-11.2,24-16.9,1.6-1.1.1-3.7-1.5-2.6-8,5.6-16,11.2-24,16.9-1.5,1.1,0,3.7,1.5,2.6Z" transform="translate(-135 -122.89)"/><path class="cls-2" d="M818.1,1026.7,441,962.5q-17.7-133.95-35.5-267.8Q608.45,722,811.3,749.4,814.75,888,818.1,1026.7Z" transform="translate(-135 -122.89)"/><path class="cls-3" d="M594.1,872.2c-10.9-3.4-16.8-12.6-17.7-23.7-.9-11.3,1.3-22.2,11.8-28.1,9.3-5.2,20.4-3.7,28.7,2.6s15.7,19.2,9,29.1c-1.1,1.6,1.5,3.1,2.6,1.5,7.2-10.6.4-24.6-8.4-31.9-9.1-7.5-21.4-9.8-32.1-4.5-12.4,6.1-15.6,18.5-14.6,31.4,1,12.5,7.6,22.8,19.9,26.6,1.8.5,2.6-2.4.8-3Z" transform="translate(-135 -122.89)"/><path class="cls-3" d="M596.9,873.3c-4.6-7.6-3.1-18.2,4.3-23.5s18-3.1,23.6,3.7c1.2,1.5,3.3-.6,2.1-2.1-6.6-7.9-19-10.1-27.6-4s-10.4,18.6-5,27.4c1,1.6,3.6.1,2.6-1.5Z" transform="translate(-135 -122.89)"/><path class="cls-3" d="M607.2,877.5c-4.7-5-4-14.3,2.3-17.9s14.6.5,16.6,7.1c.6,1.8,3.5,1.1,2.9-.8-2.6-8.4-13.1-13.4-21-8.8s-8.9,16.2-2.9,22.6c1.3,1.3,3.4-.8,2.1-2.2Z" transform="translate(-135 -122.89)"/><path class="cls-3" d="M614.9,884.5a8.1,8.1,0,0,0,9.9-4.6c1.6-3.7-.5-7.7-4-9.3s-7.7-.7-9.6,2.7a8.24,8.24,0,0,0,1.8,10.2c1.5,1.2,3.6-.9,2.1-2.1-4-3.1-1.2-10.4,4.1-8.2,2.3.9,3.9,3.3,2.8,5.8a5.08,5.08,0,0,1-6.3,2.7c-1.8-.7-2.6,2.2-.8,2.8Z" transform="translate(-135 -122.89)"/><line class="cls-10" x1="676.3" y1="626.41" x2="685.1" y2="901.91"/><path class="cls-10" d="M811.9,749.1l8.1,271.8" transform="translate(-135 -122.89)"/><path class="cls-11" d="M638.8,730.7c6.5,3.4,62.3,33.8,66.2,87.8,2.2,29.8-12.4,52.4-21.6,66.2-49.6,74.6-147.7,87.8-174.3,90.6,38.7,25.7,173.9,110.4,321.7,105.4,32.9-1.1,83.9-3.4,139.2-33.8,41.5-22.8,68.4-52.1,83.8-71.6-9.5-5.9-18.9-11.7-28.4-17.6q-104.7,35.85-209.5,71.6-5.4-138.6-10.8-277.1Q721.85,741.7,638.8,730.7Z" transform="translate(-135 -122.89)"/><path class="cls-12" d="M559.3,981.8a427,427,0,0,0,59.1,32.7c32.4,14.8,128.3,58.6,232.2,34.3,75.5-17.7,133.9-66.2,130.1-74.2-2.4-5-31.7.2-162.2,52.1q-3.15-63.45-6.2-127c-3.6,35.6-7.3,71.2-10.9,106.7Q680.35,994.25,559.3,981.8Z" transform="translate(-135 -122.89)"/></g><g id="color-2" data-name="color"><path class="cls-9" d="M586.2,867.8a28.59,28.59,0,0,1-6.1-29c3.7-9.9,13.5-18.4,25.2-18a25.61,25.61,0,0,1,21.6,14.4,22.41,22.41,0,0,1,1.7,10,16.85,16.85,0,0,1-1.9,6.1,20.7,20.7,0,0,0-20.2-6.9c-9,2.1-12.9,9.8-13.3,10.5a20,20,0,0,0,0,17.1C590.8,870.5,588.5,869.1,586.2,867.8Z" transform="translate(-135 -122.89)"/></g><g id="hand_L" data-name="hand L"><path class="cls-2" d="M1092.2,741.2a80.27,80.27,0,0,0-16.5,16.5c-19.7,26.5-17,57.6-15.6,67.7a191.87,191.87,0,0,0-81.6.9A189.46,189.46,0,0,0,929,845.4a28.64,28.64,0,0,0,7.8,3.5c18.7,5.1,38.4-10.6,39-9.5s-22,11.6-20.8,20.8c.8,6.2,11.9,9.5,23.4,13,9.7,2.9,18.9,5.7,31.2,4.3a63.87,63.87,0,0,0,33.8-14.8,145.88,145.88,0,0,0,21.7,8.7c17.1,5.2,40.7,12.4,56.4,2.6,10.2-6.4,13.3-21.4,19.1-51.2,7.4-38.2,11.1-57.3.9-69.4C1128,737.3,1100.9,740,1092.2,741.2Z" transform="translate(-135 -122.89)"/><path class="cls-3" d="M1056.7,826.4a58.06,58.06,0,0,1,29,23.6c1,1.6,3.6.1,2.6-1.5a61.62,61.62,0,0,0-30.8-25c-1.8-.6-2.6,2.3-.8,2.9Z" transform="translate(-135 -122.89)"/><path class="cls-3" d="M992.4,846.2a33.39,33.39,0,0,0-25.8,21.2c-.7,1.8,2.2,2.6,2.9.8a30.45,30.45,0,0,1,23.7-19.1c1.9-.3,1.1-3.2-.8-2.9Z" transform="translate(-135 -122.89)"/><path class="cls-3" d="M968,869.3a22.78,22.78,0,0,0,22.9,5.3c1.8-.6,1-3.5-.8-2.9a19.66,19.66,0,0,1-20-4.5,1.48,1.48,0,0,0-2.1,2.1Z" transform="translate(-135 -122.89)"/><path class="cls-3" d="M1006.3,856.1a95.89,95.89,0,0,0-12.1,8.8c-2.5,2.2-5.3,4.8-4.7,8.4,1.5,9.5,12.9,7.4,19.1,5,1.8-.7,1-3.6-.8-2.9-2.7,1-5.7,2.3-8.6,2.2-4.7-.2-8.9-4.7-4.9-8.8,3.8-4,8.8-7.2,13.5-10.2,1.7-.9.2-3.5-1.5-2.5Z" transform="translate(-135 -122.89)"/><path class="cls-4" d="M1087.2,598.5a151.54,151.54,0,0,1,15,13.3,130.38,130.38,0,0,1,9.8,11c6.4,8,10.5,15.6,15,24.9,5.8,11.9,11.6,23.8,17.4,41.6,4.9,15,12.4,38.6,13.3,70a212.58,212.58,0,0,1-1.2,30.1,47.43,47.43,0,0,0-11.6-9.8c-19.1-11.7-42.3-7.5-64.2-3.5-8.2,1.5-15,3.3-19.7,4.6,1.2-11,2.3-22,3.5-33,1-9.2,1.9-18.5,2.9-27.8a111.76,111.76,0,0,1-6.9-13.9c-4.7-11.3-14.1-33.5-8.7-58.4C1058.2,619,1080.7,602.8,1087.2,598.5Z" transform="translate(-135 -122.89)"/><path class="cls-3" d="M1090.7,604c10,5.2,16.7,14.2,22.5,23.5a284.79,284.79,0,0,1,16.2,29.7,294.6,294.6,0,0,1,21.7,65.3c.4,1.9,3.3,1.1,2.9-.8a290.32,290.32,0,0,0-22.8-67.7,280.48,280.48,0,0,0-17.1-30.8c-5.7-8.8-12.4-17-21.8-21.9-1.8-.8-3.3,1.8-1.6,2.7Z" transform="translate(-135 -122.89)"/><path class="cls-3" d="M1059.5,705.7c4.6,9.4,9.4,18.6,14.4,27.8.9,1.7,3.5.2,2.6-1.5-5-9.2-9.8-18.4-14.4-27.8-.9-1.8-3.5-.3-2.6,1.5Z" transform="translate(-135 -122.89)"/><path class="cls-3" d="M1066.6,722.9q-3.75,29.1-7.4,58.2a1.47,1.47,0,0,0,1.9,1.4,155.94,155.94,0,0,1,52.5-7.4c14.1.5,32.8,1.8,40.7,15.6a1.5,1.5,0,0,0,2.6-1.5c-7.5-13.2-23.9-15.9-37.7-16.8a158.06,158.06,0,0,0-58.8,7.2,23.07,23.07,0,0,0,1.9,1.4q3.75-29.1,7.4-58.2c.2-1.8-2.8-1.8-3.1.1Z" transform="translate(-135 -122.89)"/><path class="cls-3" d="M1150.9,721c3.5,22,9.2,45.3,3.3,67.4a1.5,1.5,0,0,0,2.9.8c6-22.6.3-46.4-3.3-69-.3-1.9-3.2-1.1-2.9.8Z" transform="translate(-135 -122.89)"/><path class="cls-13" d="M1079.6,594.8a384,384,0,0,1,25.9,60.6,391.05,391.05,0,0,1,19.4,118.2l-30.6,1.8c3.3,23.7,6.7,47.5,10,71.2a101.93,101.93,0,0,0-28.8-11.2c-4.1-.9-19.2-3.9-35.3-1.2-33.8,5.7-54.2,33.4-58.8,40a53.66,53.66,0,0,0,17.6,4.1c21.8,1.3,37.7-11.3,42.4-15.3a144.31,144.31,0,0,0,37.1,12.9c16.1,3.3,34.9,7.1,45.3-2.9.8-.8,2.6-2.7,6.5-12.4,6.1-15.4,9.3-29.8,13.5-55.9.9-5.8,2.2-13.6,3.5-22.9l7.6,7.6a121.23,121.23,0,0,0,3.5-19.4c2.1-21.3-2-38.1-5.9-51.8-15.7-55.4-25.1-88.8-56.5-113A139,139,0,0,0,1079.6,594.8Z" transform="translate(-135 -122.89)"/><path class="cls-14" d="M1132.5,663.3a353.11,353.11,0,0,1,7.1,80.3c-.5,18.6-2.4,32.2-4.4,45.9-5.9,41.3-8.9,61.9-20.3,71.5-21.6,18.2-60.1,4.4-69.3.9,8.7,5.8,40,25.5,70.6,14.6a51.77,51.77,0,0,0,10.1-4.9,105.05,105.05,0,0,0,11.5-27.8,132.18,132.18,0,0,0,3-18.8c1.1-10,3-24.6,6.2-42.9,2.9,2.5,5.9,5,8.8,7.5a138.35,138.35,0,0,0,2.6-22.5c.9-23.2-4.2-40.8-10.1-60.9A340.29,340.29,0,0,0,1132.5,663.3Z" transform="translate(-135 -122.89)"/></g><g id="head"><path class="cls-15" d="M857.6,400.8a337,337,0,0,0,6.8,43.4c2.6,11.5,4.2,18.8,7.6,27.9,5.1,13.7,14.8,39.9,40.1,57a89.05,89.05,0,0,0,30.4,13.1c2.3.2,4.6.5,6.9.7.8,4.2,1.8,10.4,2.8,17.9,2.4,19.3,1.2,25.2,6.2,30.4,6.1,6.3,15.8,5.7,17.9,5.5,16.7-1.1,25.1-17.7,25.5-18.6a98.21,98.21,0,0,1-7.6-17.9,101.75,101.75,0,0,1-4.1-38.7,116.13,116.13,0,0,1,24.8-26.2c3.3-2.5,6.1-5.9,11-7.6,7-2.4,10.6,0,15.8-1.6,8.6-2.7,12.3-13.8,13.9-18.4,6.1-18.2-1.4-36.2-6.2-46.9a123.12,123.12,0,0,0-42.8-53.1c-28.1-19.6-84.3-41.4-121.5-13.1C878.7,359.5,864.1,372.6,857.6,400.8Z" transform="translate(-135 -122.89)"/><path class="cls-9" d="M861.8,442c-6.4-1.1-22.6-4.9-33.1-18.8-16-21.1-7.4-50.6,1.5-66.2,14-24.5,39.5-33,71.5-43.7,19-6.3,37.1-12.3,61.7-11.3,13.6.6,59.7,2.6,87.3,36.9,16.4,20.3,18.2,42.1,21.8,85.1,1.7,19.7.4,30.4-3,40.6-2.5,7.4-10.6,31.1-33.9,40.6a54.9,54.9,0,0,1-29.7,3c5.6-8.3,11.2-16.5,16.9-24.8,3.2.2,14.6.4,23.3-7.5,11.9-10.9,14-32.6,5.3-38.4-6.4-4.3-19.1-.1-30.1,9.8A101.78,101.78,0,0,0,1016,427c-12.6-33.9-40-52.5-53.4-60.2-5.3,6.8-22.1,26.7-51.9,34.6a96.8,96.8,0,0,1-51.9-.8Z" transform="translate(-135 -122.89)"/><path class="cls-3" d="M856.8,403.4c4.1,30.9,8.4,63,23.5,90.8,12.4,22.8,32.4,42.3,58.1,48.8a1.5,1.5,0,0,0,.8-2.9c-25.4-6.5-45-26.1-57-48.8-14.3-27-18.4-58-22.4-87.9-.3-1.9-3.3-1.9-3,0Z" transform="translate(-135 -122.89)"/><path class="cls-3" d="M938.4,543.4c18.1,0,37.1-9.7,51.3-20.1a119.07,119.07,0,0,0,34.4-39.6c.9-1.7-1.7-3.2-2.6-1.5a113.28,113.28,0,0,1-33.3,38.5c-13.9,10.2-32.3,19.7-49.8,19.7a1.5,1.5,0,0,0,0,3Z" transform="translate(-135 -122.89)"/><path class="cls-3" d="M989.6,520.9a105.85,105.85,0,0,0,11.1,58.5c.9,1.7,3.5.2,2.6-1.5a103.25,103.25,0,0,1-10.7-57c.2-1.9-2.8-1.9-3,0Z" transform="translate(-135 -122.89)"/><path class="cls-3" d="M946.1,542.9a317.07,317.07,0,0,1,8,34.7c1.3,7.8,1.8,16.6,10.5,19.5,13,4.4,32.2-3.4,37.2-16.3.7-1.8-2.2-2.6-2.9-.8-2.8,7.3-9.8,11.3-17,13.4-6,1.7-15.1,3.5-20.2-1.4-3-2.9-3.4-7.5-4-11.4-.7-4.1-1.4-8.2-2.2-12.3-1.8-8.8-3.9-17.6-6.4-26.2-.6-1.8-3.5-1-3,.8Z" transform="translate(-135 -122.89)"/><path class="cls-3" d="M950.4,555.3c17.8-2.3,29.5-15.9,38.1-30.5a1.5,1.5,0,0,0-2.6-1.5c-7.9,13.6-18.9,26.9-35.5,29-1.9.3-1.9,3.3,0,3Z" transform="translate(-135 -122.89)"/><path class="cls-3" d="M949.7,545.1a55.79,55.79,0,0,0,35.7-18.6c1.3-1.4-.8-3.6-2.1-2.1a52.48,52.48,0,0,1-33.6,17.7c-1.8.2-1.9,3.2,0,3Z" transform="translate(-135 -122.89)"/><path class="cls-3" d="M950.2,542.9a58.44,58.44,0,0,0,29.9-13.5c1.5-1.3-.7-3.4-2.1-2.1a55.3,55.3,0,0,1-28.6,12.8c-1.9.2-1.1,3.1.8,2.8Z" transform="translate(-135 -122.89)"/><path class="cls-3" d="M949.6,545.4c.5,2.4.4,7.2,3.4,8s7.3-2.6,9.6-4a64.6,64.6,0,0,0,19.7-18.9c1.1-1.6-1.5-3.1-2.6-1.5a59.63,59.63,0,0,1-13.5,14.4,64.43,64.43,0,0,1-7.8,5c-1.1.6-3.6,2.3-4.7,1.6-.7-.4-1-4.7-1.1-5.4-.5-1.9-3.4-1.1-3,.8Z" transform="translate(-135 -122.89)"/><path class="cls-3" d="M951,548.2A124.19,124.19,0,0,0,975.3,535c1.6-1.1.1-3.7-1.5-2.6a117.49,117.49,0,0,1-23.6,12.9c-1.8.7-1,3.6.8,2.9Z" transform="translate(-135 -122.89)"/><path class="cls-3" d="M952.5,551.2a62.68,62.68,0,0,0,25-16.1c1.3-1.4-.8-3.5-2.1-2.1a61,61,0,0,1-23.7,15.3c-1.8.7-1,3.6.8,2.9Z" transform="translate(-135 -122.89)"/><path class="cls-3" d="M954.1,549.6a64.85,64.85,0,0,0,19.2-12.7c1.4-1.3-.7-3.4-2.1-2.1A63.74,63.74,0,0,1,952.6,547c-1.8.8-.3,3.4,1.5,2.6Z" transform="translate(-135 -122.89)"/><path class="cls-3" d="M872.4,479.4c-16.3-5.8-21.7-27.1-20.1-42.5,1.7-16.9,16.9-35.3,35.5-27.4,8.9,3.8,12.2,13.6,14.6,22.3,2.5,9.2,3.6,19.4,1.2,28.8-2.1,8.3-7.2,16.2-15.2,19.8a19.06,19.06,0,0,1-22.9-5.3c-1.2-1.5-3.3.6-2.1,2.1,9.1,11.7,26.2,9.4,35.4-.9,11.7-13.1,10.5-33,5.5-48.7-2.3-7.3-5.3-14.9-12-19.1a25.3,25.3,0,0,0-19.7-2.9c-15.2,4.1-23.1,20.2-23.4,34.9-.3,16.1,6,36,22.6,41.8,1.6.6,2.4-2.3.6-2.9Z" transform="translate(-135 -122.89)"/><path class="cls-3" d="M907,449.5a32.94,32.94,0,0,1,31.9-1.4c1.7.9,3.2-1.7,1.5-2.6a36.05,36.05,0,0,0-35,1.4c-1.5,1,0,3.6,1.6,2.6Z" transform="translate(-135 -122.89)"/><path class="cls-3" d="M954.8,470.8a43.67,43.67,0,0,1-11.6-43c4.6-15.8,20.4-29.4,37.4-23.8,18.8,6.2,19.8,33.1,14.9,48.9-2.9,9.3-8.7,18.6-18.3,22s-17.9-1.7-25.6-7.1c-1.6-1.1-3.1,1.5-1.5,2.6,6.3,4.5,13.1,9,21.1,8.7,7.6-.3,14.5-4.5,19.2-10.2,10.6-12.8,12.7-32.3,8.3-47.9-4-14.2-15.8-23.4-30.9-20.9-14.4,2.3-25,15.3-28.2,28.9a46.75,46.75,0,0,0,12.9,43.9c1.6,1.4,3.7-.8,2.3-2.1Z" transform="translate(-135 -122.89)"/><path class="cls-3" d="M881.5,437.9a25.27,25.27,0,0,0,3.5,17.8,1.48,1.48,0,0,0,2.7-.4c2.4-6.9-1-13.7-4.4-19.6a1.52,1.52,0,0,0-2.8.8,42.84,42.84,0,0,0,3.2,15.4c.7,1.8,3.6,1,2.9-.8a40.62,40.62,0,0,1-3.1-14.6c-.9.3-1.9.5-2.8.8,3.1,5.3,6.3,11.1,4.1,17.3a25.12,25.12,0,0,0,2.7-.4,21.72,21.72,0,0,1-3.2-15.5c.4-1.9-2.5-2.7-2.8-.8Z" transform="translate(-135 -122.89)"/><path class="cls-3" d="M970,435.1a4.23,4.23,0,0,0-.7-2.7,1.52,1.52,0,0,0-2.8.8c.1,6.2.6,12.9,5.4,17.3a1.57,1.57,0,0,0,2.6-1.1,27.1,27.1,0,0,0-6-20.1c-1-1.2-2.8.1-2.5,1.5a113.22,113.22,0,0,0,4.5,14.3c.7,1.8,3.6,1,2.9-.8a91.16,91.16,0,0,1-4.5-14.3c-.8.5-1.7,1-2.5,1.5a24.27,24.27,0,0,1,5.1,18c.9-.4,1.7-.7,2.6-1.1-4.3-3.9-4.5-9.8-4.6-15.2-.9.3-1.9.5-2.8.8l.3,1.2c0,1.8,3,1.8,3-.1Z" transform="translate(-135 -122.89)"/><path class="cls-3" d="M917,454.8a129.68,129.68,0,0,0-4.8,18.3c-.6,3.3-2.7,9.5-1.2,12.8,3,6.7,16.3,2.6,20.9.4,1.7-.8.2-3.4-1.5-2.6a23,23,0,0,1-11.8,2.4c-2.4-.2-4.3-.6-4.8-3.3-.3-1.5.7-5.4,1-7.1a139.21,139.21,0,0,1,5.2-20.2c.5-1.7-2.4-2.5-3-.7Z" transform="translate(-135 -122.89)"/><path class="cls-3" d="M932.1,512.5a22.56,22.56,0,0,0,17.3-12.7c.8-1.7-1.8-3.3-2.6-1.5a19.66,19.66,0,0,1-15.5,11.3c-1.9.3-1,3.2.8,2.9Z" transform="translate(-135 -122.89)"/><path class="cls-3" d="M875.2,429.3a5.54,5.54,0,0,1,7.8-.7c1.5,1.3,3.6-.9,2.1-2.1a8.62,8.62,0,0,0-12,.7c-1.3,1.4.8,3.5,2.1,2.1Z" transform="translate(-135 -122.89)"/><path class="cls-3" d="M961,423.7a8.47,8.47,0,0,1,10.9-.1c1.5,1.2,3.6-.9,2.1-2.1a11.56,11.56,0,0,0-15.2.1c-1.4,1.3.8,3.4,2.2,2.1Z" transform="translate(-135 -122.89)"/><path class="cls-3" d="M1000.4,437.5a118.72,118.72,0,0,1,33.4-6.7c1.9-.1,1.9-3.1,0-3a121.48,121.48,0,0,0-34.2,6.8c-1.8.7-1.1,3.6.8,2.9Z" transform="translate(-135 -122.89)"/><path class="cls-5" d="M1015.3,312.9c6,7.7,29.1,39.3,24.8,82.7a112.63,112.63,0,0,1-18.7,51.4,72.81,72.81,0,0,1,9-6c6.1-3.4,10-5.5,15-5.2,1.5.1,5.1.4,7.7,2.5,7.6,6.4,5,29.1-8.5,39.7-7.4,5.8-16.1,6.4-20.5,6.3-5.7,8.1-11.5,16.2-17.2,24.4a54.09,54.09,0,0,0,16.3.1,55,55,0,0,0,25.5-11.3c10.8-8.7,15.2-19.3,18.1-26.5,8-20,6.4-37.6,3.6-69.3-1.2-14.1-1.9-21.3-4.7-30.8-3-10.3-7.7-25.5-21.1-39.1A77.54,77.54,0,0,0,1015.3,312.9Z" transform="translate(-135 -122.89)"/><path class="cls-16" d="M918.7,398.4a243.94,243.94,0,0,0,32-34.5,246.6,246.6,0,0,0,16.9-25.2c-1.7,9-3.4,18-5,27a85,85,0,0,1-43.9,32.7Z" transform="translate(-135 -122.89)"/><path class="cls-17" d="M989.8,387a178.18,178.18,0,0,1,7.5,60.5c-.5,10.4-3.3,64.9-32,83.7-2.8,1.8-9.9,6-9.6,6.6s13.7-5.2,21-9.2c11.5-6.2,29.2-18.7,45.6-45.1,2.7.3,15.9,1.2,25.4-7.9,11.5-10.9,13.5-32.3,4.4-38.6-6.5-4.5-18.9-.7-29.8,8.3a123.34,123.34,0,0,0-4.4-14.5A128.34,128.34,0,0,0,989.8,387Z" transform="translate(-135 -122.89)"/><path class="cls-18" d="M965.7,537c2.6,8,5.2,16,7.8,24.1,3.6,11,7.1,22.1,10.6,33.1a22.17,22.17,0,0,0,11.2-6.2,24.37,24.37,0,0,0,6.2-11.2,99.66,99.66,0,0,1-10.1-34.2,96.88,96.88,0,0,1,0-20.2C982.9,527.3,974.3,532.2,965.7,537Z" transform="translate(-135 -122.89)"/><path class="cls-19" d="M915.8,458.3c-5,10.7-10,21.3-15,32,8.2-.2,16.3-.3,24.5-.5-4.8-1.5-9.7-3-14.5-4.5C912.4,476.3,914.1,467.3,915.8,458.3Z" transform="translate(-135 -122.89)"/></g></svg>