<?xml version="1.0" standalone="no"?>
<!DOCTYPE svg PUBLIC "-//W3C//DTD SVG 20010904//EN"
 "http://www.w3.org/TR/2001/REC-SVG-20010904/DTD/svg10.dtd">
<svg version="1.0" xmlns="http://www.w3.org/2000/svg"
 width="1920.000000pt" height="1280.000000pt" viewBox="0 0 1920.000000 1280.000000"
 preserveAspectRatio="xMidYMid meet">
<metadata>
Created by potrace 1.16, written by Peter Selinger 2001-2019
</metadata>
<g transform="translate(0.000000,1280.000000) scale(0.100000,-0.100000)"
fill="#000000" stroke="none">
<path d="M14075 12411 c-3 -6 -20 -11 -36 -11 -21 0 -39 -10 -60 -32 -16 -18
-29 -36 -29 -39 0 -4 11 -21 25 -37 30 -36 31 -49 5 -57 -11 -3 -20 -13 -20
-21 0 -8 -4 -12 -10 -9 -5 3 -10 -3 -10 -14 0 -12 5 -21 10 -21 6 0 10 -4 10
-9 0 -4 -11 -7 -24 -6 -18 2 -23 -1 -19 -11 3 -8 9 -14 14 -14 5 0 9 -5 9 -11
0 -5 -4 -8 -9 -5 -16 10 -19 -18 -4 -29 12 -9 9 -11 -11 -11 -21 0 -25 4 -21
21 2 11 -1 8 -7 -7 -12 -28 -28 -38 -28 -17 0 6 -7 8 -17 4 -14 -5 -15 -3 -7
5 15 15 5 53 -12 46 -7 -3 -15 3 -17 12 -4 14 -6 13 -12 -5 -4 -13 -11 -23
-15 -23 -12 0 -19 39 -7 43 7 2 7 9 0 21 -9 17 -13 14 -33 -23 -13 -22 -30
-41 -39 -41 -13 0 -13 2 1 13 20 16 48 58 48 72 0 6 -10 12 -22 12 -16 2 -19
0 -9 -6 7 -5 10 -14 7 -20 -10 -15 -26 -14 -26 3 0 16 -27 29 -35 17 -3 -5 2
-11 10 -15 8 -3 15 -12 15 -21 0 -13 -4 -14 -22 -4 -29 16 -49 35 -42 42 3 3
-11 5 -31 4 -29 -1 -39 -6 -46 -24 -5 -13 -11 -23 -13 -23 -3 0 -3 7 0 15 4 8
1 15 -6 15 -9 0 -9 4 1 17 12 14 12 16 -1 11 -8 -2 -16 -11 -16 -19 -1 -8 -3
-25 -4 -39 -2 -21 -3 -20 -10 10 -5 19 -6 38 -4 42 3 4 -2 5 -10 2 -13 -5 -16
1 -16 27 0 23 -3 29 -9 21 -6 -11 -13 -7 -30 14 -17 22 -19 30 -9 42 9 11 9
14 1 9 -6 -4 -18 1 -25 10 -13 18 -53 29 -42 12 3 -5 7 -18 9 -30 4 -17 2 -19
-11 -8 -8 6 -17 9 -21 5 -14 -13 -20 -131 -8 -158 5 -13 2 -18 -10 -18 -9 0
-14 4 -11 9 4 5 -4 7 -16 3 -13 -3 -19 -1 -15 5 5 7 -4 8 -28 3 -19 -4 -36 -5
-39 -2 -4 3 -6 -2 -6 -11 0 -22 -16 -22 -24 -1 -8 22 -98 14 -125 -10 -15 -13
-20 -14 -24 -4 -4 9 -6 8 -6 -4 -1 -9 3 -18 8 -20 5 -1 -2 -23 -15 -48 -13
-25 -24 -40 -24 -33 0 7 -19 10 -57 8 -77 -4 -113 -14 -113 -31 0 -8 -5 -14
-10 -14 -7 0 -8 -13 -4 -36 5 -27 4 -35 -5 -30 -6 4 -11 1 -11 -6 0 -20 -50
-40 -67 -27 -10 9 -13 8 -13 -2 -1 -21 -35 -90 -42 -84 -3 3 -18 8 -34 11 -16
3 -32 10 -35 16 -4 7 -9 5 -12 -3 -4 -10 -6 -8 -6 4 -1 10 -5 16 -9 13 -5 -3
-17 5 -27 17 -15 17 -19 18 -24 7 -7 -16 -43 -23 -51 -10 -3 4 -14 10 -25 12
-15 2 -25 -8 -42 -42 -13 -24 -23 -41 -23 -38 0 3 -13 -7 -30 -22 -16 -15 -30
-33 -30 -38 0 -14 -59 -62 -76 -62 -9 0 -13 -4 -9 -9 6 -11 -34 -9 -52 2 -18
11 -66 -11 -60 -28 4 -10 1 -12 -10 -8 -12 5 -14 3 -8 -7 6 -10 4 -12 -8 -7
-10 4 -14 2 -11 -6 3 -8 -10 -18 -31 -26 -27 -10 -35 -18 -35 -38 0 -18 -4
-24 -15 -19 -8 3 -15 1 -15 -4 0 -9 -63 -34 -89 -34 -8 -1 -19 -9 -25 -19 -9
-14 -8 -20 4 -27 12 -8 12 -10 -5 -10 -11 0 -33 -7 -49 -15 -15 -8 -34 -15
-41 -15 -27 0 -37 -129 -14 -172 7 -12 4 -18 -9 -21 -16 -4 -16 -5 1 -6 21 -1
21 0 1 -40 -12 -24 -21 -31 -36 -28 -16 4 -17 3 -7 -9 9 -11 6 -18 -12 -34
-13 -10 -33 -17 -44 -15 -11 3 -8 -1 8 -8 l27 -13 -20 -22 c-11 -12 -27 -19
-35 -16 -18 7 -20 -17 -4 -33 12 -12 -4 -53 -21 -53 -14 0 -37 -49 -45 -98 -4
-23 -11 -40 -16 -36 -5 3 -9 0 -9 -6 0 -6 -12 -15 -27 -21 -23 -8 -30 -7 -41
8 -10 13 -16 14 -19 6 -6 -16 -33 -17 -33 -2 0 7 -9 0 -20 -14 -11 -14 -18
-31 -15 -39 4 -9 -2 -14 -16 -15 -12 -1 -29 -9 -38 -17 -10 -9 -20 -13 -24
-10 -3 4 -13 -1 -22 -10 -9 -9 -25 -16 -36 -16 -23 0 -25 -13 -4 -30 9 -8 15
-8 15 -2 0 6 14 9 33 6 50 -6 67 3 67 37 l0 31 31 -31 c32 -33 49 -37 79 -21
14 8 19 5 23 -11 4 -13 10 -18 18 -14 8 6 10 -4 7 -34 -2 -22 0 -41 5 -41 12
0 -3 -43 -20 -55 -16 -12 -21 -69 -9 -100 6 -16 6 -17 -3 -5 -10 13 -12 13
-21 0 -5 -8 -7 -24 -3 -35 5 -16 3 -18 -9 -8 -11 10 -20 8 -43 -9 -17 -11 -22
-18 -12 -14 13 4 17 0 17 -22 -1 -23 -2 -24 -11 -9 -13 22 -32 22 -25 -1 4
-12 -3 -21 -24 -30 -51 -23 -33 -82 25 -82 9 0 28 9 42 20 14 11 29 17 34 14
5 -3 9 2 9 10 0 9 7 16 15 16 8 0 15 4 15 10 0 5 7 7 15 4 10 -4 15 0 15 11 0
9 4 14 9 10 11 -6 36 33 27 43 -3 3 -6 1 -6 -5 0 -6 -7 -13 -15 -17 -26 -10
-16 9 14 27 32 19 61 22 61 7 0 -5 -6 -10 -13 -10 -16 0 -40 -47 -32 -61 4 -5
-1 -9 -10 -9 -10 0 -13 -5 -9 -12 5 -7 2 -9 -9 -5 -10 4 -14 2 -12 -6 6 -17
-41 -68 -58 -62 -7 3 -22 -4 -32 -15 -19 -21 -19 -22 5 -41 16 -12 20 -19 10
-19 -10 0 -4 -10 16 -30 35 -36 57 -33 76 11 7 16 17 29 23 30 32 2 71 11 86
19 12 7 19 6 22 -3 4 -9 8 -8 16 3 6 9 11 10 11 3 0 -6 -6 -18 -13 -25 -15
-14 -11 -38 7 -50 7 -5 3 -13 -11 -23 -13 -9 -23 -24 -23 -33 0 -10 -9 -23
-21 -30 -11 -7 -18 -19 -16 -26 3 -7 -3 -17 -12 -23 -11 -7 -18 -24 -19 -42
l-1 -31 30 17 c16 10 32 28 35 40 4 13 12 23 20 23 16 0 18 -12 5 -25 -6 -6
-11 -32 -13 -60 -2 -29 -8 -49 -14 -48 -6 1 -17 -13 -24 -32 -7 -18 -25 -39
-39 -46 -45 -23 -182 -170 -179 -193 2 -11 -8 -31 -20 -44 -13 -12 -21 -29
-18 -37 2 -7 0 -15 -6 -17 -6 -2 -13 -23 -15 -46 -3 -36 0 -42 17 -42 30 0 52
60 39 110 -2 8 2 14 9 13 6 -2 12 3 12 11 0 8 16 20 35 26 19 6 36 17 36 23 1
7 2 21 3 32 1 29 57 104 83 111 11 3 31 16 44 30 12 13 26 21 30 18 5 -3 6 2
3 10 -4 11 6 18 35 26 23 6 39 15 36 20 -3 5 -1 11 4 14 5 4 8 -2 7 -11 -2
-10 3 -20 11 -23 11 -5 10 -10 -6 -29 -11 -12 -17 -29 -14 -36 3 -8 -14 -33
-39 -57 -24 -24 -56 -62 -71 -86 -15 -23 -35 -51 -45 -63 -9 -11 -17 -23 -18
-27 0 -4 -7 -20 -14 -37 -20 -44 -18 -116 3 -148 15 -23 21 -26 39 -16 11 6
23 19 25 30 3 10 9 16 14 13 5 -3 10 5 10 18 1 17 3 18 6 6 4 -17 6 -17 21 -2
15 15 16 15 23 -2 7 -18 8 -18 8 -1 1 17 2 17 25 0 13 -10 23 -19 21 -21 -2
-2 1 -17 5 -34 8 -24 6 -29 -5 -24 -10 3 -15 -1 -15 -12 0 -10 -7 -27 -15 -38
-8 -10 -15 -26 -15 -34 0 -9 -9 -23 -20 -33 -12 -10 -20 -29 -20 -47 0 -21 -4
-29 -12 -24 -7 5 -9 2 -5 -9 4 -11 2 -14 -8 -11 -10 4 -12 -5 -9 -42 3 -26 7
-51 10 -56 8 -12 -10 -10 -23 3 -8 8 -13 8 -17 0 -4 -6 -2 -11 3 -11 6 0 11
-7 11 -16 0 -9 5 -14 12 -12 6 2 21 -5 32 -16 19 -19 20 -19 27 0 5 13 8 14 8
4 1 -20 -16 -45 -30 -45 -7 0 -15 -7 -19 -15 -4 -8 -19 -38 -33 -66 -15 -29
-27 -64 -27 -78 l0 -26 -120 0 c-113 0 -120 -1 -120 -20 0 -17 -7 -20 -40 -20
-33 0 -40 -3 -40 -20 0 -18 -7 -20 -80 -20 l-80 0 0 -40 0 -40 -40 0 c-33 0
-40 -3 -40 -20 0 -17 -7 -20 -40 -20 -33 0 -40 -3 -40 -20 0 -15 -7 -20 -28
-20 -21 0 -37 -10 -61 -40 -29 -37 -30 -40 -11 -40 11 0 20 -2 20 -5 0 -14
-78 -74 -97 -75 -20 0 -23 -5 -23 -40 0 -33 -3 -40 -20 -40 -17 0 -20 -7 -20
-40 0 -33 -3 -40 -20 -40 -17 0 -20 -7 -20 -40 0 -33 -3 -40 -20 -40 -19 0
-20 -7 -20 -120 0 -113 -1 -120 -20 -120 -18 0 -20 -7 -20 -80 0 -73 -2 -80
-20 -80 -20 0 -20 -7 -20 -360 0 -353 0 -360 -20 -360 -19 0 -20 -7 -20 -160
0 -100 4 -160 10 -160 6 0 10 -18 10 -40 0 -38 -2 -40 -30 -40 l-30 0 0 -80
c0 -73 -2 -80 -20 -80 -17 0 -20 -7 -20 -40 0 -22 5 -40 10 -40 6 0 10 -18 10
-40 0 -38 -2 -40 -30 -40 l-30 0 0 -80 c0 -47 -4 -80 -10 -80 -5 0 -10 -18
-10 -40 0 -22 5 -40 10 -40 6 0 10 -18 10 -40 l0 -40 -40 0 -40 0 0 -40 c0
-22 -4 -40 -10 -40 -6 0 -10 -33 -10 -80 l0 -80 -30 0 c-28 0 -30 -2 -30 -40
0 -22 -4 -40 -10 -40 -5 0 -10 -18 -10 -40 0 -38 -2 -40 -30 -40 l-30 0 0 -80
c0 -47 -4 -80 -10 -80 -5 0 -10 -18 -10 -40 0 -38 -2 -40 -30 -40 -28 0 -30
-2 -30 -40 0 -22 -4 -40 -10 -40 -6 0 -10 -33 -10 -80 l0 -80 -30 0 -30 0 0
-80 c0 -47 -4 -80 -10 -80 -6 0 -10 -33 -10 -80 l0 -80 -30 0 -30 0 0 -120 c0
-113 -1 -120 -20 -120 -19 0 -20 -7 -20 -160 0 -153 -1 -160 -20 -160 -19 0
-20 -7 -20 -160 0 -153 -1 -160 -20 -160 -17 0 -20 -7 -20 -40 0 -33 3 -40 20
-40 17 0 20 -7 20 -40 0 -33 -3 -40 -20 -40 -18 0 -20 -7 -20 -80 0 -73 -2
-80 -20 -80 -19 0 -20 -7 -20 -160 0 -153 -1 -160 -20 -160 -19 0 -20 -7 -20
-160 0 -153 -1 -160 -20 -160 -20 0 -20 -7 -20 -280 l0 -280 -40 0 -40 0 0
-200 0 -200 -40 0 -40 0 0 -520 0 -520 -40 0 -40 0 0 -80 0 -80 40 0 40 0 0
-240 0 -240 -40 0 -40 0 0 -80 0 -80 994 0 994 0 15 63 c8 34 27 103 41 154
40 139 43 207 24 523 -15 244 -16 342 -7 685 5 220 12 411 14 425 3 14 9 104
15 200 16 283 29 444 50 625 10 94 22 217 26 275 4 58 10 116 14 129 5 22 8
19 29 -29 40 -93 85 -183 123 -250 21 -36 38 -71 38 -79 0 -8 14 -26 32 -41
20 -17 33 -38 34 -56 11 -110 17 -138 29 -150 8 -9 15 -10 17 -3 2 6 21 9 43
7 l40 -4 -32 -8 c-38 -10 -48 -46 -13 -46 11 0 20 -7 20 -15 0 -8 5 -15 11
-15 5 0 8 4 5 8 -3 5 8 6 25 4 18 -3 29 0 29 8 0 7 7 10 16 6 9 -3 25 4 40 19
16 16 36 25 57 25 30 0 157 -32 202 -50 48 -20 221 -22 201 -3 -7 8 20 33 35
33 7 0 5 6 -6 14 -12 8 -34 11 -62 8 -42 -4 -46 -3 -96 48 -30 30 -61 53 -73
53 -17 0 -20 4 -16 26 3 14 9 32 15 39 7 8 5 12 -7 12 -19 0 -21 21 -5 37 16
16 3 43 -21 43 -12 0 -20 7 -20 16 0 12 -7 15 -25 12 -14 -3 -25 -1 -25 3 0 5
-7 9 -15 9 -20 0 -54 52 -37 58 13 4 17 32 4 32 -4 0 -13 -5 -20 -12 -9 -9
-12 -6 -12 16 0 15 -4 25 -10 21 -5 -3 -10 1 -10 9 0 9 5 16 10 16 6 0 10 11
10 25 0 14 -6 25 -12 25 -7 0 0 7 15 15 15 8 34 12 41 9 7 -3 19 2 26 11 11
13 10 18 -4 33 -18 20 -12 34 10 25 8 -3 14 1 14 11 0 9 5 16 10 16 6 0 10 -7
10 -15 0 -8 5 -15 11 -15 7 0 9 9 5 23 -3 12 -6 30 -6 40 0 9 -7 17 -15 17 -8
0 -15 -8 -15 -17 0 -13 -3 -14 -12 -5 -9 9 -5 17 16 33 20 15 27 29 23 45 -3
15 0 21 10 17 22 -8 16 71 -9 127 -13 27 -27 50 -31 50 -5 0 -5 -5 -2 -10 8
-13 -4 -50 -16 -50 -12 0 -12 57 1 65 19 12 -1 25 -27 19 -26 -7 -26 -6 -20
37 7 49 -15 124 -39 133 -17 7 -18 -6 -2 -22 17 -17 0 -28 -22 -14 -26 16 -40
15 -40 -3 0 -8 -5 -15 -10 -15 -7 0 -8 13 -4 35 l6 35 -38 0 c-49 0 -67 10
-53 30 8 11 12 12 16 3 2 -7 20 -13 39 -13 41 0 38 15 -5 23 -34 7 -62 64 -39
79 10 6 10 8 0 8 -7 0 -15 -7 -18 -15 -8 -19 -24 -19 -24 0 0 8 -4 15 -10 15
-5 0 -10 -7 -10 -15 0 -27 -17 -15 -24 16 -8 43 -8 59 3 59 5 0 7 -10 4 -23
-6 -22 -6 -22 14 -2 12 12 16 23 10 26 -5 4 -7 12 -3 18 4 6 -3 21 -15 33
l-22 23 6 -23 c3 -12 1 -20 -4 -16 -5 3 -9 12 -9 20 0 8 -4 14 -10 14 -19 0
-10 37 15 60 29 27 32 56 9 82 -16 16 -16 18 0 23 48 15 51 19 19 23 -18 2
-33 7 -33 13 0 5 15 9 33 9 17 0 39 4 47 10 9 6 17 5 22 -3 5 -8 8 -5 8 9 0
11 -5 25 -10 30 -12 12 10 62 40 89 13 11 18 25 14 37 -4 15 0 18 25 18 25 0
31 4 31 20 0 12 7 32 16 45 9 13 13 29 9 34 -3 6 0 8 8 6 9 -4 23 13 41 50 14
30 31 55 36 55 6 0 10 10 11 23 1 18 2 17 10 -7 5 -20 4 -34 -3 -44 -9 -10 -8
-16 3 -22 19 -12 27 13 22 71 -2 25 1 59 7 75 11 28 12 28 26 10 13 -19 14
-18 14 13 0 21 4 30 11 25 6 -3 9 -15 6 -25 -8 -32 8 -21 21 13 l13 33 13 -24
c13 -23 14 -23 19 -5 3 12 5 6 6 -14 1 -22 5 -32 14 -29 13 5 13 6 1 52 -7 27
-6 28 8 14 11 -10 14 -28 11 -57 -3 -30 0 -42 9 -42 7 0 21 -17 30 -37 10 -23
17 -31 17 -20 1 11 -6 31 -15 47 -18 30 -12 98 7 69 5 -7 9 -30 10 -49 l2 -35
6 40 c4 28 13 43 29 50 12 5 22 17 22 26 0 12 12 19 39 24 42 7 56 30 45 71
-4 14 0 23 10 27 9 4 16 16 16 27 0 15 7 20 25 20 25 0 30 14 28 77 0 6 12 17
28 24 24 9 29 17 29 47 0 24 7 42 25 58 30 27 59 97 52 123 -3 11 1 22 9 25 9
3 11 0 7 -11 -4 -11 -2 -14 5 -9 7 4 12 15 12 24 0 39 23 94 50 121 21 23 31
47 41 103 7 40 13 78 14 83 0 6 7 15 15 21 11 10 12 17 2 38 -11 24 -10 26 13
26 25 0 35 15 14 22 -8 3 -6 10 5 20 9 9 16 21 16 27 0 6 7 11 15 11 11 0 14
7 9 25 -4 15 1 39 10 60 10 21 14 44 10 57 -5 16 -3 20 8 15 11 -4 21 12 37
61 13 37 29 77 37 89 8 12 14 33 14 46 0 32 22 77 38 77 8 0 12 9 11 23 -4 32
21 100 42 115 9 6 21 27 24 45 4 17 12 37 17 44 5 7 7 17 3 23 -4 6 0 19 7 28
8 9 23 67 32 127 10 61 21 120 26 132 5 12 5 36 -1 58 -18 63 -5 90 59 122 31
15 63 35 70 43 19 23 10 109 -13 126 -17 12 -17 14 -2 14 22 0 22 16 0 29 -15
9 -13 11 12 12 l30 1 -30 8 c-16 4 -23 8 -15 9 12 1 11 5 -4 16 -19 14 -18 15
10 16 25 0 26 2 9 9 l-20 9 20 1 c16 1 14 4 -10 15 -19 9 -24 14 -12 15 9 0
17 4 17 9 0 6 17 12 38 14 l37 4 -38 1 c-21 1 -36 6 -33 10 2 4 -5 9 -17 9
-12 1 -23 7 -25 13 -2 5 -13 10 -25 11 -21 0 -21 1 -2 9 11 5 16 9 10 9 -5 1
-30 19 -55 41 -25 22 -48 40 -51 40 -3 0 -14 17 -23 38 -10 21 -34 54 -54 74
-20 20 -46 53 -57 75 -11 21 -22 40 -25 43 -3 3 -23 28 -45 55 -31 39 -45 49
-64 47 -19 -3 -22 0 -17 13 5 14 2 16 -14 12 -12 -3 -20 0 -20 7 0 7 -15 24
-33 37 -58 42 -98 96 -104 139 -3 22 -10 43 -14 46 -5 3 -9 14 -9 25 0 10 -7
19 -15 19 -8 0 -15 4 -15 9 0 5 -20 31 -44 57 -38 43 -78 109 -147 246 -25 49
-24 52 12 44 l30 -6 -20 26 c-12 15 -21 32 -21 38 0 6 -5 18 -10 26 -9 13 -11
13 -20 0 -7 -11 -10 -6 -10 22 0 20 -4 40 -10 43 -13 8 -13 111 0 135 6 12 5
35 -4 71 -8 30 -17 71 -20 91 -4 20 -13 50 -21 65 -8 15 -15 34 -15 41 0 6 -5
12 -11 12 -7 0 -8 -7 -4 -17 15 -39 18 -76 6 -69 -11 7 -41 70 -41 86 0 12 68
33 85 26 14 -5 55 -76 55 -96 0 -6 14 -40 30 -75 17 -35 30 -70 30 -78 0 -8 8
-25 19 -38 20 -27 40 -67 71 -149 12 -30 27 -62 34 -70 7 -8 41 -63 76 -122
34 -60 68 -108 75 -108 24 0 186 -163 217 -218 23 -40 43 -60 82 -82 28 -15
77 -47 109 -70 57 -42 93 -52 43 -12 -15 11 -26 27 -26 35 0 17 -27 30 -42 21
-6 -4 -3 5 6 18 18 27 13 40 -12 30 -15 -5 -15 -4 -3 11 11 15 11 17 -2 17 -8
0 -27 24 -41 54 -19 38 -31 53 -41 49 -11 -4 -15 2 -15 23 0 15 -3 24 -7 21
-3 -4 -18 3 -31 15 -14 13 -22 18 -18 11 3 -6 1 -15 -5 -19 -7 -4 -9 -3 -6 3
4 5 -7 23 -24 39 -17 16 -39 48 -50 72 -11 23 -24 42 -28 42 -5 0 -15 17 -22
37 -6 21 -19 44 -26 52 -9 9 -13 25 -9 42 3 16 1 31 -4 34 -18 11 -10 60 14
82 l24 23 6 -33 c4 -17 15 -50 26 -72 12 -24 18 -30 14 -15 -16 69 -22 106
-18 112 5 8 54 -36 54 -47 0 -7 38 -62 63 -89 9 -11 17 -25 17 -32 0 -6 6 -14
14 -17 8 -3 17 -21 21 -39 4 -18 19 -57 32 -86 17 -36 26 -73 27 -113 0 -36 5
-59 12 -59 6 0 15 -19 19 -42 l8 -43 7 35 c4 21 8 26 9 14 1 -14 10 -24 25
-28 14 -3 31 -12 38 -19 25 -25 86 -57 106 -57 11 0 24 -4 27 -10 8 -13 62
-13 70 0 3 6 45 10 93 9 63 0 114 6 186 25 54 14 100 26 102 26 2 0 4 11 4 25
0 14 7 28 15 31 20 8 19 21 -2 27 -17 4 -17 5 0 6 9 0 17 5 17 11 0 9 -10 7
-63 -13 -21 -7 -31 -7 -35 0 -10 15 -62 4 -62 -13 0 -16 -16 -19 -25 -4 -4 6
-15 4 -30 -6 -17 -11 -24 -12 -27 -3 -3 9 -9 9 -26 0 -14 -8 -22 -8 -22 -1 0
5 -19 11 -42 11 l-43 2 45 7 c25 4 48 6 52 3 4 -2 5 3 2 12 -5 12 -10 13 -17
6 -16 -16 -38 -13 -60 7 -19 16 -20 16 -14 0 4 -10 2 -18 -2 -18 -5 0 -11 6
-14 13 -2 6 -22 18 -43 26 -22 8 -52 27 -68 42 -22 21 -32 26 -38 17 -11 -19
-77 19 -75 42 1 11 7 16 17 12 28 -9 32 -14 21 -22 -6 -3 3 -7 21 -7 18 0 71
-3 119 -7 49 -4 96 -3 110 3 15 5 32 5 41 0 13 -7 110 19 143 39 5 3 22 7 39
9 16 2 34 8 41 13 7 5 14 8 17 5 2 -3 15 6 28 20 24 26 22 31 -8 16 -44 -22
-98 -31 -225 -37 -120 -5 -141 -4 -156 10 -12 11 -29 15 -47 12 -17 -3 -38 1
-52 10 -18 12 -27 13 -35 5 -20 -20 -38 -12 -53 24 -21 50 -19 95 4 95 11 0
27 -9 37 -20 18 -20 18 -20 29 2 10 19 21 23 66 25 30 1 81 6 112 10 48 8 58
6 61 -7 4 -12 5 -12 6 2 1 11 12 19 34 22 54 8 140 18 182 20 22 1 49 5 60 9
11 4 38 0 60 -8 36 -12 40 -17 38 -47 l-1 -32 19 24 c17 23 19 23 19 5 0 -11
-7 -33 -15 -49 -29 -55 8 -46 79 20 27 25 54 43 61 40 21 -8 55 32 55 65 0 24
4 30 16 25 9 -3 22 -6 30 -6 8 0 14 -9 14 -19 0 -26 37 -25 66 1 15 14 24 16
29 8 5 -8 11 -8 21 1 12 10 12 15 -2 37 -16 24 -16 26 2 39 19 14 19 15 0 29
-11 8 -25 14 -32 14 -6 0 -28 20 -50 45 -21 25 -44 45 -51 45 -7 0 -13 5 -13
11 0 13 -58 69 -71 69 -5 0 -9 4 -9 10 0 14 -150 153 -157 146 -2 -2 12 -35
32 -72 39 -73 65 -139 65 -165 0 -13 53 -95 71 -109 3 -3 9 -18 13 -34 6 -25
5 -28 -7 -17 -11 9 -16 9 -19 0 -3 -9 -35 -9 -127 -3 -95 7 -125 6 -133 -3 -8
-10 -6 -13 8 -15 18 -1 -73 -11 -201 -23 -33 -2 -69 -7 -81 -11 -12 -3 -26 1
-34 11 -11 13 -10 18 5 29 16 12 11 14 -46 24 -35 6 -82 14 -104 18 -22 4 -52
7 -67 7 -31 0 -37 11 -12 21 9 3 63 6 120 6 63 0 104 4 104 10 0 6 -4 10 -10
10 -19 0 -10 21 14 30 13 5 27 13 30 18 3 5 32 13 63 16 32 4 74 14 93 23 38
17 120 94 120 112 0 16 -20 14 -26 -4 -8 -20 -73 -20 -102 1 -20 14 -25 14
-45 1 -13 -9 -48 -15 -84 -16 -55 0 -63 2 -87 29 -14 17 -30 30 -36 30 -16 0
-60 47 -60 64 0 9 -4 16 -10 16 -5 0 -10 18 -10 40 0 22 4 40 10 40 5 0 10 15
9 33 0 28 6 129 10 149 0 3 16 21 34 39 17 18 25 30 17 26 -8 -5 -5 -1 6 8 22
16 23 55 1 55 -6 0 -7 3 -4 7 4 3 2 12 -4 20 -6 7 -8 13 -3 13 5 0 3 4 -4 9
-8 5 31 10 96 13 59 3 118 11 130 17 22 12 22 11 22 -61 -1 -62 -2 -70 -13
-52 -7 12 -18 19 -25 17 -7 -3 -10 1 -6 11 3 9 11 16 18 17 10 0 -21 17 -35
18 -10 1 -4 -50 8 -80 38 -90 222 -309 261 -309 7 0 10 -4 7 -10 -3 -5 -2 -10
4 -10 5 0 13 5 16 10 4 7 13 6 27 -1 35 -19 186 -15 248 5 108 37 221 148 259
256 10 27 21 53 24 57 4 3 7 15 7 25 0 23 52 25 70 3 7 -8 21 -15 31 -15 11 0
19 -7 19 -15 0 -8 4 -15 9 -15 5 0 13 -9 16 -20 4 -11 10 -18 15 -15 4 3 6 -4
3 -15 -3 -12 0 -20 6 -20 7 0 10 -4 7 -8 -3 -5 1 -26 8 -48 10 -29 12 -62 6
-129 -12 -124 -12 -145 0 -145 6 0 10 18 10 41 0 28 4 38 12 33 6 -4 8 -3 4 4
-7 12 19 42 38 42 25 0 45 -35 47 -85 2 -50 -13 -95 -32 -95 -6 0 -17 -7 -26
-16 -9 -8 -22 -13 -29 -10 -8 3 -14 0 -14 -6 0 -7 -4 -7 -13 1 -11 9 -16 -3
-25 -62 -28 -175 -57 -285 -107 -392 -32 -68 -37 -126 -14 -141 5 -3 9 -14 9
-25 0 -24 55 -59 93 -59 16 0 26 -4 22 -10 -4 -6 5 -9 21 -8 15 2 32 10 38 20
8 14 19 16 47 12 30 -5 39 -3 47 13 12 22 0 49 -17 39 -7 -4 -11 1 -11 13 0
25 -20 38 -31 20 -7 -11 -11 -10 -23 6 -9 11 -16 24 -16 28 0 5 -4 5 -10 2
-20 -13 -9 8 16 30 18 15 25 29 21 40 -7 17 20 68 32 61 14 -9 34 12 36 37 4
32 -17 51 -45 42 -24 -8 -25 3 -5 41 13 26 15 26 15 7 0 -12 -6 -24 -12 -26
-10 -4 -10 -6 0 -6 7 -1 15 6 18 14 8 19 24 20 24 1 0 -8 5 -18 12 -22 7 -4 8
-3 4 4 -5 8 -1 10 10 5 11 -4 13 -8 6 -11 -7 -2 -12 -11 -12 -19 0 -11 4 -13
13 -6 30 24 56 22 70 -7 17 -33 7 -55 -20 -48 -13 3 -24 -2 -31 -13 -17 -27
-15 -55 6 -56 9 -1 22 -3 27 -4 18 -4 65 24 65 39 0 12 3 12 15 2 9 -8 13 -21
9 -32 -3 -11 -1 -17 6 -16 7 2 17 -6 23 -17 7 -11 19 -24 27 -30 21 -14 80
-15 80 -1 0 6 6 2 12 -9 6 -11 16 -23 22 -27 17 -11 56 -9 56 3 0 5 4 8 9 4 5
-3 11 3 13 12 2 10 -10 30 -29 46 -18 16 -32 32 -32 35 3 20 -3 31 -21 37 -20
6 -20 6 0 28 25 26 25 37 2 30 -12 -3 -19 1 -19 11 0 8 4 13 9 10 4 -3 8 4 8
16 0 12 -4 19 -9 16 -22 -14 1 87 25 112 17 17 24 15 24 -5 0 -11 3 -14 8 -7
4 6 15 13 24 17 11 4 15 13 11 29 -9 36 -43 48 -43 15 0 -7 4 -6 10 3 8 13 10
13 10 -2 0 -23 -19 -33 -26 -14 -3 9 -13 16 -20 16 -11 0 -14 10 -10 42 3 24
10 44 15 46 6 2 8 9 5 17 -6 14 27 16 37 2 3 -5 13 -1 23 8 9 9 16 13 16 9 0
-18 41 48 46 75 4 17 10 34 15 36 15 10 -12 105 -31 105 -20 0 -10 42 15 62
26 20 33 54 13 60 -7 3 -9 11 -4 24 8 18 8 18 17 -3 5 -15 14 -21 24 -17 11 5
14 2 9 -10 -4 -11 -1 -16 10 -16 10 0 16 -9 16 -24 0 -14 5 -28 10 -31 6 -3
10 -14 9 -23 0 -14 -2 -14 -8 2 -5 13 -10 16 -15 8 -3 -6 -13 -9 -20 -6 -18 7
-40 -22 -31 -43 6 -16 8 -16 15 3 8 20 40 41 40 26 0 -14 48 -29 64 -20 9 5
14 13 12 17 -3 4 4 12 15 19 22 14 24 9 9 -19 -7 -13 -7 -19 0 -19 5 0 10 4
10 9 0 5 8 8 18 6 9 -2 25 -4 34 -4 15 -1 11 -9 -17 -47 -24 -32 -35 -56 -35
-80 0 -32 2 -34 21 -24 11 7 18 18 15 25 -3 8 0 16 7 19 8 3 7 5 -3 5 -10 1
-8 6 7 16 13 9 27 34 33 56 10 35 9 44 -7 61 -10 11 -17 22 -15 24 5 10 1 54
-5 53 -21 -3 -25 2 -12 14 8 6 12 11 10 10 -9 -5 -31 20 -31 34 0 13 3 13 15
3 17 -14 45 -7 44 12 0 10 -2 10 -6 0 -8 -21 -32 5 -26 28 3 11 0 20 -6 20 -6
0 -11 -8 -11 -17 0 -15 -15 -10 -15 5 0 4 -4 13 -9 20 -4 7 -2 19 5 28 6 8 12
28 11 45 -1 26 2 28 14 18 8 -6 17 -9 21 -5 3 3 1 6 -5 6 -7 0 -12 7 -12 16 0
14 1 14 16 0 8 -9 24 -16 35 -16 15 0 19 -7 19 -31 0 -17 4 -28 10 -24 5 3 7
13 4 23 -5 15 -4 15 6 -1 6 -10 9 -24 7 -31 -8 -20 75 -13 118 9 19 11 38 27
40 36 3 10 12 20 20 23 19 7 19 15 -1 61 -11 26 -18 34 -24 26 -5 -8 -16 -11
-30 -6 -17 5 -21 13 -17 31 3 16 0 24 -9 24 -8 0 -14 4 -14 9 0 6 15 7 34 4
19 -3 36 -1 40 6 4 6 15 11 24 11 11 0 18 9 18 25 1 14 -2 25 -7 25 -5 0 -8 3
-7 8 3 17 -15 40 -28 35 -20 -7 -18 7 4 24 9 8 11 11 3 7 -11 -5 -12 -1 -7 19
5 20 3 25 -7 21 -9 -3 -13 3 -13 18 1 19 -4 23 -24 21 -14 -1 -18 0 -7 3 9 3
17 10 17 15 0 6 -4 8 -9 5 -5 -3 -11 4 -15 17 -9 35 -7 39 17 35 16 -2 21 -9
19 -26 -2 -21 23 -60 33 -50 2 2 5 22 6 43 1 22 7 46 12 53 5 6 6 12 2 12 -5
0 0 10 11 21 13 15 15 23 7 26 -7 2 -9 11 -6 19 3 8 0 20 -6 28 -6 7 -12 27
-14 44 -2 18 -7 35 -12 40 -5 4 -5 1 -1 -5 4 -7 2 -13 -4 -13 -7 0 -10 5 -8
12 5 14 38 20 38 7 0 -6 5 -7 10 -4 6 4 8 10 5 14 -2 5 3 17 11 27 13 16 15
16 10 2 -3 -12 -1 -15 10 -11 7 3 14 0 14 -6 0 -19 30 -12 31 7 0 13 2 12 9
-5 10 -25 39 -43 58 -36 7 3 12 -4 12 -16 0 -11 5 -23 11 -27 6 -3 8 -17 5
-30 -5 -19 -2 -24 13 -24 24 0 45 -25 35 -41 -5 -9 -10 -7 -16 7 -6 13 -6 10
-2 -11 7 -37 13 -43 23 -26 7 10 10 9 14 -3 7 -19 56 -22 61 -3 2 6 7 21 12
32 13 35 15 75 5 75 -6 0 -11 9 -11 19 0 11 -4 22 -9 25 -5 3 -14 27 -21 53
-11 47 -38 83 -60 83 -6 0 -9 8 -6 18 6 19 -30 86 -42 78 -18 -11 -74 86 -65
111 4 11 9 10 19 -5 32 -47 104 -34 104 18 0 31 -9 37 -27 19 -13 -13 -56 -2
-47 12 3 6 -3 13 -15 16 -18 4 -18 7 -6 20 17 16 20 33 6 33 -6 0 -8 9 -6 20
5 25 -17 68 -32 63 -13 -5 -46 25 -56 50 -3 9 -18 19 -32 23 -14 3 -25 11 -25
16 0 6 -7 7 -15 4 -18 -6 -41 34 -33 56 10 26 8 32 -14 32 -13 0 -22 -6 -20
-12 1 -7 -5 -12 -13 -12 -28 0 -15 27 30 59 25 18 43 37 40 42 -4 5 1 9 9 9
25 0 66 -22 66 -37 0 -7 8 -21 18 -31 31 -33 52 -62 52 -71 0 -5 7 -14 16 -21
12 -11 18 -11 31 2 19 19 11 48 -18 66 -18 12 -23 12 -30 0 -6 -8 -9 2 -9 29
0 23 5 45 10 48 6 3 10 -2 10 -12 0 -32 19 -43 41 -25 24 21 24 33 -1 62 -11
13 -20 18 -20 12 0 -7 -11 -12 -24 -12 -17 0 -26 7 -30 27 -8 30 8 46 39 38
11 -3 26 -7 33 -9 7 -1 17 -7 23 -13 6 -6 17 -9 23 -7 7 3 29 -11 50 -31 41
-39 57 -43 77 -19 16 19 0 50 -24 46 -9 -1 -21 6 -26 16 -6 11 -30 24 -55 31
-25 6 -48 15 -51 21 -3 5 -18 7 -34 4 -18 -4 -33 0 -44 10 -8 9 -20 16 -26 16
-6 0 -11 4 -11 9 0 6 -17 11 -37 13 -35 3 -38 6 -44 41 -7 45 -17 57 -29 37
-8 -13 -10 -12 -10 3 0 11 -4 15 -12 11 -8 -5 -9 0 -6 14 4 12 2 25 -4 28 -5
3 -7 12 -4 20 3 8 1 14 -4 14 -6 0 -10 5 -10 10 0 6 11 8 26 4 19 -5 25 -4 20
5 -4 6 -13 11 -19 11 -7 0 -13 9 -13 20 0 12 7 20 17 20 10 0 19 6 22 13 2 6
8 9 12 5 5 -5 0 -18 -11 -30 -19 -22 -19 -22 14 1 18 12 29 27 25 33 -4 7 0 9
9 5 11 -4 18 1 22 16 3 12 1 24 -4 25 -6 2 -8 8 -4 13 3 5 0 9 -7 9 -9 0 -9 3
0 14 14 17 -2 57 -22 55 -9 0 -9 -2 1 -6 16 -6 16 -23 -1 -23 -7 0 -17 10 -22
22 -6 13 -19 23 -30 23 -33 0 -65 27 -65 55 0 37 -42 72 -78 67 -26 -4 -29 -2
-30 25 -1 35 -10 47 -40 53 -13 2 -25 -3 -31 -13 -5 -9 -13 -13 -18 -9 -8 8
-9 12 -11 55 -2 15 -8 22 -22 22 -11 0 -29 5 -40 12 -15 10 -23 9 -39 -6 -13
-12 -18 -23 -12 -30 6 -7 4 -16 -4 -23 -10 -10 -14 -9 -19 3 -3 9 -12 14 -20
11 -10 -4 -12 0 -9 14 3 11 -1 21 -11 25 -25 10 -19 32 14 49 37 19 40 51 5
57 -14 3 -25 0 -26 -6 0 -6 -5 4 -10 21 -5 18 -21 40 -34 49 -18 12 -25 25
-24 48 0 17 3 26 5 19 3 -7 12 -9 19 -6 12 4 12 7 -1 20 -8 9 -12 18 -9 21 3
4 10 0 15 -8 9 -13 10 -13 10 0 1 11 4 10 16 -5 8 -11 20 -19 25 -18 5 2 9 -2
9 -7 0 -6 8 -10 18 -10 21 1 58 27 49 36 -4 4 -12 2 -20 -4 -17 -14 -42 1 -34
22 4 11 -4 19 -28 28 -19 6 -35 16 -35 20 0 4 -9 8 -19 8 -11 0 -21 3 -24 8
-2 4 -3 2 -1 -5 5 -20 -9 -23 -29 -6 -19 17 -19 17 -13 -4 5 -14 3 -23 -3 -23
-6 0 -11 5 -11 10 0 6 -6 10 -14 10 -9 0 -13 8 -10 23 2 12 2 16 -2 10 -10
-22 -24 -14 -24 12 0 14 5 25 11 25 5 0 7 -5 3 -11 -4 -7 0 -9 14 -5 14 5 24
1 31 -11 9 -16 10 -16 11 5 0 12 7 25 15 28 8 4 15 10 15 16 0 5 -4 6 -10 3
-5 -3 -10 -2 -10 2 0 5 -13 14 -30 20 -16 6 -30 18 -30 27 0 21 -16 20 -29 -1
-9 -16 -12 -16 -21 -3 -7 11 -6 16 4 18 25 6 25 27 0 30 -41 4 -68 4 -106 -2
-21 -2 -40 0 -43 5 -4 5 1 6 9 3 9 -3 16 -1 16 5 0 7 -6 14 -13 17 -23 8 -96
10 -91 2 3 -5 -2 -8 -10 -8 -9 0 -13 7 -11 19 2 13 -1 18 -9 15 -18 -7 -61 18
-61 36 0 21 34 25 48 6 8 -11 17 -13 27 -6 13 8 13 11 1 22 -12 11 -12 10 -6
-2 8 -13 7 -13 -8 -1 -9 7 -17 20 -17 27 0 8 -7 14 -15 14 -8 0 -15 -4 -15
-10 0 -5 -4 -10 -10 -10 -5 0 -10 7 -10 16 0 9 -6 14 -12 11 -7 -2 -12 -10
-11 -16 2 -6 -4 -11 -13 -11 -11 0 -14 5 -10 16 5 13 1 15 -20 10 -19 -5 -24
-4 -18 6 4 7 -3 4 -16 -7 -17 -15 -22 -16 -18 -5 4 11 0 16 -12 16 -10 0 -16
-4 -14 -8 3 -4 0 -8 -6 -8 -6 0 -8 -5 -4 -12 5 -9 2 -9 -9 1 -15 12 -17 11
-17 -5 0 -16 -2 -17 -10 -4 -5 8 -10 10 -10 3 0 -12 -50 -34 -90 -38 -14 -2
-19 -1 -12 2 6 2 12 12 12 20 0 13 -3 13 -15 3 -13 -11 -14 -10 -9 4 3 9 12
16 19 16 8 0 11 8 8 20 -3 11 -10 20 -17 20 -33 0 -88 -24 -105 -46 -11 -14
-25 -23 -31 -19 -7 4 -14 -2 -17 -13 -3 -11 -12 -23 -20 -26 -8 -4 -11 -2 -7
5 4 8 0 7 -15 0 -11 -7 -21 -9 -21 -7 0 3 -11 1 -25 -4 -21 -8 -25 -6 -26 8 0
14 -2 14 -9 -3 -6 -14 -9 -16 -10 -5 -2 8 -2 19 -1 24 1 5 -5 6 -13 3 -9 -4
-24 5 -38 22 -25 29 -58 47 -58 30 0 -6 -4 -8 -9 -4 -13 7 -80 -27 -81 -41 0
-7 -6 -14 -14 -17 -11 -5 -12 0 -3 24 7 17 17 27 24 25 7 -3 13 -2 13 3 0 5
-13 11 -30 14 -16 4 -37 18 -46 32 -20 31 -33 140 -14 115 10 -12 11 -11 7 7
-3 13 -1 26 4 29 17 10 -3 25 -29 22 -15 -2 -28 0 -29 5 -7 19 -2 35 13 41 9
3 12 2 8 -5 -3 -6 3 -5 15 3 22 14 28 28 11 28 -5 0 -10 7 -10 15 0 8 9 15 20
15 12 0 20 7 20 18 0 14 -2 15 -10 2 -5 -8 -10 -11 -10 -5 0 5 -5 4 -12 -3 -9
-9 -17 -7 -34 9 -14 13 -24 17 -29 10z m-148 -2311 c8 -30 53 -27 54 3 1 15 4
11 10 -13 19 -75 19 -97 -2 -116 -10 -9 -19 -24 -19 -32 0 -8 -6 -12 -13 -9
-9 3 -12 -4 -11 -22 2 -40 3 -41 19 -35 8 4 15 1 15 -5 0 -6 8 -11 19 -11 28
0 45 -24 27 -40 -9 -6 -20 -9 -26 -5 -5 3 -10 -2 -10 -12 0 -11 -7 -28 -15
-39 -8 -10 -14 -28 -14 -39 0 -14 4 -11 14 13 15 35 20 38 31 20 4 -6 3 -8 -3
-5 -12 7 -23 -15 -22 -41 0 -14 2 -13 9 3 6 14 9 15 10 5 0 -8 10 1 21 20 13
22 18 27 14 13 -16 -70 -16 -70 -4 -47 13 25 75 33 65 8 -3 -8 1 -14 10 -14 8
0 17 7 20 15 4 8 10 15 15 15 4 0 5 -8 2 -17 -5 -12 -2 -15 10 -10 12 4 17 1
18 -11 0 -14 2 -14 9 3 l9 20 1 -20 c2 -17 3 -16 10 5 4 14 8 20 9 13 1 -7 18
4 39 22 31 29 44 35 84 35 41 0 46 -2 41 -20 -4 -14 0 -20 11 -20 9 0 16 8 16
20 0 26 8 25 37 -2 26 -25 29 -38 8 -38 -9 0 -12 -6 -9 -15 7 -18 34 -20 34
-2 0 8 4 7 10 -3 9 -13 11 -13 19 -1 18 27 23 -31 7 -74 -8 -22 -15 -34 -15
-26 -1 11 -4 10 -15 -4 -14 -19 -53 -14 -40 6 4 8 1 8 -12 1 -11 -5 -28 -6
-39 -1 -17 6 -17 8 -2 8 36 2 15 21 -23 21 -22 0 -40 3 -40 8 0 4 -9 13 -21
20 -18 11 -24 11 -38 -2 -10 -9 -25 -16 -33 -16 -9 0 -29 -7 -44 -15 -16 -8
-36 -15 -44 -15 -8 0 -22 -5 -30 -10 -11 -8 -7 -9 15 -4 27 7 29 6 16 -9 -7
-10 -10 -17 -6 -17 5 0 6 -2 3 -5 -3 -3 -18 -1 -34 5 -25 9 -27 8 -11 -4 21
-16 22 -30 2 -22 -8 3 -14 2 -12 -2 3 -12 -74 -77 -91 -77 -8 0 -17 -6 -19
-13 -3 -8 1 -10 13 -5 16 6 17 5 4 -9 -12 -13 -16 -13 -29 -1 -11 12 -15 12
-22 1 -5 -7 -9 -21 -9 -31 0 -10 -4 -15 -10 -12 -15 9 -12 -2 6 -31 9 -13 14
-27 10 -31 -3 -3 -6 -1 -6 5 0 7 -5 12 -11 12 -5 0 -7 -4 -4 -10 13 -21 -68
-41 -155 -38 l-85 3 0 50 c0 28 -5 59 -10 70 -18 40 -87 136 -101 142 -8 3
-14 13 -14 23 0 10 -7 31 -15 46 -17 34 -19 54 -5 54 13 0 -16 71 -33 82 -8 5
-7 8 5 8 12 0 16 5 11 18 -5 14 -3 15 7 5 11 -10 16 -7 27 14 16 32 17 55 1
72 -11 10 -10 14 5 22 9 6 17 20 17 33 0 14 7 26 18 29 9 2 25 8 35 12 12 5
17 2 17 -9 0 -28 18 -17 25 14 4 17 11 28 16 24 5 -3 7 -10 4 -15 -3 -5 0 -6
8 -3 8 3 20 -2 27 -11 10 -12 16 -13 26 -4 10 8 14 8 14 1 0 -6 6 -9 14 -6 15
6 16 -11 3 -33 -4 -6 -4 -18 -1 -27 5 -13 9 -14 20 -5 10 8 14 8 14 0 0 -6 7
-11 15 -11 8 0 15 9 15 20 0 11 5 20 10 20 16 0 12 42 -7 62 -9 10 -20 18 -25
18 -14 0 -38 27 -38 42 0 14 35 58 46 58 3 0 12 -6 20 -14 11 -11 11 -16 1
-20 -6 -3 0 -3 16 0 26 6 38 -8 17 -21 -6 -4 -7 -11 -4 -17 4 -7 10 -5 16 5 5
9 15 14 23 11 16 -7 21 11 5 21 -5 3 -7 12 -4 20 4 9 -4 15 -23 18 l-28 4 28
2 c21 1 30 -4 34 -19z m437 -701 c36 -10 116 -80 116 -102 0 -13 -28 -34 -69
-52 -40 -18 -47 -15 -31 15 26 49 -26 120 -87 120 -19 0 -43 -5 -54 -10 -30
-17 -51 -66 -43 -105 6 -35 6 -35 -21 -25 -41 16 -67 13 -63 -7 3 -15 13 -18
52 -16 32 1 45 -2 35 -7 -15 -10 -84 -6 -121 6 -21 6 -21 6 -2 -14 50 -52 180
-88 281 -77 36 4 62 9 60 12 -3 2 -34 6 -69 7 -34 2 -74 7 -88 11 -19 5 -22 4
-10 -4 8 -6 11 -11 5 -11 -5 1 -18 7 -28 14 -16 12 -16 17 -5 35 10 17 23 21
68 21 39 0 51 -3 40 -10 -11 -7 -6 -10 22 -10 46 0 68 8 68 26 0 8 5 14 11 14
5 0 7 -4 4 -10 -3 -5 3 -10 14 -10 12 0 21 4 21 10 0 5 7 7 16 3 15 -6 15 -8
-2 -20 -17 -12 -16 -13 16 -12 19 2 41 7 47 12 7 5 19 7 27 4 10 -4 16 2 18
15 5 32 25 33 36 1 6 -15 11 -22 11 -15 1 6 10 12 21 12 22 0 27 -15 8 -26 -7
-4 -8 -3 -4 4 4 7 2 12 -5 12 -7 0 -9 -9 -5 -22 3 -13 6 -30 6 -38 1 -9 6 -5
16 10 15 24 15 24 9 -15 -17 -108 -108 -226 -211 -274 -149 -71 -305 -46 -422
67 -65 64 -125 182 -91 182 5 0 8 4 5 9 -3 5 3 11 14 14 25 6 27 45 3 54 -40
15 -46 30 -33 85 12 50 13 50 26 27 10 -18 13 -20 14 -7 0 30 15 27 16 -4 1
-29 17 -48 39 -48 6 0 3 4 -5 10 -11 7 -9 11 13 19 16 6 32 11 36 11 4 0 18
12 32 26 34 37 76 65 118 80 45 16 75 17 125 3z m-1051 -31 c20 -10 50 -36 66
-58 15 -22 31 -36 35 -33 3 3 6 1 6 -6 0 -7 -10 -22 -22 -32 l-23 -20 23 11
c18 9 22 8 22 -7 0 -14 2 -15 9 -4 5 7 15 11 22 9 10 -3 6 -9 -10 -17 -19 -11
-25 -11 -32 0 -7 12 -9 12 -9 0 0 -8 -6 -11 -16 -7 -24 9 -36 -3 -20 -20 17
-16 116 -20 116 -4 0 6 5 10 10 10 6 0 10 -12 10 -26 0 -15 7 -32 15 -38 13
-10 13 -15 -3 -46 -10 -19 -22 -34 -28 -33 -6 1 -10 -8 -10 -20 1 -13 -4 -21
-12 -19 -8 1 -12 -3 -10 -10 9 -25 -107 -107 -176 -125 -47 -13 -152 -14 -195
-2 -58 16 -141 61 -168 93 -36 41 -53 72 -46 81 5 4 3 5 -3 2 -6 -4 -16 5 -23
19 -9 21 -9 30 1 43 12 14 11 14 -4 3 -15 -12 -18 -9 -29 28 -9 28 -9 44 -2
51 7 7 9 2 7 -18 -2 -15 -1 -20 2 -10 3 9 10 17 15 17 5 0 9 7 9 15 0 8 9 15
20 15 11 0 20 5 20 11 0 7 19 -8 43 -33 23 -25 58 -50 77 -57 48 -17 197 -25
245 -13 45 10 38 15 -45 31 -30 5 -39 8 -20 7 19 -2 46 1 60 6 14 5 38 11 54
14 16 2 31 6 35 10 3 4 -6 4 -20 1 -16 -4 -33 -1 -45 9 -16 14 -17 15 -1 10 9
-3 17 0 18 7 0 8 2 8 5 1 4 -8 14 -8 39 0 52 18 55 28 5 20 -37 -5 -43 -4 -32
7 21 22 14 75 -14 108 -37 44 -89 43 -135 -1 -33 -31 -69 -46 -69 -29 0 4 9
16 20 26 11 10 20 14 20 10 0 -5 6 -1 13 9 27 37 110 39 180 4z m167 -448 c0
-23 -85 -120 -105 -120 -20 0 -114 -95 -129 -131 -8 -19 -28 -46 -45 -62 -17
-15 -31 -32 -31 -37 0 -6 -7 -10 -15 -10 -8 0 -15 -4 -15 -10 0 -5 -13 -10
-29 -10 -18 0 -34 -8 -43 -22 l-15 -22 -31 32 c-17 18 -36 32 -42 32 -5 0 -10
5 -10 10 0 6 -11 20 -25 32 -16 14 -25 32 -25 51 0 20 -6 30 -20 34 -11 3 -20
11 -20 18 0 7 -4 15 -9 17 -5 2 -10 28 -11 58 -3 89 -1 100 16 100 9 0 12 5 8
13 -6 10 -4 10 7 0 16 -15 33 -17 24 -3 -4 7 2 7 17 1 83 -32 160 -46 258 -46
112 1 151 13 230 69 43 31 60 32 60 6z m-1520 -1045 c47 -7 129 -16 183 -20
53 -4 97 -10 97 -14 0 -4 -15 -6 -32 -4 l-33 4 30 -17 c36 -21 55 -39 55 -53
0 -6 7 -11 15 -11 8 0 15 -4 15 -10 0 -5 -4 -10 -10 -10 -17 0 -11 -14 23 -50
80 -86 197 -270 197 -310 0 -6 7 -18 15 -27 9 -8 19 -28 22 -44 3 -16 9 -29
13 -29 4 0 20 -24 35 -54 28 -55 53 -88 137 -179 26 -28 50 -59 54 -69 3 -10
10 -18 15 -18 5 0 9 -9 9 -20 0 -11 4 -20 10 -20 5 0 17 -16 26 -35 9 -20 27
-44 40 -54 13 -10 24 -24 24 -29 0 -14 57 -99 73 -109 7 -5 25 -26 41 -48 37
-51 66 -74 91 -75 16 0 17 -2 6 -9 -12 -8 -12 -11 0 -23 8 -8 22 -17 33 -21
12 -5 17 -14 13 -28 -3 -11 5 -44 19 -72 27 -59 31 -102 9 -123 -8 -8 -17 -31
-21 -52 -4 -20 -14 -45 -23 -56 -9 -10 -16 -26 -17 -35 -1 -32 -16 -81 -25
-81 -5 0 -9 -10 -9 -21 0 -19 -2 -20 -17 -8 -15 13 -16 11 -10 -10 7 -30 -23
-97 -36 -79 -6 9 -7 7 -3 -5 9 -29 -14 -109 -30 -103 -8 3 -11 0 -8 -9 6 -16
-25 -95 -38 -95 -4 0 -5 -6 -2 -13 6 -17 -45 -109 -57 -101 -5 3 -9 -6 -9 -20
0 -14 -4 -28 -10 -31 -5 -3 -10 -14 -10 -23 0 -9 -9 -28 -20 -42 -11 -14 -20
-33 -20 -43 0 -10 -9 -27 -20 -39 -11 -12 -20 -27 -20 -34 0 -16 -62 -138 -72
-142 -5 -2 -5 -8 -2 -13 3 -6 -3 -18 -13 -27 -20 -18 -52 -57 -93 -112 -40
-54 -70 -84 -76 -77 -17 16 -284 820 -375 1127 -21 71 -34 90 -90 135 -14 11
-51 42 -82 69 -42 35 -63 47 -79 43 -26 -7 -34 -3 -173 88 -143 94 -143 93
-197 93 -26 0 -51 3 -56 6 -15 9 -240 67 -335 86 -49 10 -90 20 -93 23 -10 9
-74 -60 -74 -80 0 -12 -16 -34 -37 -51 -49 -40 -36 -55 52 -60 53 -4 65 -8 71
-24 8 -26 3 -30 -50 -30 l-46 -1 0 -39 c0 -30 6 -45 28 -63 15 -13 37 -25 50
-25 12 0 22 -2 22 -5 0 -11 -26 -50 -37 -58 -35 -22 5 -97 51 -97 25 0 26 -2
25 -52 -2 -44 -7 -57 -31 -78 -36 -31 -35 -45 2 -62 21 -9 30 -20 30 -36 0
-12 9 -30 20 -39 20 -18 28 -53 11 -53 -5 0 -52 46 -106 102 -66 69 -105 118
-121 155 -13 29 -24 58 -24 64 0 6 -7 25 -15 42 -8 18 -19 59 -24 92 -13 85
-40 205 -51 226 -19 35 -11 96 20 149 17 28 30 55 30 59 0 5 29 39 65 77 36
38 75 87 87 109 11 22 27 47 34 56 8 9 17 40 20 70 3 30 9 63 14 74 5 11 14
49 20 85 33 180 106 361 194 480 50 67 48 66 116 86 30 9 60 20 66 25 40 33
200 94 269 102 40 5 131 -2 235 -18z m1080 -990 c0 -8 9 -19 19 -24 10 -6 30
-33 44 -60 13 -28 28 -47 32 -43 4 4 4 -3 1 -15 -4 -13 -3 -23 2 -23 5 0 15
-18 22 -40 7 -22 19 -45 27 -51 7 -6 13 -22 13 -36 0 -13 7 -35 16 -48 9 -14
14 -34 11 -45 -3 -11 -1 -20 4 -20 16 0 10 -26 -11 -45 -20 -18 -20 -17 -20
21 0 28 -6 43 -20 52 -11 7 -20 19 -20 28 0 8 -9 24 -20 36 -11 12 -20 30 -20
41 0 10 -7 25 -15 33 -8 9 -15 25 -15 37 0 12 -7 31 -15 41 -8 11 -15 32 -15
47 0 15 -3 29 -7 31 -12 5 -51 86 -45 92 11 12 32 6 32 -9z m-1354 -463 c50
-26 153 -72 162 -72 5 0 15 -6 21 -14 7 -8 26 -17 44 -20 18 -4 54 -20 80 -36
53 -34 86 -93 128 -230 12 -41 26 -79 31 -84 4 -6 8 -18 8 -28 0 -10 5 -18 10
-18 6 0 10 -6 8 -12 -1 -7 2 -26 9 -43 6 -16 25 -66 41 -110 17 -44 64 -165
105 -270 101 -257 144 -371 158 -425 11 -40 10 -49 -9 -79 -26 -42 -221 -261
-233 -261 -5 0 -9 -5 -9 -11 0 -6 -6 -16 -12 -23 -7 -7 -38 -41 -68 -76 -30
-35 -61 -69 -67 -76 -7 -7 -13 -15 -13 -18 0 -2 -19 -25 -42 -50 -24 -25 -47
-52 -53 -59 -5 -7 -35 -42 -66 -77 -31 -36 -73 -96 -94 -135 -21 -38 -43 -76
-49 -83 -14 -18 -57 -141 -61 -172 -2 -14 -6 -53 -10 -87 -5 -35 -12 -63 -17
-63 -5 0 -8 -8 -7 -17 7 -76 -51 -10 -71 80 -7 34 -20 78 -28 97 -10 25 -13
59 -9 123 4 74 2 87 -11 87 -13 0 -12 3 4 14 18 14 18 15 2 28 -17 12 -16 14
8 25 22 10 25 10 20 -3 -3 -9 -1 -12 4 -9 17 11 11 25 -16 36 -25 9 -26 11
-10 27 11 13 13 21 5 29 -8 8 -7 18 5 34 9 13 16 31 16 40 0 10 6 19 13 22 6
2 2 2 -10 0 -25 -4 -26 -2 -17 21 3 9 15 16 25 16 11 0 23 8 26 18 4 9 11 21
17 25 6 4 -1 5 -16 1 -23 -5 -26 -3 -21 15 3 12 13 21 25 21 11 0 16 4 12 11
-3 6 -17 8 -30 5 -17 -5 -24 -2 -24 9 0 8 5 15 10 15 6 0 10 18 10 40 0 29 4
40 15 40 8 0 15 6 15 14 0 8 3 22 7 32 4 11 3 15 -5 10 -6 -3 -14 -1 -18 5 -3
6 -1 15 6 19 9 5 11 23 8 54 -4 35 -2 46 8 46 21 0 -11 47 -37 55 -15 5 -19
16 -19 46 0 22 5 49 10 59 7 13 7 27 -1 44 -10 20 -9 32 4 58 14 28 14 33 2
36 -9 2 -15 15 -15 31 0 15 -5 32 -12 39 -9 9 -9 12 0 12 8 0 12 17 12 48 0
26 5 53 11 59 8 8 7 17 -4 33 -8 12 -13 30 -10 40 3 10 0 27 -6 39 -7 12 -8
21 -2 21 6 0 8 60 4 160 -4 131 -2 159 9 157 7 -2 10 -2 6 0 -5 3 -8 11 -8 18
0 7 -6 15 -14 18 -8 3 -26 30 -40 61 -14 30 -31 58 -37 61 -7 5 -6 11 2 21 9
11 9 18 -1 29 -14 17 -14 17 15 34 19 11 19 12 -2 6 -28 -8 -31 11 -3 20 25 8
26 35 1 35 -20 0 -36 46 -19 56 5 3 6 14 3 25 -5 14 -1 19 12 19 17 1 17 1 1
14 -10 7 -18 20 -18 28 0 8 -5 19 -12 26 -9 9 -9 12 0 12 7 0 12 7 12 15 0 8
-7 15 -15 15 -8 0 -15 7 -15 15 0 8 4 15 8 15 5 0 9 15 9 33 1 43 14 90 27
100 15 10 149 1 172 -11z"/>
<path d="M6035 9694 c-454 -36 -858 -127 -1207 -275 -174 -73 -396 -186 -518
-264 -410 -262 -601 -417 -854 -691 -215 -233 -360 -428 -454 -611 -40 -78
-51 -92 -76 -97 -42 -9 -191 -74 -261 -115 -316 -183 -538 -499 -612 -870 -23
-118 -23 -355 0 -474 73 -367 315 -703 630 -874 26 -15 47 -32 47 -40 0 -31
104 -326 162 -457 116 -264 274 -526 454 -751 114 -142 359 -387 499 -499 578
-461 1285 -718 2002 -729 84 -1 153 -4 153 -5 0 -2 -36 -61 -79 -131 -210
-338 -257 -531 -131 -531 38 0 266 80 480 168 568 235 1100 554 1540 926 112
95 202 179 355 335 l113 115 -31 15 c-25 12 -38 31 -59 83 -54 137 -106 171
-149 101 -50 -80 -123 -155 -218 -222 -124 -88 -177 -116 -246 -132 -88 -20
-134 -1 -221 88 -69 70 -81 78 -114 73 -21 -3 -18 3 -59 -112 -83 -225 -172
-367 -257 -408 -140 -68 -374 78 -374 235 0 44 24 103 45 111 29 11 62 -6 88
-45 53 -80 131 -137 172 -127 28 7 39 37 90 241 61 246 135 358 252 383 72 16
118 -9 238 -127 108 -107 147 -128 207 -110 50 14 93 62 203 229 152 229 224
292 292 256 36 -18 66 -51 137 -153 64 -90 99 -114 142 -94 14 6 60 38 103 70
154 117 316 211 365 211 14 0 43 11 64 24 42 26 207 166 197 166 -4 0 14 24
41 53 26 28 51 51 56 49 5 -1 7 2 4 7 -4 5 7 30 24 55 94 139 170 354 191 545
29 259 -46 568 -191 781 l-37 56 -6 234 c-9 404 -80 750 -228 1121 -299 748
-847 1349 -1576 1726 -51 26 -93 51 -93 54 0 15 145 69 247 92 133 30 167 45
171 74 13 87 -308 187 -798 249 -120 15 -784 28 -915 18z m184 -365 c69 -6
139 -16 157 -24 63 -26 84 -97 43 -149 -34 -43 -57 -47 -186 -30 -149 20 -511
14 -648 -10 -518 -93 -933 -315 -1322 -708 -139 -139 -247 -271 -331 -402 -96
-150 -134 -176 -202 -141 -37 19 -50 43 -50 90 0 73 238 393 450 605 312 313
662 535 1040 660 340 112 646 144 1049 109z m672 -84 c41 -22 69 -71 69 -124
0 -37 -6 -49 -39 -82 -33 -33 -45 -39 -82 -39 -77 0 -140 60 -139 132 1 39 34
90 70 110 42 22 81 23 121 3z m1823 -1636 c21 -6 49 -22 62 -36 l24 -26 0
-1423 0 -1422 -31 -31 -31 -31 -2658 0 -2658 0 -31 31 -31 31 0 1421 c0 1344
1 1423 18 1445 42 54 -111 51 2697 52 1825 0 2612 -3 2639 -11z"/>
<path d="M3475 7488 c-3 -7 -4 -625 -3 -1373 l3 -1360 850 -3 c468 -1 860 0
873 3 l22 5 0 1370 0 1370 -870 0 c-687 0 -872 -3 -875 -12z"/>
<path d="M6970 6125 l0 -1375 860 0 860 0 0 1375 0 1375 -860 0 -860 0 0
-1375z"/>
<path d="M6074 6709 c-15 -8 -20 -18 -17 -42 2 -18 1 -27 -2 -21 -4 7 -15 9
-27 7 -16 -5 -13 -8 18 -19 49 -17 49 -17 34 1 -14 16 -10 18 14 9 12 -5 14
-10 6 -19 -8 -10 -7 -20 5 -39 16 -23 16 -26 2 -26 -9 0 -21 9 -27 20 -6 11
-15 18 -21 15 -5 -4 -9 -2 -9 4 0 5 -15 13 -32 16 -18 4 -36 13 -40 19 -6 8
-11 7 -18 -4 -9 -13 -10 -13 -10 0 -1 8 -8 2 -16 -14 -13 -23 -18 -26 -26 -15
-6 10 -7 4 -3 -18 5 -25 3 -32 -7 -28 -18 7 -42 -10 -34 -24 4 -6 23 -11 42
-11 27 0 37 -5 46 -26 11 -24 13 -25 25 -8 12 16 13 16 13 1 0 -9 -10 -25 -21
-36 -13 -12 -19 -26 -16 -35 4 -9 2 -16 -3 -16 -5 0 -17 -16 -25 -36 -17 -42
-18 -47 -6 -40 5 4 7 -4 3 -16 -4 -15 -2 -19 7 -13 10 6 11 3 1 -15 -12 -22
-7 -32 22 -42 4 -2 9 -20 10 -40 3 -34 8 -42 28 -40 3 0 6 -8 6 -18 0 -10 -4
-16 -8 -14 -4 3 -8 -4 -8 -16 0 -11 -7 -23 -15 -26 -8 -4 -15 -11 -15 -16 0
-6 7 -8 15 -4 8 3 15 1 15 -4 0 -13 33 -13 47 1 8 8 13 8 17 0 11 -18 24 -13
28 12 3 20 7 16 43 -28 37 -46 85 -71 85 -44 0 5 5 7 11 4 6 -4 13 3 16 15 6
21 6 21 37 -8 27 -27 37 -30 81 -27 61 5 108 18 112 32 3 8 -41 45 -198 165
-9 7 -20 35 -24 62 l-7 49 34 -23 c18 -13 43 -35 56 -49 l23 -26 -16 34 c-11
21 -13 37 -7 43 6 6 17 -7 32 -36 26 -54 34 -59 25 -13 -6 30 -6 31 8 12 8
-11 19 -33 26 -50 11 -29 11 -29 5 10 -3 22 -8 48 -11 59 -3 11 -1 16 5 12 5
-3 12 -28 16 -55 4 -28 13 -65 21 -83 l14 -33 3 50 3 50 17 -75 17 -75 -2 112
c-1 67 2 108 7 103 5 -5 10 -35 11 -67 3 -117 5 -133 14 -133 11 0 24 112 27
219 1 79 -1 88 -30 135 -17 28 -40 68 -51 90 -10 21 -39 55 -63 77 -24 21 -41
43 -37 49 3 5 -1 10 -10 10 -8 0 -39 12 -68 27 -92 46 -179 63 -223 42z"/>
<path d="M6082 5958 c-19 -19 -14 -30 9 -23 16 5 20 3 17 -6 -3 -8 -13 -14
-24 -14 -10 0 -22 -3 -25 -8 -3 -4 -12 4 -19 18 -17 32 -50 41 -87 23 -32 -15
-40 -44 -19 -71 10 -13 28 -19 60 -19 27 0 46 -4 46 -11 0 -6 6 -3 13 8 8 10
25 19 38 19 24 2 69 22 79 36 3 4 14 12 25 18 15 9 16 11 4 12 -9 0 -24 -9
-34 -20 -21 -24 -37 -26 -29 -5 4 8 -1 17 -10 21 -9 3 -16 12 -16 20 0 17 -12
18 -28 2z"/>
<path d="M6249 5916 c9 -11 9 -16 0 -21 -6 -4 -15 -2 -20 6 -13 22 -79 -14
-74 -41 2 -11 0 -18 -6 -15 -5 4 -7 11 -4 16 4 5 1 9 -4 9 -10 0 -15 -14 -12
-32 0 -5 -3 -8 -9 -8 -5 0 -10 -9 -10 -20 0 -37 -20 -20 -21 18 -1 20 -3 29
-6 20 -3 -14 -15 -18 -49 -18 -24 0 -44 -4 -44 -8 0 -4 19 -7 43 -5 36 2 44
-1 52 -20 14 -30 55 -35 62 -8 3 12 12 21 20 21 8 0 12 4 9 9 -3 4 13 16 36
25 37 14 43 14 58 1 27 -24 107 -19 139 8 28 24 38 59 15 50 -8 -3 -14 1 -14
11 0 24 -18 19 -57 -14 -18 -16 -44 -30 -56 -29 -12 0 -16 3 -9 6 9 3 5 12
-13 29 -28 26 -44 32 -26 10z"/>
<path d="M14569 7833 c-21 -24 -141 -133 -146 -133 -2 0 -14 -10 -26 -23 -40
-41 -136 -107 -142 -97 -8 13 -37 0 -31 -15 2 -7 -6 -17 -20 -24 -13 -6 -24
-15 -24 -20 0 -9 -84 -52 -97 -50 -17 4 -73 -24 -73 -34 0 -8 -3 -7 -9 1 -6
10 -17 11 -42 4 -36 -9 -107 -5 -124 8 -5 4 -26 11 -45 15 -19 4 -40 12 -47
17 -7 5 -17 7 -23 3 -5 -3 -30 7 -55 24 -79 53 -56 18 38 -59 240 -197 264
-236 283 -455 4 -55 9 -74 15 -60 4 11 8 17 8 12 2 -13 71 64 71 79 0 9 11 14
33 14 36 0 120 28 170 57 24 14 33 27 35 51 2 18 7 32 13 32 5 0 9 5 9 11 0 7
12 23 28 37 31 29 79 31 144 5 43 -17 68 -7 68 28 0 27 46 26 53 -1 3 -13 14
-20 30 -20 15 0 31 -9 41 -25 15 -22 45 -38 32 -17 -3 5 2 32 12 61 13 41 20
51 34 48 13 -4 18 1 18 15 0 14 6 19 23 16 26 -4 37 -45 13 -54 -11 -4 -12
-11 -4 -35 5 -16 8 -36 5 -44 -3 -7 -2 -28 3 -45 5 -17 6 -38 3 -46 -6 -17
-30 -19 -36 -1 -3 6 -6 -12 -6 -40 -1 -36 3 -53 12 -53 9 0 9 -2 -1 -8 -6 -5
-11 -20 -10 -34 2 -25 3 -25 43 -14 39 11 41 15 78 106 84 209 119 396 81 434
-8 9 -11 16 -5 16 18 0 12 24 -15 67 -31 46 -77 77 -105 70 -11 -3 -32 1 -47
8 -15 8 -66 15 -114 17 l-88 3 -19 60 c-11 33 -21 70 -23 83 -3 22 -4 22 -19
5z"/>
<path d="M14723 5746 c-8 -71 -16 -102 -27 -108 -9 -5 -16 -17 -17 -26 0 -11
-3 -12 -6 -4 -7 18 -23 4 -23 -21 0 -12 -7 -34 -14 -49 -8 -15 -18 -65 -22
-110 -3 -46 -11 -88 -15 -94 -14 -17 17 -37 46 -30 18 5 25 2 25 -8 0 -8 -4
-16 -10 -18 -5 -1 -10 -32 -11 -67 -2 -55 -5 -64 -23 -69 -20 -6 -20 -6 4 -13
24 -6 24 -7 5 -14 -11 -5 -23 -13 -27 -19 -11 -16 -10 -56 1 -56 5 0 11 10 13
23 3 20 4 20 9 -5 6 -26 4 -28 -25 -29 -26 0 -28 -2 -11 -9 11 -5 16 -9 10
-10 -5 -1 1 -6 15 -10 l25 -8 -27 -1 c-21 -1 -25 -5 -21 -20 3 -10 0 -29 -7
-41 -10 -19 -9 -22 12 -28 l23 -6 -25 -7 -25 -6 25 -11 c24 -10 24 -11 3 -11
-17 -1 -21 -6 -17 -25 2 -14 0 -28 -6 -31 -18 -11 -11 -35 11 -35 11 0 17 -4
14 -10 -4 -6 -16 -8 -28 -5 -17 5 -15 1 8 -14 21 -15 25 -21 13 -21 -21 0 -36
-66 -19 -83 8 -8 7 -14 -1 -25 -9 -10 -8 -16 3 -23 12 -7 12 -9 -1 -9 -11 0
-16 -13 -18 -45 -2 -41 0 -45 25 -51 16 -4 71 -28 124 -55 l96 -48 17 167 c10
92 35 325 57 517 51 443 79 711 79 753 l0 33 -113 -2 -113 -3 -11 -100z"/>
<path d="M17318 5075 c-9 -27 -33 -113 -53 -190 -56 -212 -82 -308 -90 -330
-6 -18 -6 -19 5 -2 17 26 57 39 81 27 15 -8 19 -21 19 -59 0 -48 20 -81 48
-81 20 0 13 -16 -10 -28 -13 -6 -17 -11 -10 -11 6 -1 12 -8 12 -16 0 -21 28
-19 33 3 4 13 5 12 6 -5 0 -12 -3 -33 -9 -47 -6 -16 -6 -27 0 -31 6 -4 10 0
10 7 0 7 8 1 18 -14 9 -16 20 -28 24 -28 5 0 8 -11 8 -24 0 -13 7 -29 15 -36
11 -10 15 -36 15 -111 0 -59 4 -99 10 -99 6 0 10 -18 10 -40 0 -22 -4 -40 -10
-40 -5 0 -10 -22 -10 -49 0 -41 -4 -51 -20 -56 -11 -3 -20 -10 -20 -15 0 -13
33 -22 40 -10 8 13 37 3 44 -16 3 -8 12 -14 21 -14 11 0 15 -11 15 -40 0 -22
5 -40 10 -40 6 0 10 -18 10 -40 0 -38 2 -40 30 -40 l30 0 0 -80 0 -80 -28 0
c-36 0 -52 -16 -52 -52 l0 -28 -99 0 c-55 0 -102 4 -105 9 -3 5 -18 12 -33 15
-62 15 -83 30 -83 58 0 39 -17 71 -51 93 -18 12 -29 29 -29 43 0 19 -5 22 -40
22 -36 0 -40 3 -40 24 0 13 -7 26 -14 29 -28 11 -38 81 -22 144 8 31 13 59 11
62 -3 2 -5 -2 -5 -10 0 -12 -2 -11 -11 1 -9 13 -10 13 -6 -2 3 -9 2 -18 -2
-20 -5 -2 -12 -14 -16 -27 -5 -16 -4 -21 4 -17 7 5 9 1 5 -8 -3 -9 -10 -13
-15 -10 -5 3 -9 -1 -9 -8 0 -15 -57 -204 -71 -233 -16 -34 -89 -258 -89 -272
0 -9 15 -13 45 -13 64 0 195 21 195 31 0 16 202 10 261 -7 87 -26 169 -74 236
-139 23 -22 53 -48 67 -58 14 -10 26 -27 26 -37 0 -11 4 -19 9 -18 11 4 81
-97 81 -117 0 -8 5 -15 10 -15 6 0 10 -7 10 -15 0 -8 5 -15 10 -15 6 0 10 -11
10 -25 0 -20 5 -25 24 -25 18 0 25 7 30 30 3 17 5 33 5 36 0 4 5 11 13 15 11
7 11 9 -1 9 -10 0 -12 14 -6 68 3 37 2 87 -4 112 -5 25 -7 46 -3 48 5 1 6 18
4 38 -3 27 -7 33 -14 23 -7 -10 -8 -7 -5 11 3 14 -1 61 -8 105 -7 44 -19 113
-25 153 -7 39 -17 72 -22 72 -5 0 -8 6 -7 13 4 36 -2 91 -10 79 -6 -10 -10 -8
-16 10 l-7 23 -9 -25 c-9 -27 -9 -19 7 95 9 67 -3 53 -14 -16 -8 -48 -9 -43
-9 51 0 89 -3 111 -21 142 -15 26 -19 47 -15 71 3 19 1 37 -5 41 -6 3 -8 -1
-5 -12 2 -9 -3 -31 -12 -47 l-15 -30 6 44 c5 32 4 42 -4 37 -17 -10 -15 0 3
18 12 11 13 23 6 53 l-9 38 -2 -40 -3 -40 -6 40 c-3 22 -3 42 2 43 4 2 7 8 7
13 0 6 -4 8 -9 5 -5 -3 -14 25 -21 62 -18 94 -28 120 -41 102 -8 -12 -9 -9 -8
10 2 14 -1 44 -5 67 -6 30 -11 40 -22 36 -10 -4 -12 0 -8 11 3 9 0 39 -7 68
-7 29 -14 47 -16 40 -7 -19 -23 -4 -23 21 0 18 2 19 11 7 9 -13 10 -13 5 0 -2
8 -10 33 -16 55 -7 22 -16 49 -20 60 -16 38 -63 250 -80 355 l-16 105 -16 -50z"/>
<path d="M14063 4231 c6 -49 18 -66 63 -87 21 -10 34 -24 34 -35 0 -16 -6 -17
-50 -12 -38 4 -59 1 -94 -16 -25 -11 -59 -21 -76 -21 -17 0 -30 -5 -30 -12 0
-9 -3 -9 -9 1 -22 35 -69 -55 -56 -107 3 -15 18 -39 33 -55 l26 -27 -23 -21
c-28 -26 -51 -79 -51 -116 0 -29 14 -55 64 -117 l29 -37 -22 -15 c-21 -15 -21
-17 57 -74 86 -64 132 -117 132 -150 0 -12 -4 -19 -9 -16 -5 4 -11 0 -14 -6
-3 -10 -9 -10 -26 0 -12 7 -26 10 -31 7 -6 -4 -10 1 -10 9 0 9 -9 16 -20 16
-10 0 -23 6 -27 14 -10 18 -100 86 -113 86 -6 0 -10 10 -10 23 0 12 -7 30 -14
40 -12 16 -14 15 -24 -10 -18 -48 -23 -89 -13 -114 15 -39 55 -79 79 -79 12 0
22 -4 22 -9 0 -11 122 -91 139 -91 7 0 9 -4 6 -10 -6 -9 10 -14 42 -13 7 1 11
-3 8 -7 -3 -4 9 -13 25 -19 17 -5 30 -16 29 -23 0 -10 -2 -10 -6 0 -2 6 -11
12 -18 12 -13 0 -174 79 -185 90 -12 13 -63 50 -69 50 -4 0 -6 -18 -6 -40 0
-29 3 -39 13 -35 9 3 10 0 4 -12 -10 -18 -1 -59 24 -105 8 -14 14 -35 14 -46
0 -12 5 -24 10 -27 6 -3 10 -15 10 -25 0 -10 6 -23 13 -27 8 -4 19 -26 25 -48
20 -73 43 -139 63 -178 10 -22 19 -45 19 -53 0 -8 5 -14 10 -14 6 0 10 21 10
48 0 26 5 87 10 136 8 65 7 92 -1 102 -9 11 -9 14 0 14 6 0 14 -7 17 -15 4 -8
11 -15 16 -15 14 0 170 -111 165 -117 -8 -7 -87 36 -87 47 0 6 -5 10 -10 10
-6 0 -23 11 -38 25 -18 17 -30 21 -37 14 -13 -13 -20 -229 -8 -238 13 -8 46
-127 47 -166 0 -37 -10 -179 -24 -340 -23 -251 -35 -423 -29 -419 3 2 9 47 13
101 8 117 33 389 45 490 6 48 16 81 30 99 11 14 18 30 16 34 -3 5 -1 11 5 15
5 3 10 3 10 -2 0 -4 9 -53 21 -108 17 -81 20 -135 20 -285 -1 -102 -6 -232
-12 -290 -12 -121 -2 -174 41 -219 23 -25 24 -31 13 -47 -20 -27 -16 -54 7
-54 11 0 20 6 20 14 0 12 6 12 38 0 44 -16 62 -17 62 -5 0 5 -22 15 -50 22
-27 7 -50 16 -50 21 0 10 3 10 35 -2 14 -5 41 -12 59 -14 32 -4 33 -2 43 39 9
40 8 43 -12 43 -24 0 -98 22 -93 27 2 2 22 -1 44 -6 27 -7 52 -7 75 -1 l34 10
-45 2 c-25 0 -58 7 -75 15 -27 13 -28 14 -5 10 14 -2 37 -6 52 -9 23 -5 27 -2
33 27 4 17 13 35 19 39 6 4 -5 8 -24 9 -31 1 -32 2 -10 8 14 4 43 6 65 5 22
-1 42 2 45 6 3 4 59 10 125 13 128 6 317 20 505 37 63 5 151 12 195 16 44 3
100 9 125 15 25 5 79 11 120 14 41 3 138 15 215 27 161 24 297 32 372 23 38
-5 61 -15 89 -39 35 -30 40 -32 51 -17 9 13 11 8 11 -29 -1 -68 1 -80 12 -80
6 0 10 18 10 39 0 47 17 64 23 24 4 -27 4 -27 6 4 2 43 -15 83 -35 83 -15 0
-16 11 -10 98 3 53 3 102 -1 108 -5 7 -26 20 -48 29 -23 10 -34 19 -27 22 8 3
19 0 25 -6 6 -6 23 -11 37 -11 18 0 31 -8 40 -25 10 -19 19 -23 39 -20 22 5
23 4 6 -4 -18 -8 -18 -10 -3 -16 9 -3 25 -2 36 4 15 8 27 4 55 -16 21 -14 37
-32 37 -40 0 -11 13 -12 65 -7 47 5 65 4 65 -5 0 -8 -12 -10 -37 -6 -21 3 -31
2 -23 -1 88 -34 93 -35 87 -21 -4 11 0 13 13 10 10 -3 16 -11 14 -18 -3 -8 7
-17 28 -24 54 -17 219 -43 249 -39 16 3 26 1 23 -4 -3 -4 1 -8 8 -8 7 0 81 -6
163 -12 213 -17 272 -15 321 10 66 34 241 214 272 280 36 77 36 94 2 127 -26
25 -28 30 -13 40 14 10 13 14 -11 32 -29 23 -34 43 -11 43 11 0 15 11 15 40 0
22 -5 40 -11 40 -7 0 -8 26 -3 80 5 57 3 80 -5 80 -7 0 -11 22 -11 58 0 67
-19 102 -56 102 -21 0 -24 4 -24 39 0 22 5 41 13 44 6 2 -4 3 -23 2 -19 -2
-43 -3 -52 -4 -14 -1 -18 -10 -18 -41 0 -32 -4 -40 -18 -40 -21 0 -62 -39 -62
-59 0 -9 -13 -12 -45 -9 -25 2 -46 1 -47 -2 -2 -3 -18 -14 -37 -24 l-34 -19 6
29 c3 16 4 23 1 17 -8 -17 -32 -16 -50 2 -9 8 -20 15 -25 15 -5 0 -9 -7 -9
-15 0 -11 -11 -15 -42 -13 l-43 1 38 4 c54 6 51 33 -4 33 -32 0 -42 4 -46 20
-7 27 -39 25 -47 -2 -6 -23 -6 -23 -22 -3 -10 14 -11 21 -3 24 7 2 -3 10 -21
17 -42 18 -48 18 -53 -3 -4 -14 -5 -12 -6 5 -1 15 -7 22 -20 22 -14 0 -18 -5
-14 -20 4 -14 0 -20 -12 -20 -12 0 -15 5 -10 20 4 11 2 20 -4 20 -6 0 -11 -9
-11 -20 0 -20 0 -20 -32 0 -41 25 -48 25 -48 0 0 -11 -4 -20 -10 -20 -5 0 -10
7 -10 15 0 8 -4 15 -10 15 -5 0 -10 -7 -10 -15 0 -8 -9 -15 -20 -15 -13 0 -20
7 -20 18 0 11 -12 22 -33 30 -44 16 -45 16 -49 -10 -3 -23 -3 -23 -27 5 -14
15 -31 27 -38 27 -7 0 -13 12 -13 28 -1 29 -44 70 -55 52 -10 -16 -34 -12 -57
10 -23 21 -48 27 -48 11 0 -5 6 -11 13 -14 7 -2 8 -8 3 -13 -5 -5 -11 -4 -13
4 -3 6 -11 12 -18 12 -7 0 -26 7 -41 15 -38 20 -104 20 -104 0 0 -22 -63 -30
-99 -12 -17 9 -31 11 -31 6 0 -14 -28 -11 -33 4 -4 10 -7 10 -18 0 -7 -7 -23
-13 -36 -13 -20 0 -23 5 -23 35 l0 35 -40 -6 c-34 -6 -40 -4 -40 11 0 9 -12
30 -27 45 -24 26 -31 28 -77 23 -28 -3 -54 -11 -58 -16 -4 -8 -14 -7 -31 0
-26 12 -92 8 -139 -8 -72 -24 -89 -32 -78 -39 7 -4 -4 -10 -26 -15 -25 -4 -40
-3 -42 4 -2 6 -21 11 -43 11 -32 0 -39 -3 -39 -20 0 -12 -7 -20 -16 -20 -9 0
-18 9 -21 20 -6 21 -43 28 -43 8 0 -9 -3 -9 -12 0 -7 7 -24 12 -38 12 -14 0
-32 9 -40 20 -8 11 -22 20 -32 20 -10 0 -18 5 -18 10 0 13 -37 13 -46 -1 -3
-6 -17 -8 -30 -5 -16 4 -24 2 -24 -7 0 -7 -9 -19 -20 -27 -11 -8 -20 -18 -20
-22 0 -4 9 -8 20 -8 11 0 20 -7 20 -15 0 -8 7 -15 16 -15 9 0 31 -7 50 -16 24
-11 38 -13 47 -6 15 13 95 14 102 1 11 -16 25 -10 25 12 0 14 5 19 17 17 26
-5 29 -38 4 -38 -15 0 -21 -7 -22 -22 l0 -23 -11 23 c-6 12 -17 22 -24 22 -19
0 -64 -45 -64 -64 0 -11 -9 -16 -30 -16 -22 0 -30 -5 -30 -17 0 -22 -20 -3
-24 23 -3 20 -25 27 -27 9 -2 -22 -21 -47 -28 -37 -4 7 -19 8 -46 2 -26 -6
-52 -6 -74 1 -19 7 -36 8 -40 3 -3 -5 -19 -10 -36 -11 -16 -1 -55 -7 -85 -13
-107 -21 -120 -23 -120 -11 0 8 -6 9 -17 3 -22 -10 -63 -9 -81 2 -7 4 -19 3
-27 -4 -10 -8 -15 -8 -20 1 -4 6 -10 7 -14 2 -5 -8 -83 -43 -96 -43 -5 0 -55
49 -79 77 -16 19 -16 26 -5 57 7 19 15 33 18 31 3 -2 4 21 3 51 -4 50 -6 54
-28 54 -26 0 -84 37 -84 54 0 5 -7 18 -17 28 -15 17 -15 19 2 38 11 12 28 20
39 19 12 -1 28 1 36 4 8 3 36 11 63 18 26 7 47 16 47 19 0 21 -84 75 -130 85
-33 7 -89 57 -90 80 0 6 -12 24 -27 40 -63 67 -68 105 -15 105 20 1 54 7 76
15 21 7 43 12 50 9 6 -2 31 2 56 10 34 11 39 14 20 15 -19 1 -22 3 -11 10 12
8 12 12 2 25 -8 9 -10 16 -5 16 5 0 -14 21 -41 48 -28 26 -56 59 -63 75 -6 15
-23 32 -36 37 -13 5 -27 14 -31 19 -3 6 -17 11 -31 11 -13 0 -24 4 -24 8 0 5
-18 15 -41 22 -22 8 -47 22 -54 33 -7 11 -18 17 -23 13 -5 -3 -7 5 -4 19 2 13
13 27 23 30 10 4 19 12 19 20 0 8 16 15 43 18 153 20 153 20 247 -7 105 -30
222 -35 257 -11 41 29 180 65 251 65 76 0 106 21 57 40 -14 5 -25 16 -25 23 0
13 -84 47 -115 47 -7 0 -36 12 -64 26 -28 14 -60 26 -71 27 -11 1 -20 6 -20
12 0 5 -11 11 -25 11 -19 2 -25 -3 -26 -20 0 -11 -3 -15 -6 -8 -2 6 -9 12 -15
12 -5 0 -16 6 -23 14 -12 12 -22 12 -57 1 -24 -7 -44 -19 -46 -28 -4 -17 -29
-22 -190 -39 -78 -8 -116 -9 -120 -1 -4 5 -17 15 -29 22 -13 6 -23 16 -23 22
0 6 5 7 11 3 7 -4 10 -1 7 7 -3 8 -10 13 -16 12 -6 -2 -9 3 -6 11 3 8 0 17 -7
22 -9 5 -11 -3 -6 -35z m588 -1670 c-10 -7 0 -11 35 -16 27 -4 63 -15 79 -23
24 -13 72 -17 225 -20 176 -4 197 -6 213 -23 18 -20 77 -27 77 -9 0 6 9 6 26
0 14 -6 46 -10 71 -10 91 0 252 -62 319 -121 11 -11 25 -19 31 -19 11 0 85
-61 117 -97 11 -13 25 -23 31 -23 7 0 31 -18 54 -40 23 -22 47 -40 54 -40 7 0
19 -9 27 -20 8 -11 19 -20 25 -20 9 0 47 -27 89 -66 31 -27 69 -44 104 -44 63
0 31 -16 -55 -28 -230 -31 -468 -61 -568 -72 -60 -6 -150 -15 -200 -20 -88 -9
-243 -19 -652 -43 -181 -11 -202 -11 -198 3 2 8 11 85 19 170 46 471 57 574
62 582 3 4 11 8 17 8 8 0 7 -4 -2 -9z"/>
<path d="M13360 3943 c0 -16 -6 -23 -20 -23 -14 0 -22 -11 -31 -40 -7 -22 -18
-40 -26 -40 -9 0 -13 -13 -13 -40 0 -33 -3 -40 -20 -40 -11 0 -20 -4 -20 -10
0 -5 -9 -10 -19 -10 -11 0 -23 -9 -26 -20 -7 -21 -25 -28 -25 -10 0 6 -5 10
-11 10 -8 0 -8 -5 1 -15 10 -12 8 -22 -9 -50 -12 -20 -21 -49 -21 -65 0 -18
-11 -39 -31 -59 -17 -17 -28 -35 -24 -41 3 -5 -1 -10 -9 -10 -12 0 -16 -10
-16 -40 0 -22 -4 -40 -9 -40 -5 0 -13 -9 -16 -21 -5 -16 -13 -20 -34 -17 -27
4 -28 3 -20 -31 12 -51 12 -51 -26 -51 -34 0 -35 -1 -35 -40 0 -22 -4 -40 -10
-40 -5 0 -10 -19 -10 -42 -1 -41 -1 -42 -14 -19 -11 20 -14 21 -19 6 -4 -9 -7
-37 -7 -61 0 -33 -4 -44 -15 -44 -13 0 -14 -4 -5 -20 8 -14 8 -26 0 -40 -15
-28 -4 -43 20 -27 12 7 18 18 14 29 -7 22 14 61 27 52 6 -3 8 -17 4 -31 -6
-24 -5 -24 10 -9 12 11 14 20 7 29 -15 19 3 54 37 72 20 10 28 20 25 30 -3 8
1 22 10 30 18 18 21 45 6 45 -5 0 -10 6 -10 13 0 8 14 14 34 15 26 2 36 -2 39
-15 4 -14 5 -12 6 5 0 13 5 20 11 17 6 -3 7 1 4 9 -3 9 -10 13 -15 10 -16 -9
-10 17 8 34 12 13 15 13 11 2 -2 -8 0 -20 6 -26 8 -9 15 -5 26 15 8 15 30 49
48 76 19 30 30 56 26 67 -3 12 0 18 9 18 8 0 23 17 33 38 21 43 21 43 23 80 1
21 3 24 11 12 8 -12 10 -10 10 8 0 13 4 20 10 17 6 -4 10 9 10 32 0 24 3 33 9
25 5 -9 15 3 29 39 12 28 22 59 22 68 0 9 10 35 22 59 17 32 20 45 11 50 -7 4
-10 17 -6 30 3 12 10 19 15 16 5 -3 7 -12 4 -20 -3 -8 -2 -14 3 -14 5 0 11 10
15 23 8 31 6 46 -3 22 -7 -18 -9 -17 -24 10 -15 27 -16 28 -17 8z"/>
<path d="M14800 3149 c0 -18 -4 -20 -27 -13 -16 4 -88 8 -160 8 -100 1 -133
-2 -133 -11 0 -7 -12 -13 -26 -13 -21 0 -25 -4 -22 -22 3 -22 9 -23 103 -28
55 -3 102 -2 105 1 3 3 39 2 80 -3 41 -5 82 -9 90 -8 8 1 51 3 94 3 53 1 81 6
83 15 3 6 -2 12 -11 12 -9 0 -16 6 -16 14 0 16 -24 28 -43 20 -21 -8 -67 14
-67 31 0 9 -9 15 -25 15 -19 0 -25 -5 -25 -21z"/>
</g>
</svg>
