<svg xmlns="http://www.w3.org/2000/svg" xmlns:xlink="http://www.w3.org/1999/xlink" version="1.1" id="Layer_1" x="0px" y="0px" viewBox="0 0 2000 2000" style="enable-background:new 0 0 2000 2000;" xml:space="preserve">
<style type="text/css">
	.st0{fill:#F2F2F2;}
	.st1{fill:#0E538C;}
	.st2{fill:#D3D3D3;}
	.st3{fill:#0B4870;}
	.st4{fill:#FFBE55;}
	.st5{fill:#F7F7F7;}
	.st6{fill:#FFE3CA;}
	.st7{opacity:0.5;}
	.st8{fill:#2A94F4;}
</style>
<g id="Gloor">
	<path class="st0" d="M369.8,1129.7C348.7,1097.4,216,893.8,291,686c71.5-198.2,285-270,416-314c79.5-26.7,347.4-104.5,635,20   c94.3,40.8,244.5,105.8,332.8,270.6c76.5,142.7,101.2,350.3-0.8,516.4c-116.2,189.4-334.3,222.6-468,243   C963.3,1459,560.2,1421.9,369.8,1129.7z"/>
	<ellipse class="st1" cx="992.8" cy="1429.6" rx="750" ry="41.5"/>
	<path class="st0" d="M150,15"/>
</g>
<g id="Teaching_Materials">
	<rect x="482.8" y="990.9" class="st2" width="1018" height="18"/>
	<rect x="540.4" y="445" class="st2" width="932.6" height="549.5"/>
	<rect x="560.7" y="469.1" class="st3" width="891.7" height="513.7"/>
	<rect x="560.8" y="1111" class="st4" width="217.2" height="329"/>
	<rect x="591.4" y="1165.2" class="st5" width="161.8" height="60.9"/>
	<rect x="591.4" y="1261.3" class="st5" width="161.8" height="13.5"/>
	<rect x="591.4" y="1292.4" class="st5" width="161.8" height="13.5"/>
	<rect x="820.8" y="1110.9" class="st4" width="394" height="329"/>
	<path class="st0" d="M1006.8,1308.9c0,0,83-145,131-137s55,71,55,71l11,171h-205L1006.8,1308.9z"/>
	<circle class="st5" cx="907.3" cy="1191.4" r="38.5"/>
	<path class="st5" d="M840.8,1355.9c0,0,51-65,105-82s132,82,132,82l48,58h-285V1355.9z"/>
	<g>
		<rect x="652" y="585.5" class="st0" width="699" height="3"/>
	</g>
	<g>
		<rect x="652" y="657.8" class="st0" width="699" height="3"/>
	</g>
	<g>
		<rect x="652" y="730" class="st0" width="699" height="3"/>
	</g>
	<g>
		<rect x="652" y="802.3" class="st0" width="699" height="3"/>
	</g>
	<g>
		<rect x="652" y="874.5" class="st0" width="699" height="3"/>
	</g>
</g>
<g id="Person">
	<path class="st3" d="M1400.5,1489.6c-10.4-74.1-28.7-210.1-24.6-229.3c14.8-69.9,34.6-286.4,34.6-286.4l-59.1,4.7   c0,0-36.1,211.8-40.8,272.4c-3.4,43.9,36.9,177.6,56,237.8C1377.6,1490.1,1389.6,1491.5,1400.5,1489.6z"/>
	<path class="st6" d="M1404.5,1517.8c-1.1-7.7-2.5-17.2-4-28.2c-10.9,1.8-23,0.5-33.9-0.8c5.3,16.8,9,27.9,9.6,29.7   C1385.7,1520,1395,1519.8,1404.5,1517.8z"/>
	<path class="st3" d="M1376.2,1518.5c0.1,0.2,0.1,0.3,0.1,0.3s-60.6,21-65.3,28.8c0,0,80.8-3.1,96.4-10.1c0,0-1.1-7.3-2.9-19.6   C1395,1519.8,1385.7,1520,1376.2,1518.5z"/>
	<path class="st3" d="M1482,1521.9c0,0-30.3,9.3-56.7,25.6c0,0,82.4-2.3,88.6-3.9c1.1-0.3,0.9-7.8-0.2-20.1   c-10.7-0.1-21.5-1.5-32.1-3.5C1481.9,1521.3,1482,1521.9,1482,1521.9z"/>
	<path class="st6" d="M1473.2,1488.7c4.2,15.9,7.2,27.2,8.4,31.4c10.7,2,21.4,3.3,32.1,3.5c-0.9-9.1-2.2-20.9-4-34.3   C1497.5,1490.2,1485.5,1489.8,1473.2,1488.7z"/>
	<path class="st3" d="M1469.2,1031.1c-2.4-35.9-16.3-55.4-16.7-57.1l-77.7,3c0,0,24.1,230.2,35.7,275.3   c8.9,34.3,45.6,172.3,62.7,236.5c12.3,1.1,24.3,1.5,36.5,0.5c-8.6-66.5-26-173.8-32.3-202.8   C1472.4,1263.9,1475,1115.7,1469.2,1031.1z"/>
	<path class="st6" d="M1351.4,782c0,0-56.7,16.3-65.3,12.4c-8.5-3.9-98.7-91.7-108.8-116.6l-20.2,9.3c0,0,86.3,144.6,107.3,147.7   c21,3.1,92.5-6.2,92.5-6.2L1351.4,782z"/>
	<path class="st4" d="M1342.9,777.3l8.5,58.3c0,0,14,7,28.8-2.3c14.8-9.3,37.6-61.8,22.7-67.4S1342.9,777.3,1342.9,777.3z"/>
	<path class="st6" d="M1167.6,700l-26.4-19.4c0,0,23.3-23.3,28.8-20.2c5.4,3.1,15.9,26.5,16.1,31.5   C1186.3,696.9,1167.6,700,1167.6,700z"/>
	<path class="st3" d="M1383.6,668.9c0,0-15.1-19.1-3.4-24.5c11.7-5.4,35-5.4,48.2-1.6c13.2,3.9,26.4,14.8,26.4,14.8   s10.9-6.2,14.8,6.2s-6.2,56.7,14,83.9s14.8,101,7,115c-7.8,14-35,17.1-42.7,6.2c-7.8-10.9-37.3-143-37.3-143L1383.6,668.9z"/>
	<path class="st4" d="M1405.9,761.8c0,0-24.9,33.4-35,56.7c-10.1,23.3-18.7,43.5-17.1,83.9s-2.3,76.2-2.3,76.2s100.7,11.5,109.2-4.3   c8.9-16.7-3.1-59.1,4.7-81.6c7.8-22.5,5.1-78.9,4.3-89S1454.8,771.1,1405.9,761.8z"/>
	<path class="st6" d="M1387.2,659.2c0,0-37.3,90.2,17.1,86.3l-3.9,30.3l38.1-3.9v-49l14-52.1L1387.2,659.2z"/>
	<path class="st6" d="M1504.6,802.9c0,0,63.7,71.5,70.7,87c7,15.5-118.9,105.7-122.8,120.5l-21.8-15.5c0,0,101-83.9,95.6-97.2   c-5.4-13.2-56.6-69.7-56.6-69.7L1504.6,802.9z"/>
	<path class="st4" d="M1471.9,844.1l42.7-34.2c0,0-43.5-45.1-55.2-48.2c-11.7-3.1-28.8,7.8-28.8,15.5S1471.9,844.1,1471.9,844.1z"/>
	<path class="st3" d="M1416.7,689.5v18.7h6.2c0,0,2.3-10.9,7.8-12.4c5.4-1.6,10.1,12.4-3.9,21.8l11.7,49.4l12.4-30l7-66.8   c0,0-13.2-12.4-14.8-12.4c-1.6,0-47.4-3.9-47.4-3.9s-22.5,0.8-14,10.9C1390.3,674.7,1411.3,690.3,1416.7,689.5z"/>
	<polygon class="st5" points="1131.1,682.9 1199.5,653.3 1205.7,661.9 1134.2,693 1122.6,693  "/>
	<path class="st6" d="M1136.6,676.7c0,0-2.3,8.5-0.8,8.5c1.6,0,3.9-3.1,7.8-3.1c5.5,0,13.2-3.9,15.5-5.4c2.3-1.6,6.2-0.8,7.8-3.1   s3-7.4,3-7.4l0.1-5.8C1170,660.3,1145.1,660.3,1136.6,676.7z"/>
	<path class="st6" d="M1159.1,673.5c0,0,12.4,6.2,17.1,7s7-7.8,0-10.1C1169.2,668.1,1151.3,664.2,1159.1,673.5z"/>
</g>
<g id="Plant">
	<g class="st7">
		<path class="st8" d="M1605.1,1311.7c-48.6-3-89.8-44.6-90.1-79.7c-0.3-29,27.5-36.5,28.5-73c0.8-31.6-19.6-38.6-16.1-65.4    c3.6-28.2,31.3-60.6,64.5-60.7c38.2-0.1,64.2,42.6,66.4,76.8c1.5,23.2-12.7,26.5-12.3,48.4c0.8,44.8,56.7,57.6,56,91    C1701.1,1279.8,1652.9,1314.7,1605.1,1311.7z"/>
	</g>
	<g>
		<rect x="1601.8" y="1080.3" class="st5" width="2.8" height="255.1"/>
	</g>
	<g>
		<path class="st5" d="M1602.9,1168.9c-23.6-1.6-26.9-36.2-27-37.7l2.8-0.2c0,0.3,3.2,33.7,24.4,35.1L1602.9,1168.9z"/>
	</g>
	<g>
		<path class="st8" d="M1568.9,1333.5h67.6c6.6,0,11.9,5.6,11.5,12.2l-9.2,170.8c-0.3,6-5.1,10.7-11.1,10.9l-49.2,2    c-6.3,0.3-11.7-4.6-12-10.9l-9.2-172.8C1557,1339.1,1562.3,1333.5,1568.9,1333.5z"/>
	</g>
	<g>
		<path class="st5" d="M1602.9,1258c-16.9-1.1-19.2-25.7-19.3-26.8l2.8-0.2c0,0.2,2.2,23.2,16.7,24.2L1602.9,1258z"/>
	</g>
	<g>
		<path class="st5" d="M1602,1221l-0.1-2.8c19.8-1,22.7-23.1,22.7-23.3l2.8,0.3C1627.4,1195.5,1624.2,1220,1602,1221z"/>
	</g>
	<g>
		<path class="st5" d="M1603,1286.5l-0.1-2.8c14-0.7,16-15.9,16.1-16.5l2.8,0.3C1621.7,1267.6,1619.3,1285.7,1603,1286.5z"/>
	</g>
</g>
</svg>